{
.appVersion = "1352";
DisplayStrings = (
abcdefghijklmnopqrstuvwxyz,
ABCDEFGHIJKLMNOPQRSTUVWXYZ,
"/n.ss01 oHOt"
);
copyright = "Copyright 2004-2021 The Shalimar Project Authors (https://github.com/googlefonts/shalimar)";
customParameters = (
{
name = licenseURL;
value = "https://scripts.sil.org/OFL";
},
{
name = license;
value = "This Font Software is licensed under the SIL Open Font License, Version 1.1. This license is available with a FAQ at: https://scripts.sil.org/OFL";
},
{
name = vendorID;
value = GOOG;
},
{
name = "Disable Subroutines";
value = 1;
},
{
name = glyphOrder;
value = (
.notdef,
CR,
NULL,
space,
nbspace
);
},
{
name = fsType;
value = (
);
},
{
name = "Use Typo Metrics";
value = 1;
},
{
name = Axes;
value = (
{
Name = Weight;
Tag = wght;
}
);
}
);
date = "2021-10-11 21:53:11 +0000";
designer = "Robert E. Leuschke";
designerURL = www.typesetit.com;
disablesAutomaticAlignment = 1;
familyName = Shalimar;
featurePrefixes = (
{
automatic = 1;
code = "languagesystem DFLT dflt;\012\012languagesystem latn dflt;\012languagesystem latn AZE;\012languagesystem latn CRT;\012languagesystem latn KAZ;\012languagesystem latn TAT;\012languagesystem latn TRK;\012languagesystem latn ROM;\012languagesystem latn MOL;\012languagesystem latn CAT;\012";
name = Languagesystems;
}
);
features = (
{
automatic = 1;
code = "feature locl;\012feature sups;\012feature frac;\012feature ordn;\012feature salt;\012feature ss01;\012";
name = aalt;
},
{
automatic = 1;

glyphs = (
{
color = 5;
glyphname = .notdef;
lastChange = "2021-10-11 21:59:08 +0000";
layers = (
{
layerId = "CE757C0C-4E55-453C-A2E3-610759FCFE83";
paths = (
{
closed = 1;
nodes = (
"74 0 LINE",
"521 0 LINE",
"521 770 LINE",
"74 770 LINE"
);
},
{
closed = 1;
nodes = (
"299 318 LINE",
"412 74 LINE",
"183 74 LINE"
);
},
{
closed = 1;
nodes = (
"149 644 LINE",
"271 385 LINE",
"149 122 LINE"
);
},
{
closed = 1;
nodes = (
"329 381 LINE",
"446 644 LINE",
"446 122 LINE"
);
},
{
closed = 1;
nodes = (
"183 696 LINE",
"415 696 LINE",
"299 447 LINE"
);
}
);
width = 595;
},
{
associatedMasterId = "CE757C0C-4E55-453C-A2E3-610759FCFE83";
layerId = "D8E98E05-6F99-4174-A799-9070338AE5B4";
name = Regular;
paths = (
{
closed = 1;
nodes = (
"552 0 LINE",
"552 817 LINE",
"79 817 LINE",
"79 0 LINE"
);
},
{
closed = 1;
nodes = (
"158 738 LINE",
"473 738 LINE",
"473 79 LINE",
"158 79 LINE"
);
}
);
width = 631;
}
);
note = .notdef;
},
{
color = 5;
glyphname = A;
lastChange = "2021-10-11 21:59:08 +0000";
layers = (
{
layerId = "CE757C0C-4E55-453C-A2E3-610759FCFE83";
paths = (
{
closed = 1;
nodes = (
"63 -76 OFFCURVE",
"79 -71 OFFCURVE",
"102 -62 CURVE SMOOTH",
"126 -53 OFFCURVE",
"138 -46 OFFCURVE",
"138 -41 CURVE SMOOTH",
"138 -39 LINE",
"116 -47 OFFCURVE",
"98 -51 OFFCURVE",
"83 -51 CURVE SMOOTH",
"50 -51 OFFCURVE",
"33 -33 OFFCURVE",
"33 4 CURVE SMOOTH",
"33 51 OFFCURVE",
"57 117 OFFCURVE",
"105 203 CURVE",
"136 204 OFFCURVE",
"234 212 OFFCURVE",
"400 228 CURVE",
"403 178 OFFCURVE",
"410 132 OFFCURVE",
"420 89 CURVE SMOOTH",
"437 18 OFFCURVE",
"459 -18 OFFCURVE",
"487 -18 CURVE SMOOTH",
"496 -18 OFFCURVE",
"504 -14 OFFCURVE",
"512 -5 CURVE SMOOTH",
"532 22 OFFCURVE",
"542 35 OFFCURVE",
"542 36 CURVE SMOOTH",
"542 37 OFFCURVE",
"541 37 OFFCURVE",
"540 38 CURVE",
"539 38 OFFCURVE",
"523 29 OFFCURVE",
"515 29 CURVE SMOOTH",
"503 29 OFFCURVE",
"490 40 OFFCURVE",
"477 61 CURVE SMOOTH",
"455 96 OFFCURVE",
"440 150 OFFCURVE",
"431 221 CURVE",
"435 227 OFFCURVE",
"453 233 OFFCURVE",
"485 238 CURVE SMOOTH",
"517 244 OFFCURVE",
"533 249 OFFCURVE",
"533 253 CURVE SMOOTH",
"533 254 OFFCURVE",
"531 255 OFFCURVE",
"528 255 CURVE SMOOTH",
"515 255 OFFCURVE",
"498 253 OFFCURVE",
"477 250 CURVE SMOOTH",
"427 244 LINE",
"416 308 OFFCURVE",
"411 375 OFFCURVE",
"411 446 CURVE SMOOTH",
"411 459 OFFCURVE",
"412 468 OFFCURVE",
"413 474 CURVE",
"419 481 OFFCURVE",
"422 496 OFFCURVE",
"422 517 CURVE SMOOTH",
"422 550 OFFCURVE",
"413 566 OFFCURVE",
"396 566 CURVE SMOOTH",
"393 566 OFFCURVE",
"391 566 OFFCURVE",
"390 565 CURVE",
"320 526 OFFCURVE",
"226 419 OFFCURVE",
"108 243 CURVE",
"79 245 OFFCURVE",
"61 246 OFFCURVE",
"55 246 CURVE SMOOTH",
"28 246 OFFCURVE",
"15 240 OFFCURVE",
"15 228 CURVE SMOOTH",
"15 215 OFFCURVE",
"37 207 OFFCURVE",
"82 202 CURVE",
"29 115 OFFCURVE",
"3 45 OFFCURVE",
"3 -9 CURVE SMOOTH",
"3 -54 OFFCURVE",
"20 -76 OFFCURVE",
"55 -76 CURVE SMOOTH"
);
},
{
closed = 1;
nodes = (
"234 239 OFFCURVE",
"184 240 OFFCURVE",
"130 243 CURVE",
"217 376 OFFCURVE",
"295 466 OFFCURVE",
"365 515 CURVE",
"379 377 LINE SMOOTH",
"385 317 OFFCURVE",
"393 272 OFFCURVE",
"400 242 CURVE",
"361 240 OFFCURVE",
"321 239 OFFCURVE",
"281 239 CURVE SMOOTH"
);
}
);
width = 558;
},
{
associatedMasterId = "CE757C0C-4E55-453C-A2E3-610759FCFE83";
layerId = "D8E98E05-6F99-4174-A799-9070338AE5B4";
name = Regular;
paths = (
{
closed = 1;
nodes = (
"926 -57 OFFCURVE",
"913 -28 OFFCURVE",
"888 10 CURVE SMOOTH",
"865 45 OFFCURVE",
"844 70 OFFCURVE",
"825 85 CURVE",
"810 146 OFFCURVE",
"802 224 OFFCURVE",
"802 321 CURVE SMOOTH",
"802 444 OFFCURVE",
"814 535 OFFCURVE",
"838 594 CURVE SMOOTH",
"847 615 OFFCURVE",
"859 637 OFFCURVE",
"874 659 CURVE SMOOTH",
"877 664 LINE",
"877 665 OFFCURVE",
"876 666 OFFCURVE",
"875 667 CURVE",
"869 667 OFFCURVE",
"857 657 OFFCURVE",
"839 637 CURVE SMOOTH",
"824 620 OFFCURVE",
"812 607 OFFCURVE",
"805 598 CURVE",
"806 609 OFFCURVE",
"807 619 OFFCURVE",
"806 626 CURVE SMOOTH",
"806 639 OFFCURVE",
"804 646 OFFCURVE",
"801 646 CURVE",
"770 495 OFFCURVE",
"705 343 OFFCURVE",
"607 191 CURVE",
"561 199 OFFCURVE",
"517 203 OFFCURVE",
"475 203 CURVE SMOOTH",
"391 203 OFFCURVE",
"309 187 OFFCURVE",
"230 156 CURVE SMOOTH",
"211 148 OFFCURVE",
"193 135 OFFCURVE",
"177 118 CURVE SMOOTH",
"159 99 OFFCURVE",
"150 79 OFFCURVE",
"150 60 CURVE SMOOTH",
"150 43 OFFCURVE",
"163 28 OFFCURVE",
"188 15 CURVE SMOOTH",
"208 4 OFFCURVE",
"228 -1 OFFCURVE",
"248 -1 CURVE SMOOTH",
"256 -1 OFFCURVE",
"260 2 OFFCURVE",
"259 8 CURVE",
"244 10 OFFCURVE",
"227 17 OFFCURVE",
"208 30 CURVE SMOOTH",
"187 45 OFFCURVE",
"177 59 OFFCURVE",
"177 73 CURVE SMOOTH",
"177 109 OFFCURVE",
"217 137 OFFCURVE",
"297 157 CURVE SMOOTH",
"353 171 OFFCURVE",
"407 178 OFFCURVE",
"460 178 CURVE SMOOTH",
"509 178 OFFCURVE",
"553 172 OFFCURVE",
"590 161 CURVE",
"445 -45 OFFCURVE",
"303 -148 OFFCURVE",
"165 -148 CURVE SMOOTH",
"81 -148 OFFCURVE",
"29 -85 OFFCURVE",
"29 0 CURVE SMOOTH",
"29 55 OFFCURVE",
"45 108 OFFCURVE",
"77 160 CURVE SMOOTH",
"107 208 OFFCURVE",
"146 249 OFFCURVE",
"194 283 CURVE SMOOTH",
"227 306 OFFCURVE",
"253 318 OFFCURVE",
"274 318 CURVE SMOOTH",
"281 318 OFFCURVE",
"287 316 OFFCURVE",
"292 313 CURVE SMOOTH",
"301 308 LINE",
"302 308 OFFCURVE",
"302 308 OFFCURVE",
"302 309 CURVE SMOOTH",
"302 322 OFFCURVE",
"291 328 OFFCURVE",
"268 328 CURVE SMOOTH",
"261 328 OFFCURVE",
"244 326 OFFCURVE",
"236 326 CURVE SMOOTH",
"235 326 OFFCURVE",
"235 327 OFFCURVE",
"236 328 CURVE",
"236 330 OFFCURVE",
"236 331 OFFCURVE",
"235 332 CURVE",
"218 332 OFFCURVE",
"197 321 OFFCURVE",
"173 299 CURVE SMOOTH",
"128 258 OFFCURVE",
"89 211 OFFCURVE",
"58 156 CURVE SMOOTH",
"23 94 OFFCURVE",
"5 36 OFFCURVE",
"5 -17 CURVE SMOOTH",
"5 -112 OFFCURVE",
"62 -175 OFFCURVE",
"157 -175 CURVE SMOOTH",
"213 -175 OFFCURVE",
"274 -154 OFFCURVE",
"339 -113 CURVE SMOOTH",
"392 -78 OFFCURVE",
"442 -35 OFFCURVE",
"487 16 CURVE SMOOTH",
"538 74 OFFCURVE",
"577 122 OFFCURVE",
"602 159 CURVE",
"627 154 OFFCURVE",
"662 140 OFFCURVE",
"705 118 CURVE SMOOTH",
"749 96 OFFCURVE",
"780 76 OFFCURVE",
"799 59 CURVE",
"832 -39 OFFCURVE",
"869 -88 OFFCURVE",
"912 -88 CURVE SMOOTH",
"921 -88 OFFCURVE",
"926 -84 OFFCURVE",
"926 -76 CURVE SMOOTH"
);
},
{
closed = 1;
nodes = (
"735 145 OFFCURVE",
"676 173 OFFCURVE",
"619 185 CURVE",
"684 290 OFFCURVE",
"738 398 OFFCURVE",
"782 507 CURVE",
"777 460 OFFCURVE",
"775 412 OFFCURVE",
"775 363 CURVE SMOOTH",
"775 279 OFFCURVE",
"783 191 OFFCURVE",
"798 100 CURVE"
);
}
);
width = 935;
}
);
note = A;
unicode = 0041;
},
{
color = 5;
glyphname = AE;
lastChange = "2021-10-11 21:59:08 +0000";
layers = (
{
layerId = "CE757C0C-4E55-453C-A2E3-610759FCFE83";
paths = (
{
closed = 1;
nodes = (
"63 -77 OFFCURVE",
"79 -72 OFFCURVE",
"102 -63 CURVE SMOOTH",
"126 -54 OFFCURVE",
"138 -46 OFFCURVE",
"138 -41 CURVE SMOOTH",
"138 -39 LINE",
"116 -47 OFFCURVE",
"97 -51 OFFCURVE",
"82 -51 CURVE SMOOTH",
"49 -51 OFFCURVE",
"33 -33 OFFCURVE",
"33 4 CURVE SMOOTH",
"33 51 OFFCURVE",
"57 117 OFFCURVE",
"105 203 CURVE",
"148 203 OFFCURVE",
"251 210 OFFCURVE",
"414 225 CURVE",
"407 188 OFFCURVE",
"404 154 OFFCURVE",
"404 125 CURVE SMOOTH",
"404 20 OFFCURVE",
"448 -32 OFFCURVE",
"537 -32 CURVE SMOOTH",
"540 -32 LINE SMOOTH",
"587 -32 OFFCURVE",
"643 -25 OFFCURVE",
"706 -12 CURVE SMOOTH",
"769 1 OFFCURVE",
"822 17 OFFCURVE",
"864 36 CURVE SMOOTH",
"894 49 OFFCURVE",
"909 65 OFFCURVE",
"909 84 CURVE SMOOTH",
"909 89 OFFCURVE",
"907 91 OFFCURVE",
"903 91 CURVE",
"901 89 OFFCURVE",
"876 76 OFFCURVE",
"827 51 CURVE SMOOTH",
"756 15 OFFCURVE",
"687 -3 OFFCURVE",
"620 -3 CURVE SMOOTH",
"504 -3 OFFCURVE",
"446 55 OFFCURVE",
"446 171 CURVE SMOOTH",
"446 199 OFFCURVE",
"450 230 OFFCURVE",
"457 265 CURVE",
"576 265 OFFCURVE",
"659 270 OFFCURVE",
"707 279 CURVE SMOOTH",
"714 280 OFFCURVE",
"726 284 OFFCURVE",
"744 291 CURVE SMOOTH",
"763 298 OFFCURVE",
"772 302 OFFCURVE",
"772 304 CURVE",
"771 305 OFFCURVE",
"771 305 OFFCURVE",
"770 305 CURVE SMOOTH",
"758 305 OFFCURVE",
"740 304 OFFCURVE",
"715 303 CURVE SMOOTH",
"690 302 OFFCURVE",
"672 302 OFFCURVE",
"660 302 CURVE SMOOTH",
"638 302 OFFCURVE",
"605 303 OFFCURVE",
"560 304 CURVE SMOOTH",
"515 305 OFFCURVE",
"482 306 OFFCURVE",
"460 306 CURVE",
"480 407 OFFCURVE",
"491 468 OFFCURVE",
"493 491 CURVE",
"500 519 LINE",
"541 518 OFFCURVE",
"580 517 OFFCURVE",
"617 517 CURVE SMOOTH",
"735 517 OFFCURVE",
"817 523 OFFCURVE",
"863 536 CURVE SMOOTH",
"878 540 OFFCURVE",
"886 546 OFFCURVE",
"889 555 CURVE",
"853 550 OFFCURVE",
"813 547 OFFCURVE",
"769 547 CURVE SMOOTH",
"739 547 OFFCURVE",
"693 549 OFFCURVE",
"632 553 CURVE SMOOTH",
"571 557 OFFCURVE",
"525 559 OFFCURVE",
"493 560 CURVE",
"490 562 OFFCURVE",
"487 563 OFFCURVE",
"484 563 CURVE SMOOTH",
"465 563 OFFCURVE",
"449 560 OFFCURVE",
"435 555 CURVE SMOOTH",
"416 548 OFFCURVE",
"405 537 OFFCURVE",
"403 522 CURVE",
"405 520 LINE",
"271 431 OFFCURVE",
"172 338 OFFCURVE",
"108 243 CURVE",
"66 245 OFFCURVE",
"48 246 OFFCURVE",
"55 246 CURVE SMOOTH",
"28 246 OFFCURVE",
"15 240 OFFCURVE",
"15 228 CURVE SMOOTH",
"15 215 OFFCURVE",
"37 207 OFFCURVE",
"82 202 CURVE",
"29 115 OFFCURVE",
"3 45 OFFCURVE",
"3 -9 CURVE SMOOTH",
"3 -54 OFFCURVE",
"20 -77 OFFCURVE",
"55 -77 CURVE SMOOTH"
);
},
{
closed = 1;
nodes = (
"254 237 OFFCURVE",
"193 239 OFFCURVE",
"130 242 CURVE",
"186 329 OFFCURVE",
"290 419 OFFCURVE",
"442 513 CURVE",
"437 403 OFFCURVE",
"432 335 OFFCURVE",
"429 310 CURVE",
"419 309 OFFCURVE",
"407 305 OFFCURVE",
"392 298 CURVE SMOOTH",
"375 289 OFFCURVE",
"367 281 OFFCURVE",
"367 273 CURVE SMOOTH",
"367 268 OFFCURVE",
"373 266 OFFCURVE",
"386 266 CURVE SMOOTH",
"394 266 OFFCURVE",
"414 263 OFFCURVE",
"422 263 CURVE",
"417 239 LINE",
"386 238 OFFCURVE",
"351 237 OFFCURVE",
"313 237 CURVE SMOOTH"
);
}
);
width = 911;
},
{
associatedMasterId = "CE757C0C-4E55-453C-A2E3-610759FCFE83";
layerId = "D8E98E05-6F99-4174-A799-9070338AE5B4";
name = Regular;
paths = (
{
closed = 1;
nodes = (
"963 94 OFFCURVE",
"961 96 OFFCURVE",
"957 96 CURVE",
"876 54 LINE SMOOTH",
"801 16 OFFCURVE",
"728 -3 OFFCURVE",
"657 -3 CURVE SMOOTH",
"534 -3 OFFCURVE",
"473 58 OFFCURVE",
"473 181 CURVE SMOOTH",
"473 211 OFFCURVE",
"477 244 OFFCURVE",
"484 281 CURVE",
"610 281 OFFCURVE",
"698 286 OFFCURVE",
"749 296 CURVE SMOOTH",
"756 297 OFFCURVE",
"770 301 OFFCURVE",
"789 308 CURVE SMOOTH",
"808 315 OFFCURVE",
"818 320 OFFCURVE",
"818 322 CURVE",
"817 323 OFFCURVE",
"817 323 OFFCURVE",
"816 323 CURVE SMOOTH",
"803 323 OFFCURVE",
"784 322 OFFCURVE",
"758 321 CURVE SMOOTH",
"732 320 OFFCURVE",
"712 320 OFFCURVE",
"699 320 CURVE SMOOTH",
"676 320 OFFCURVE",
"640 321 OFFCURVE",
"593 322 CURVE SMOOTH",
"546 323 OFFCURVE",
"511 324 OFFCURVE",
"487 324 CURVE",
"508 431 OFFCURVE",
"520 496 OFFCURVE",
"522 520 CURVE",
"530 550 LINE",
"573 549 OFFCURVE",
"614 548 OFFCURVE",
"654 548 CURVE SMOOTH",
"779 548 OFFCURVE",
"865 555 OFFCURVE",
"914 568 CURVE SMOOTH",
"930 572 OFFCURVE",
"939 579 OFFCURVE",
"942 588 CURVE",
"904 583 OFFCURVE",
"862 580 OFFCURVE",
"815 580 CURVE SMOOTH",
"784 580 OFFCURVE",
"735 582 OFFCURVE",
"670 586 CURVE SMOOTH",
"605 590 OFFCURVE",
"556 592 OFFCURVE",
"522 593 CURVE",
"519 596 OFFCURVE",
"516 597 OFFCURVE",
"513 597 CURVE SMOOTH",
"493 597 OFFCURVE",
"476 594 OFFCURVE",
"461 588 CURVE SMOOTH",
"440 580 OFFCURVE",
"429 568 OFFCURVE",
"427 553 CURVE",
"429 551 LINE",
"287 456 OFFCURVE",
"182 358 OFFCURVE",
"114 257 CURVE",
"70 260 OFFCURVE",
"51 261 OFFCURVE",
"58 261 CURVE SMOOTH",
"30 261 OFFCURVE",
"16 255 OFFCURVE",
"16 242 CURVE SMOOTH",
"16 228 OFFCURVE",
"40 219 OFFCURVE",
"87 214 CURVE",
"31 122 OFFCURVE",
"3 47 OFFCURVE",
"3 -10 CURVE SMOOTH",
"3 -58 OFFCURVE",
"21 -82 OFFCURVE",
"58 -82 CURVE SMOOTH",
"67 -82 OFFCURVE",
"83 -77 OFFCURVE",
"108 -67 CURVE SMOOTH",
"133 -57 OFFCURVE",
"146 -49 OFFCURVE",
"146 -43 CURVE SMOOTH",
"146 -41 LINE",
"123 -50 OFFCURVE",
"103 -54 OFFCURVE",
"87 -54 CURVE SMOOTH",
"52 -54 OFFCURVE",
"35 -35 OFFCURVE",
"35 4 CURVE SMOOTH",
"35 53 OFFCURVE",
"60 124 OFFCURVE",
"111 215 CURVE",
"157 215 OFFCURVE",
"266 223 OFFCURVE",
"439 238 CURVE",
"432 199 OFFCURVE",
"428 163 OFFCURVE",
"428 132 CURVE SMOOTH",
"428 21 OFFCURVE",
"475 -34 OFFCURVE",
"569 -34 CURVE SMOOTH",
"572 -34 LINE SMOOTH",
"623 -34 OFFCURVE",
"681 -27 OFFCURVE",
"748 -13 CURVE SMOOTH",
"815 1 OFFCURVE",
"871 18 OFFCURVE",
"916 38 CURVE SMOOTH",
"947 53 OFFCURVE",
"963 70 OFFCURVE",
"963 89 CURVE SMOOTH"
);
},
{
closed = 1;
nodes = (
"463 427 OFFCURVE",
"458 355 OFFCURVE",
"455 328 CURVE",
"444 327 OFFCURVE",
"431 323 OFFCURVE",
"416 316 CURVE SMOOTH",
"398 307 OFFCURVE",
"389 298 OFFCURVE",
"389 289 CURVE SMOOTH",
"389 284 OFFCURVE",
"396 282 OFFCURVE",
"409 282 CURVE SMOOTH",
"417 282 OFFCURVE",
"439 279 OFFCURVE",
"447 279 CURVE",
"442 253 LINE",
"409 252 OFFCURVE",
"372 251 OFFCURVE",
"332 251 CURVE SMOOTH",
"269 251 OFFCURVE",
"204 253 OFFCURVE",
"138 256 CURVE",
"197 348 OFFCURVE",
"307 444 OFFCURVE",
"468 544 CURVE"
);
}
);
width = 965;
}
);
note = AE;
unicode = 00C6;
},
{
color = 5;
glyphname = B;
lastChange = "2021-10-11 21:59:08 +0000";
layers = (
{
layerId = "CE757C0C-4E55-453C-A2E3-610759FCFE83";
paths = (
{
closed = 1;
nodes = (
"173 -99 OFFCURVE",
"184 -88 OFFCURVE",
"195 -67 CURVE",
"172 -58 OFFCURVE",
"160 -13 OFFCURVE",
"160 70 CURVE SMOOTH",
"160 132 OFFCURVE",
"165 183 OFFCURVE",
"175 224 CURVE",
"192 233 OFFCURVE",
"220 237 OFFCURVE",
"258 237 CURVE SMOOTH",
"302 237 OFFCURVE",
"346 231 OFFCURVE",
"390 218 CURVE SMOOTH",
"451 200 OFFCURVE",
"482 175 OFFCURVE",
"482 142 CURVE SMOOTH",
"482 95 OFFCURVE",
"417 44 OFFCURVE",
"286 -11 CURVE SMOOTH",
"248 -26 LINE",
"230 -35 OFFCURVE",
"221 -43 OFFCURVE",
"221 -52 CURVE SMOOTH",
"221 -59 OFFCURVE",
"225 -63 OFFCURVE",
"232 -63 CURVE SMOOTH",
"235 -63 OFFCURVE",
"238 -62 OFFCURVE",
"243 -61 CURVE",
"292 -42 OFFCURVE",
"350 -9 OFFCURVE",
"418 37 CURVE SMOOTH",
"502 94 OFFCURVE",
"544 138 OFFCURVE",
"544 169 CURVE SMOOTH",
"544 202 OFFCURVE",
"508 227 OFFCURVE",
"436 245 CURVE SMOOTH",
"370 259 OFFCURVE",
"320 269 OFFCURVE",
"287 275 CURVE",
"425 344 OFFCURVE",
"494 407 OFFCURVE",
"494 466 CURVE SMOOTH",
"494 531 OFFCURVE",
"385 563 OFFCURVE",
"167 563 CURVE SMOOTH",
"149 563 LINE SMOOTH",
"138 562 OFFCURVE",
"130 562 OFFCURVE",
"123 562 CURVE SMOOTH",
"80 562 LINE SMOOTH",
"59 562 OFFCURVE",
"43 545 OFFCURVE",
"32 511 CURVE",
"102 520 OFFCURVE",
"171 524 OFFCURVE",
"240 524 CURVE SMOOTH",
"388 524 OFFCURVE",
"462 499 OFFCURVE",
"462 449 CURVE SMOOTH",
"462 418 OFFCURVE",
"426 378 OFFCURVE",
"353 329 CURVE SMOOTH",
"284 282 OFFCURVE",
"232 259 OFFCURVE",
"199 259 CURVE SMOOTH",
"191 259 OFFCURVE",
"185 261 OFFCURVE",
"181 264 CURVE",
"181 290 OFFCURVE",
"187 328 OFFCURVE",
"199 379 CURVE SMOOTH",
"212 430 OFFCURVE",
"218 469 OFFCURVE",
"218 495 CURVE SMOOTH",
"218 512 OFFCURVE",
"214 520 OFFCURVE",
"205 520 CURVE SMOOTH",
"194 520 OFFCURVE",
"181 509 OFFCURVE",
"168 486 CURVE",
"169 470 OFFCURVE",
"169 454 OFFCURVE",
"169 437 CURVE SMOOTH",
"169 376 OFFCURVE",
"162 317 OFFCURVE",
"148 258 CURVE",
"123 244 OFFCURVE",
"111 228 OFFCURVE",
"111 211 CURVE SMOOTH",
"111 206 OFFCURVE",
"112 204 OFFCURVE",
"115 204 CURVE SMOOTH",
"120 204 OFFCURVE",
"127 206 OFFCURVE",
"136 211 CURVE",
"136 188 OFFCURVE",
"134 153 OFFCURVE",
"129 106 CURVE SMOOTH",
"125 60 OFFCURVE",
"123 25 OFFCURVE",
"123 2 CURVE SMOOTH",
"123 -65 OFFCURVE",
"136 -99 OFFCURVE",
"161 -99 CURVE SMOOTH"
);
}
);
width = 551;
},
{
associatedMasterId = "CE757C0C-4E55-453C-A2E3-610759FCFE83";
layerId = "D8E98E05-6F99-4174-A799-9070338AE5B4";
name = Regular;
paths = (
{
closed = 1;
nodes = (
"822 506 OFFCURVE",
"778 585 OFFCURVE",
"689 644 CURVE SMOOTH",
"612 695 OFFCURVE",
"520 721 OFFCURVE",
"415 721 CURVE SMOOTH",
"307 721 OFFCURVE",
"216 695 OFFCURVE",
"141 642 CURVE SMOOTH",
"56 583 OFFCURVE",
"14 501 OFFCURVE",
"14 397 CURVE SMOOTH",
"14 338 OFFCURVE",
"35 286 OFFCURVE",
"76 241 CURVE SMOOTH",
"98 217 OFFCURVE",
"113 205 OFFCURVE",
"122 205 CURVE SMOOTH",
"124 205 OFFCURVE",
"126 205 OFFCURVE",
"129 206 CURVE",
"70 249 OFFCURVE",
"41 305 OFFCURVE",
"41 374 CURVE SMOOTH",
"41 473 OFFCURVE",
"82 553 OFFCURVE",
"165 614 CURVE SMOOTH",
"240 669 OFFCURVE",
"328 696 OFFCURVE",
"431 696 CURVE SMOOTH",
"558 696 OFFCURVE",
"661 655 OFFCURVE",
"739 573 CURVE SMOOTH",
"779 531 OFFCURVE",
"799 480 OFFCURVE",
"799 420 CURVE SMOOTH",
"799 371 OFFCURVE",
"783 324 OFFCURVE",
"751 278 CURVE SMOOTH",
"723 237 OFFCURVE",
"686 203 OFFCURVE",
"641 175 CURVE SMOOTH",
"605 152 OFFCURVE",
"583 141 OFFCURVE",
"574 141 CURVE SMOOTH",
"563 141 OFFCURVE",
"558 138 OFFCURVE",
"558 131 CURVE SMOOTH",
"558 108 OFFCURVE",
"570 97 OFFCURVE",
"593 97 CURVE SMOOTH",
"600 97 OFFCURVE",
"615 101 OFFCURVE",
"622 101 CURVE SMOOTH",
"642 101 OFFCURVE",
"669 94 OFFCURVE",
"703 81 CURVE SMOOTH",
"741 66 OFFCURVE",
"760 50 OFFCURVE",
"760 34 CURVE SMOOTH",
"760 22 OFFCURVE",
"744 13 OFFCURVE",
"711 7 CURVE SMOOTH",
"688 3 OFFCURVE",
"667 1 OFFCURVE",
"649 1 CURVE SMOOTH",
"547 1 OFFCURVE",
"488 5 OFFCURVE",
"472 14 CURVE",
"501 67 OFFCURVE",
"526 130 OFFCURVE",
"547 205 CURVE SMOOTH",
"601 404 LINE SMOOTH",
"615 453 OFFCURVE",
"622 481 OFFCURVE",
"622 486 CURVE SMOOTH",
"622 505 OFFCURVE",
"606 527 OFFCURVE",
"589 527 CURVE SMOOTH",
"582 527 OFFCURVE",
"575 523 OFFCURVE",
"570 515 CURVE",
"551 390 OFFCURVE",
"535 304 OFFCURVE",
"523 256 CURVE SMOOTH",
"501 165 OFFCURVE",
"469 83 OFFCURVE",
"428 11 CURVE",
"365 11 LINE SMOOTH",
"322 11 OFFCURVE",
"273 5 OFFCURVE",
"218 -7 CURVE SMOOTH",
"146 -23 OFFCURVE",
"110 -45 OFFCURVE",
"110 -72 CURVE SMOOTH",
"110 -91 OFFCURVE",
"119 -108 OFFCURVE",
"137 -125 CURVE SMOOTH",
"155 -142 OFFCURVE",
"174 -150 OFFCURVE",
"193 -150 CURVE SMOOTH",
"201 -150 OFFCURVE",
"205 -149 OFFCURVE",
"205 -147 CURVE",
"204 -146 OFFCURVE",
"203 -145 OFFCURVE",
"202 -145 CURVE",
"167 -131 OFFCURVE",
"150 -114 OFFCURVE",
"150 -95 CURVE SMOOTH",
"150 -70 OFFCURVE",
"182 -49 OFFCURVE",
"247 -33 CURVE SMOOTH",
"296 -21 OFFCURVE",
"339 -15 OFFCURVE",
"378 -15 CURVE SMOOTH",
"402 -15 OFFCURVE",
"414 -16 OFFCURVE",
"414 -17 CURVE",
"403 -37 LINE SMOOTH",
"367 -98 OFFCURVE",
"335 -129 OFFCURVE",
"307 -129 CURVE SMOOTH",
"298 -129 OFFCURVE",
"291 -124 OFFCURVE",
"286 -113 CURVE",
"285 -112 OFFCURVE",
"284 -102 OFFCURVE",
"285 -85 CURVE SMOOTH",
"286 -71 OFFCURVE",
"283 -64 OFFCURVE",
"277 -64 CURVE SMOOTH",
"269 -64 OFFCURVE",
"261 -90 OFFCURVE",
"261 -101 CURVE SMOOTH",
"261 -131 OFFCURVE",
"280 -146 OFFCURVE",
"317 -146 CURVE SMOOTH",
"351 -146 OFFCURVE",
"391 -114 OFFCURVE",
"436 -49 CURVE SMOOTH",
"455 -20 LINE",
"460 -17 OFFCURVE",
"467 -15 OFFCURVE",
"477 -15 CURVE SMOOTH",
"499 -15 OFFCURVE",
"532 -16 OFFCURVE",
"575 -19 CURVE SMOOTH",
"619 -22 OFFCURVE",
"652 -24 OFFCURVE",
"674 -24 CURVE SMOOTH",
"755 -24 OFFCURVE",
"796 -4 OFFCURVE",
"796 35 CURVE SMOOTH",
"796 60 OFFCURVE",
"778 82 OFFCURVE",
"741 100 CURVE",
"653 131 LINE",
"766 215 OFFCURVE",
"822 307 OFFCURVE",
"822 407 CURVE SMOOTH"
);
}
);
width = 825;
}
);
note = B;
unicode = 0042;
},
{
color = 5;
glyphname = C;
lastChange = "2021-10-11 21:59:08 +0000";
layers = (
{
layerId = "CE757C0C-4E55-453C-A2E3-610759FCFE83";
paths = (
{
closed = 1;
nodes = (
"365 -56 OFFCURVE",
"439 -32 OFFCURVE",
"517 15 CURVE SMOOTH",
"589 59 OFFCURVE",
"647 112 OFFCURVE",
"691 173 CURVE",
"693 175 OFFCURVE",
"694 177 OFFCURVE",
"694 179 CURVE SMOOTH",
"694 186 OFFCURVE",
"692 189 OFFCURVE",
"687 189 CURVE SMOOTH",
"684 189 OFFCURVE",
"681 187 OFFCURVE",
"678 182 CURVE SMOOTH",
"642 128 OFFCURVE",
"588 79 OFFCURVE",
"515 36 CURVE SMOOTH",
"440 -9 OFFCURVE",
"371 -32 OFFCURVE",
"309 -32 CURVE SMOOTH",
"236 -32 OFFCURVE",
"178 -17 OFFCURVE",
"135 14 CURVE SMOOTH",
"85 50 OFFCURVE",
"60 103 OFFCURVE",
"60 173 CURVE SMOOTH",
"60 267 OFFCURVE",
"102 352 OFFCURVE",
"186 428 CURVE SMOOTH",
"267 502 OFFCURVE",
"356 539 OFFCURVE",
"451 539 CURVE SMOOTH",
"483 539 OFFCURVE",
"509 533 OFFCURVE",
"530 522 CURVE",
"501 453 OFFCURVE",
"486 398 OFFCURVE",
"486 359 CURVE SMOOTH",
"486 332 OFFCURVE",
"491 318 OFFCURVE",
"502 318 CURVE SMOOTH",
"515 318 OFFCURVE",
"524 330 OFFCURVE",
"527 355 CURVE SMOOTH",
"530 380 OFFCURVE",
"532 397 OFFCURVE",
"532 406 CURVE SMOOTH",
"533 450 OFFCURVE",
"538 485 OFFCURVE",
"545 512 CURVE",
"575 476 LINE",
"578 477 OFFCURVE",
"580 480 OFFCURVE",
"580 487 CURVE SMOOTH",
"580 505 OFFCURVE",
"571 522 OFFCURVE",
"554 539 CURVE",
"559 550 OFFCURVE",
"565 560 OFFCURVE",
"570 569 CURVE SMOOTH",
"578 584 OFFCURVE",
"582 593 OFFCURVE",
"582 596 CURVE SMOOTH",
"582 598 OFFCURVE",
"581 599 OFFCURVE",
"579 599 CURVE SMOOTH",
"571 599 OFFCURVE",
"559 582 OFFCURVE",
"542 548 CURVE",
"519 565 OFFCURVE",
"488 574 OFFCURVE",
"450 574 CURVE SMOOTH",
"341 574 OFFCURVE",
"244 540 OFFCURVE",
"159 471 CURVE SMOOTH",
"68 398 OFFCURVE",
"23 308 OFFCURVE",
"23 201 CURVE SMOOTH",
"23 126 OFFCURVE",
"50 65 OFFCURVE",
"104 16 CURVE SMOOTH",
"156 -32 OFFCURVE",
"220 -56 OFFCURVE",
"295 -56 CURVE SMOOTH"
);
}
);
width = 625;
},
{
associatedMasterId = "CE757C0C-4E55-453C-A2E3-610759FCFE83";
layerId = "D8E98E05-6F99-4174-A799-9070338AE5B4";
name = Regular;
paths = (
{
closed = 1;
nodes = (
"765 573 OFFCURVE",
"749 595 OFFCURVE",
"717 610 CURVE SMOOTH",
"692 621 OFFCURVE",
"664 627 OFFCURVE",
"631 627 CURVE SMOOTH",
"546 627 OFFCURVE",
"460 597 OFFCURVE",
"373 536 CURVE SMOOTH",
"290 478 OFFCURVE",
"229 410 OFFCURVE",
"189 331 CURVE",
"153 334 OFFCURVE",
"120 344 OFFCURVE",
"89 361 CURVE SMOOTH",
"51 382 OFFCURVE",
"32 409 OFFCURVE",
"32 440 CURVE SMOOTH",
"32 454 OFFCURVE",
"37 466 OFFCURVE",
"48 475 CURVE SMOOTH",
"59 484 OFFCURVE",
"65 489 OFFCURVE",
"65 490 CURVE SMOOTH",
"65 492 OFFCURVE",
"62 493 OFFCURVE",
"56 493 CURVE SMOOTH",
"28 493 OFFCURVE",
"1 471 OFFCURVE",
"1 443 CURVE SMOOTH",
"1 408 OFFCURVE",
"23 378 OFFCURVE",
"67 353 CURVE SMOOTH",
"100 334 OFFCURVE",
"138 322 OFFCURVE",
"179 316 CURVE",
"140 233 OFFCURVE",
"120 158 OFFCURVE",
"120 89 CURVE SMOOTH",
"120 -56 OFFCURVE",
"205 -140 OFFCURVE",
"350 -140 CURVE SMOOTH",
"414 -140 OFFCURVE",
"478 -124 OFFCURVE",
"543 -93 CURVE SMOOTH",
"611 -61 OFFCURVE",
"662 -19 OFFCURVE",
"695 32 CURVE SMOOTH",
"716 64 OFFCURVE",
"727 94 OFFCURVE",
"727 122 CURVE SMOOTH",
"727 153 OFFCURVE",
"715 177 OFFCURVE",
"691 194 CURVE SMOOTH",
"670 209 OFFCURVE",
"643 217 OFFCURVE",
"611 217 CURVE SMOOTH",
"568 217 OFFCURVE",
"530 204 OFFCURVE",
"498 178 CURVE SMOOTH",
"485 168 OFFCURVE",
"479 161 OFFCURVE",
"479 156 CURVE SMOOTH",
"479 155 OFFCURVE",
"479 154 OFFCURVE",
"480 153 CURVE",
"481 153 OFFCURVE",
"483 154 OFFCURVE",
"485 155 CURVE SMOOTH",
"538 182 OFFCURVE",
"584 196 OFFCURVE",
"623 196 CURVE SMOOTH",
"677 196 OFFCURVE",
"704 176 OFFCURVE",
"704 136 CURVE SMOOTH",
"704 110 OFFCURVE",
"690 78 OFFCURVE",
"662 41 CURVE SMOOTH",
"627 -6 OFFCURVE",
"580 -45 OFFCURVE",
"521 -76 CURVE SMOOTH",
"462 -107 OFFCURVE",
"404 -123 OFFCURVE",
"347 -123 CURVE SMOOTH",
"227 -123 OFFCURVE",
"160 -54 OFFCURVE",
"160 66 CURVE SMOOTH",
"160 148 OFFCURVE",
"184 229 OFFCURVE",
"233 309 CURVE",
"242 308 OFFCURVE",
"251 308 OFFCURVE",
"260 308 CURVE SMOOTH",
"323 308 OFFCURVE",
"397 320 OFFCURVE",
"480 344 CURVE SMOOTH",
"545 363 OFFCURVE",
"602 386 OFFCURVE",
"652 414 CURVE SMOOTH",
"727 456 OFFCURVE",
"765 499 OFFCURVE",
"765 544 CURVE SMOOTH"
);
},
{
closed = 1;
nodes = (
"735 522 OFFCURVE",
"712 490 OFFCURVE",
"667 453 CURVE SMOOTH",
"622 416 OFFCURVE",
"557 385 OFFCURVE",
"474 360 CURVE SMOOTH",
"397 337 OFFCURVE",
"326 326 OFFCURVE",
"261 326 CURVE SMOOTH",
"239 326 LINE",
"284 399 OFFCURVE",
"341 461 OFFCURVE",
"412 511 CURVE SMOOTH",
"491 566 OFFCURVE",
"569 594 OFFCURVE",
"646 594 CURVE SMOOTH",
"705 594 OFFCURVE",
"735 578 OFFCURVE",
"735 547 CURVE SMOOTH"
);
}
);
width = 721;
}
);
note = C;
unicode = 0043;
},
{
color = 5;
glyphname = D;
lastChange = "2021-10-11 21:59:08 +0000";
layers = (
{
layerId = "CE757C0C-4E55-453C-A2E3-610759FCFE83";
paths = (
{
closed = 1;
nodes = (
"202 -62 OFFCURVE",
"212 -56 OFFCURVE",
"223 -44 CURVE SMOOTH",
"235 -33 OFFCURVE",
"244 -27 OFFCURVE",
"250 -26 CURVE SMOOTH",
"305 -18 OFFCURVE",
"349 -7 OFFCURVE",
"384 8 CURVE SMOOTH",
"455 37 OFFCURVE",
"521 80 OFFCURVE",
"581 136 CURVE SMOOTH",
"654 204 OFFCURVE",
"690 270 OFFCURVE",
"690 334 CURVE SMOOTH",
"690 399 OFFCURVE",
"630 456 OFFCURVE",
"511 503 CURVE SMOOTH",
"416 541 OFFCURVE",
"327 561 OFFCURVE",
"245 563 CURVE",
"247 567 OFFCURVE",
"248 570 OFFCURVE",
"248 573 CURVE SMOOTH",
"248 578 OFFCURVE",
"245 581 OFFCURVE",
"238 581 CURVE SMOOTH",
"222 581 OFFCURVE",
"208 574 OFFCURVE",
"196 560 CURVE",
"167 559 OFFCURVE",
"146 557 OFFCURVE",
"133 555 CURVE",
"134 556 OFFCURVE",
"135 558 OFFCURVE",
"135 559 CURVE SMOOTH",
"135 563 OFFCURVE",
"130 567 OFFCURVE",
"120 571 CURVE",
"93 568 OFFCURVE",
"66 562 OFFCURVE",
"41 553 CURVE SMOOTH",
"2 540 OFFCURVE",
"-18 525 OFFCURVE",
"-18 509 CURVE SMOOTH",
"-18 496 OFFCURVE",
"-10 489 OFFCURVE",
"7 489 CURVE SMOOTH",
"12 489 OFFCURVE",
"16 491 OFFCURVE",
"21 494 CURVE SMOOTH",
"56 520 OFFCURVE",
"100 533 OFFCURVE",
"153 533 CURVE SMOOTH",
"162 533 OFFCURVE",
"169 532 OFFCURVE",
"174 530 CURVE",
"137 380 OFFCURVE",
"119 243 OFFCURVE",
"119 118 CURVE SMOOTH",
"119 -2 OFFCURVE",
"144 -62 OFFCURVE",
"194 -62 CURVE SMOOTH"
);
},
{
closed = 1;
nodes = (
"173 -32 OFFCURVE",
"155 17 OFFCURVE",
"155 114 CURVE SMOOTH",
"155 169 OFFCURVE",
"162 239 OFFCURVE",
"175 325 CURVE SMOOTH",
"190 419 OFFCURVE",
"206 488 OFFCURVE",
"225 531 CURVE",
"300 531 OFFCURVE",
"385 512 OFFCURVE",
"478 474 CURVE SMOOTH",
"590 428 OFFCURVE",
"646 373 OFFCURVE",
"646 309 CURVE SMOOTH",
"646 231 OFFCURVE",
"600 160 OFFCURVE",
"508 97 CURVE SMOOTH",
"441 50 OFFCURVE",
"359 13 OFFCURVE",
"263 -15 CURVE",
"258 -2 OFFCURVE",
"252 5 OFFCURVE",
"245 5 CURVE SMOOTH",
"239 5 OFFCURVE",
"233 -1 OFFCURVE",
"226 -13 CURVE SMOOTH",
"219 -26 OFFCURVE",
"214 -32 OFFCURVE",
"209 -32 CURVE SMOOTH"
);
}
);
width = 679;
},
{
associatedMasterId = "CE757C0C-4E55-453C-A2E3-610759FCFE83";
layerId = "D8E98E05-6F99-4174-A799-9070338AE5B4";
name = Regular;
paths = (
{
closed = 1;
nodes = (
"899 254 OFFCURVE",
"858 350 OFFCURVE",
"776 451 CURVE SMOOTH",
"703 541 OFFCURVE",
"620 609 OFFCURVE",
"528 656 CURVE",
"530 666 OFFCURVE",
"542 674 OFFCURVE",
"563 681 CURVE",
"561 684 OFFCURVE",
"558 685 OFFCURVE",
"555 685 CURVE SMOOTH",
"551 685 OFFCURVE",
"538 676 OFFCURVE",
"516 659 CURVE",
"457 692 OFFCURVE",
"391 708 OFFCURVE",
"318 708 CURVE SMOOTH",
"231 708 OFFCURVE",
"160 686 OFFCURVE",
"105 641 CURVE SMOOTH",
"46 593 OFFCURVE",
"16 527 OFFCURVE",
"16 442 CURVE SMOOTH",
"16 389 OFFCURVE",
"36 337 OFFCURVE",
"75 287 CURVE",
"81 282 LINE",
"83 283 OFFCURVE",
"84 286 OFFCURVE",
"84 290 CURVE",
"60 349 LINE SMOOTH",
"50 377 OFFCURVE",
"45 405 OFFCURVE",
"45 432 CURVE SMOOTH",
"45 504 OFFCURVE",
"63 562 OFFCURVE",
"99 607 CURVE SMOOTH",
"138 655 OFFCURVE",
"193 679 OFFCURVE",
"264 679 CURVE SMOOTH",
"349 679 OFFCURVE",
"423 662 OFFCURVE",
"484 628 CURVE",
"462 610 OFFCURVE",
"450 597 OFFCURVE",
"447 588 CURVE SMOOTH",
"440 563 OFFCURVE",
"434 535 OFFCURVE",
"430 503 CURVE SMOOTH",
"422 418 LINE SMOOTH",
"412 305 OFFCURVE",
"404 232 OFFCURVE",
"397 199 CURVE SMOOTH",
"383 124 OFFCURVE",
"357 56 OFFCURVE",
"319 -4 CURVE",
"107 -4 LINE SMOOTH",
"82 -4 OFFCURVE",
"59 -10 OFFCURVE",
"38 -22 CURVE SMOOTH",
"13 -36 OFFCURVE",
"1 -54 OFFCURVE",
"1 -77 CURVE SMOOTH",
"1 -99 OFFCURVE",
"6 -115 OFFCURVE",
"17 -125 CURVE",
"23 -125 LINE",
"24 -123 OFFCURVE",
"24 -122 OFFCURVE",
"24 -121 CURVE SMOOTH",
"24 -117 OFFCURVE",
"20 -106 OFFCURVE",
"20 -102 CURVE SMOOTH",
"20 -85 OFFCURVE",
"28 -71 OFFCURVE",
"45 -60 CURVE SMOOTH",
"59 -51 OFFCURVE",
"75 -47 OFFCURVE",
"94 -47 CURVE SMOOTH",
"113 -47 OFFCURVE",
"142 -46 OFFCURVE",
"181 -44 CURVE SMOOTH",
"220 -43 OFFCURVE",
"250 -42 OFFCURVE",
"269 -42 CURVE SMOOTH",
"279 -42 OFFCURVE",
"286 -42 OFFCURVE",
"290 -43 CURVE",
"270 -69 OFFCURVE",
"236 -82 OFFCURVE",
"189 -82 CURVE SMOOTH",
"164 -82 LINE SMOOTH",
"154 -82 OFFCURVE",
"149 -83 OFFCURVE",
"149 -85 CURVE SMOOTH",
"149 -93 OFFCURVE",
"155 -100 OFFCURVE",
"168 -105 CURVE SMOOTH",
"178 -109 OFFCURVE",
"188 -111 OFFCURVE",
"197 -111 CURVE SMOOTH",
"223 -111 OFFCURVE",
"250 -99 OFFCURVE",
"278 -76 CURVE SMOOTH",
"316 -42 LINE",
"374 -41 OFFCURVE",
"414 -41 OFFCURVE",
"437 -40 CURVE SMOOTH",
"669 -35 OFFCURVE",
"815 6 OFFCURVE",
"876 81 CURVE SMOOTH",
"891 99 OFFCURVE",
"899 126 OFFCURVE",
"899 162 CURVE SMOOTH"
);
},
{
closed = 1;
nodes = (
"867 79 OFFCURVE",
"803 27 OFFCURVE",
"675 7 CURVE SMOOTH",
"615 -2 OFFCURVE",
"569 -6 OFFCURVE",
"538 -6 CURVE SMOOTH",
"517 -6 OFFCURVE",
"485 -6 OFFCURVE",
"442 -5 CURVE SMOOTH",
"399 -4 OFFCURVE",
"367 -4 OFFCURVE",
"345 -4 CURVE",
"368 27 OFFCURVE",
"389 72 OFFCURVE",
"409 130 CURVE SMOOTH",
"428 185 OFFCURVE",
"444 267 OFFCURVE",
"457 376 CURVE SMOOTH",
"471 488 OFFCURVE",
"486 569 OFFCURVE",
"502 620 CURVE",
"583 575 OFFCURVE",
"661 510 OFFCURVE",
"735 425 CURVE SMOOTH",
"823 326 OFFCURVE",
"867 238 OFFCURVE",
"867 162 CURVE SMOOTH"
);
}
);
width = 908;
}
);
note = D;
unicode = 0044;
},
{
color = 5;
glyphname = Eth;
lastChange = "2021-10-11 21:59:08 +0000";
layers = (
{
background = {
hints = (
{
horizontal = 1;
place = "{-62, 30}";
type = Stem;
},
{
horizontal = 1;
place = "{533, 24}";
type = Stem;
},
{
place = "{119, 36}";
type = Stem;
},
{
place = "{646, 44}";
type = Stem;
},
{
horizontal = 1;
place = "{531, 32}";
type = Stem;
},
{
horizontal = 1;
place = "{555, 16}";
type = Stem;
}
);
paths = (
{
closed = 1;
nodes = (
"690 399 OFFCURVE",
"630 456 OFFCURVE",
"511 503 CURVE SMOOTH",
"416 541 OFFCURVE",
"327 561 OFFCURVE",
"245 563 CURVE",
"247 567 OFFCURVE",
"248 570 OFFCURVE",
"248 573 CURVE SMOOTH",
"248 578 OFFCURVE",
"245 581 OFFCURVE",
"238 581 CURVE SMOOTH",
"222 581 OFFCURVE",
"208 574 OFFCURVE",
"196 560 CURVE",
"133 555 LINE",
"134 556 OFFCURVE",
"135 558 OFFCURVE",
"135 559 CURVE SMOOTH",
"135 563 OFFCURVE",
"130 567 OFFCURVE",
"120 571 CURVE",
"93 568 OFFCURVE",
"66 562 OFFCURVE",
"41 553 CURVE SMOOTH",
"2 540 OFFCURVE",
"-18 525 OFFCURVE",
"-18 509 CURVE SMOOTH",
"-18 496 OFFCURVE",
"-10 489 OFFCURVE",
"7 489 CURVE SMOOTH",
"12 489 OFFCURVE",
"16 491 OFFCURVE",
"21 494 CURVE SMOOTH",
"57 520 OFFCURVE",
"101 533 OFFCURVE",
"153 533 CURVE SMOOTH",
"162 533 OFFCURVE",
"169 532 OFFCURVE",
"174 530 CURVE",
"156 455 OFFCURVE",
"141 369 OFFCURVE",
"130 271 CURVE",
"48 237 LINE SMOOTH",
"34 230 OFFCURVE",
"27 216 OFFCURVE",
"27 196 CURVE",
"30 196 LINE SMOOTH",
"39 196 OFFCURVE",
"71 210 OFFCURVE",
"126 239 CURVE",
"121 194 OFFCURVE",
"119 153 OFFCURVE",
"119 118 CURVE SMOOTH",
"119 -2 OFFCURVE",
"144 -62 OFFCURVE",
"194 -62 CURVE SMOOTH",
"202 -62 OFFCURVE",
"212 -56 OFFCURVE",
"223 -44 CURVE SMOOTH",
"235 -33 OFFCURVE",
"244 -27 OFFCURVE",
"250 -26 CURVE SMOOTH",
"303 -18 OFFCURVE",
"348 -7 OFFCURVE",
"384 8 CURVE SMOOTH",
"455 37 OFFCURVE",
"521 80 OFFCURVE",
"581 136 CURVE SMOOTH",
"654 204 OFFCURVE",
"690 270 OFFCURVE",
"690 334 CURVE SMOOTH"
);
},
{
closed = 1;
nodes = (
"646 231 OFFCURVE",
"600 160 OFFCURVE",
"508 97 CURVE SMOOTH",
"441 50 OFFCURVE",
"359 13 OFFCURVE",
"263 -15 CURVE",
"258 -2 OFFCURVE",
"252 5 OFFCURVE",
"245 5 CURVE SMOOTH",
"239 5 OFFCURVE",
"233 -1 OFFCURVE",
"226 -13 CURVE SMOOTH",
"219 -26 OFFCURVE",
"214 -32 OFFCURVE",
"209 -32 CURVE SMOOTH",
"173 -32 OFFCURVE",
"155 17 OFFCURVE",
"155 114 CURVE SMOOTH",
"155 156 OFFCURVE",
"159 205 OFFCURVE",
"166 260 CURVE",
"251 305 OFFCURVE",
"293 330 OFFCURVE",
"293 337 CURVE SMOOTH",
"293 338 OFFCURVE",
"292 339 OFFCURVE",
"289 339 CURVE",
"170 289 LINE",
"186 402 OFFCURVE",
"204 483 OFFCURVE",
"225 531 CURVE",
"300 531 OFFCURVE",
"385 512 OFFCURVE",
"478 474 CURVE SMOOTH",
"590 428 OFFCURVE",
"646 373 OFFCURVE",
"646 309 CURVE SMOOTH"
);
},
{
closed = 1;
nodes = (
"166 260 LINE",
"126 239 LINE",
"130 271 LINE",
"170 289 LINE"
);
}
);
};
layerId = "CE757C0C-4E55-453C-A2E3-610759FCFE83";
paths = (
{
closed = 1;
nodes = (
"202 -62 OFFCURVE",
"212 -56 OFFCURVE",
"223 -44 CURVE SMOOTH",
"235 -33 OFFCURVE",
"244 -27 OFFCURVE",
"250 -26 CURVE SMOOTH",
"305 -18 OFFCURVE",
"349 -7 OFFCURVE",
"384 8 CURVE SMOOTH",
"455 37 OFFCURVE",
"521 80 OFFCURVE",
"581 136 CURVE SMOOTH",
"654 204 OFFCURVE",
"690 270 OFFCURVE",
"690 334 CURVE SMOOTH",
"690 399 OFFCURVE",
"630 456 OFFCURVE",
"511 503 CURVE SMOOTH",
"416 541 OFFCURVE",
"327 561 OFFCURVE",
"245 563 CURVE",
"247 567 OFFCURVE",
"248 570 OFFCURVE",
"248 573 CURVE SMOOTH",
"248 578 OFFCURVE",
"245 581 OFFCURVE",
"238 581 CURVE SMOOTH",
"222 581 OFFCURVE",
"208 574 OFFCURVE",
"196 560 CURVE",
"167 559 OFFCURVE",
"146 557 OFFCURVE",
"133 555 CURVE",
"134 556 OFFCURVE",
"135 558 OFFCURVE",
"135 559 CURVE SMOOTH",
"135 563 OFFCURVE",
"130 567 OFFCURVE",
"120 571 CURVE",
"93 568 OFFCURVE",
"66 562 OFFCURVE",
"41 553 CURVE SMOOTH",
"2 540 OFFCURVE",
"-18 525 OFFCURVE",
"-18 509 CURVE SMOOTH",
"-18 496 OFFCURVE",
"-10 489 OFFCURVE",
"7 489 CURVE SMOOTH",
"12 489 OFFCURVE",
"16 491 OFFCURVE",
"21 494 CURVE SMOOTH",
"56 520 OFFCURVE",
"100 533 OFFCURVE",
"153 533 CURVE SMOOTH",
"162 533 OFFCURVE",
"169 532 OFFCURVE",
"174 530 CURVE",
"137 380 OFFCURVE",
"119 243 OFFCURVE",
"119 118 CURVE SMOOTH",
"119 -2 OFFCURVE",
"144 -62 OFFCURVE",
"194 -62 CURVE SMOOTH"
);
},
{
closed = 1;
nodes = (
"91 131 OFFCURVE",
"137 135 OFFCURVE",
"203 143 CURVE SMOOTH",
"254 149 OFFCURVE",
"280 154 OFFCURVE",
"280 159 CURVE SMOOTH",
"280 161 LINE",
"279 161 OFFCURVE",
"279 162 OFFCURVE",
"279 164 CURVE",
"173 165 LINE SMOOTH",
"155 165 OFFCURVE",
"133 165 OFFCURVE",
"107 166 CURVE SMOOTH",
"67 166 LINE SMOOTH",
"39 166 OFFCURVE",
"25 156 OFFCURVE",
"25 135 CURVE",
"34 132 OFFCURVE",
"48 131 OFFCURVE",
"65 131 CURVE SMOOTH"
);
},
{
closed = 1;
nodes = (
"173 -32 OFFCURVE",
"155 17 OFFCURVE",
"155 114 CURVE SMOOTH",
"155 169 OFFCURVE",
"162 239 OFFCURVE",
"175 325 CURVE SMOOTH",
"190 419 OFFCURVE",
"206 488 OFFCURVE",
"225 531 CURVE",
"300 531 OFFCURVE",
"385 512 OFFCURVE",
"478 474 CURVE SMOOTH",
"590 428 OFFCURVE",
"646 373 OFFCURVE",
"646 309 CURVE SMOOTH",
"646 231 OFFCURVE",
"600 160 OFFCURVE",
"508 97 CURVE SMOOTH",
"441 50 OFFCURVE",
"359 13 OFFCURVE",
"263 -15 CURVE",
"258 -2 OFFCURVE",
"252 5 OFFCURVE",
"245 5 CURVE SMOOTH",
"239 5 OFFCURVE",
"233 -1 OFFCURVE",
"226 -13 CURVE SMOOTH",
"219 -26 OFFCURVE",
"214 -32 OFFCURVE",
"209 -32 CURVE SMOOTH"
);
}
);
width = 679;
},
{
associatedMasterId = "CE757C0C-4E55-453C-A2E3-610759FCFE83";
background = {
hints = (
{
horizontal = 1;
place = "{-66, 31}";
type = Stem;
},
{
horizontal = 1;
place = "{565, 26}";
type = Stem;
},
{
place = "{126, 38}";
type = Stem;
},
{
place = "{685, 45}";
type = Stem;
},
{
horizontal = 1;
place = "{563, 34}";
type = Stem;
},
{
horizontal = 1;
place = "{588, 17}";
type = Stem;
}
);
paths = (
{
closed = 1;
nodes = (
"730 423 OFFCURVE",
"667 483 OFFCURVE",
"540 533 CURVE SMOOTH",
"439 573 OFFCURVE",
"345 594 OFFCURVE",
"260 597 CURVE",
"262 601 OFFCURVE",
"263 605 OFFCURVE",
"263 608 CURVE SMOOTH",
"263 613 OFFCURVE",
"259 616 OFFCURVE",
"251 616 CURVE SMOOTH",
"234 616 OFFCURVE",
"220 609 OFFCURVE",
"208 594 CURVE",
"141 588 LINE",
"142 589 OFFCURVE",
"143 591 OFFCURVE",
"143 592 CURVE SMOOTH",
"143 597 OFFCURVE",
"138 601 OFFCURVE",
"127 605 CURVE",
"98 602 OFFCURVE",
"70 595 OFFCURVE",
"43 586 CURVE SMOOTH",
"2 572 OFFCURVE",
"-19 556 OFFCURVE",
"-19 538 CURVE SMOOTH",
"-19 525 OFFCURVE",
"-11 518 OFFCURVE",
"6 518 CURVE SMOOTH",
"12 518 OFFCURVE",
"17 520 OFFCURVE",
"22 523 CURVE SMOOTH",
"60 551 OFFCURVE",
"107 565 OFFCURVE",
"162 565 CURVE SMOOTH",
"172 565 OFFCURVE",
"179 564 OFFCURVE",
"184 561 CURVE",
"165 476 OFFCURVE",
"149 385 OFFCURVE",
"138 287 CURVE",
"50 251 LINE",
"37 243 OFFCURVE",
"30 229 OFFCURVE",
"30 208 CURVE",
"32 208 LINE SMOOTH",
"41 208 OFFCURVE",
"75 223 OFFCURVE",
"134 254 CURVE",
"129 205 OFFCURVE",
"126 162 OFFCURVE",
"126 124 CURVE SMOOTH",
"126 -3 OFFCURVE",
"153 -66 OFFCURVE",
"206 -66 CURVE SMOOTH",
"214 -66 OFFCURVE",
"224 -60 OFFCURVE",
"236 -47 CURVE SMOOTH",
"248 -35 OFFCURVE",
"258 -29 OFFCURVE",
"265 -28 CURVE SMOOTH",
"318 -20 OFFCURVE",
"366 -7 OFFCURVE",
"407 10 CURVE SMOOTH",
"483 41 OFFCURVE",
"552 85 OFFCURVE",
"615 144 CURVE SMOOTH",
"692 216 OFFCURVE",
"730 286 OFFCURVE",
"730 354 CURVE SMOOTH"
);
},
{
closed = 1;
nodes = (
"685 246 OFFCURVE",
"636 171 OFFCURVE",
"538 103 CURVE SMOOTH",
"466 53 OFFCURVE",
"380 13 OFFCURVE",
"279 -17 CURVE",
"273 -2 OFFCURVE",
"266 5 OFFCURVE",
"259 5 CURVE SMOOTH",
"253 5 OFFCURVE",
"246 -2 OFFCURVE",
"239 -15 CURVE SMOOTH",
"232 -28 OFFCURVE",
"227 -35 OFFCURVE",
"223 -35 CURVE SMOOTH",
"184 -35 OFFCURVE",
"164 17 OFFCURVE",
"164 121 CURVE SMOOTH",
"164 166 OFFCURVE",
"168 217 OFFCURVE",
"176 276 CURVE",
"267 322 OFFCURVE",
"312 349 OFFCURVE",
"312 356 CURVE SMOOTH",
"312 358 OFFCURVE",
"310 359 OFFCURVE",
"306 359 CURVE",
"179 306 LINE",
"197 426 OFFCURVE",
"216 512 OFFCURVE",
"237 563 CURVE",
"318 563 OFFCURVE",
"408 543 OFFCURVE",
"507 502 CURVE SMOOTH",
"626 454 OFFCURVE",
"685 396 OFFCURVE",
"685 327 CURVE SMOOTH"
);
},
{
closed = 1;
nodes = (
"176 276 LINE",
"134 254 LINE",
"138 287 LINE",
"179 306 LINE"
);
}
);
};
components = (
{
name = D;
},
{
name = hyphen;
transform = "{1, 0, 0, 1, 223, -60}";
}
);
layerId = "D8E98E05-6F99-4174-A799-9070338AE5B4";
name = Regular;
width = 908;
}
);
note = Eth;
unicode = 00D0;
},
{
color = 5;
glyphname = E;
lastChange = "2021-10-11 21:59:08 +0000";
layers = (
{
layerId = "CE757C0C-4E55-453C-A2E3-610759FCFE83";
paths = (
{
closed = 1;
nodes = (
"248 -32 OFFCURVE",
"303 -25 OFFCURVE",
"365 -12 CURVE SMOOTH",
"427 1 OFFCURVE",
"479 17 OFFCURVE",
"522 36 CURVE SMOOTH",
"553 49 OFFCURVE",
"568 65 OFFCURVE",
"568 84 CURVE SMOOTH",
"568 89 OFFCURVE",
"566 91 OFFCURVE",
"562 91 CURVE SMOOTH",
"557 91 OFFCURVE",
"545 86 OFFCURVE",
"526 75 CURVE SMOOTH",
"485 51 LINE",
"414 15 OFFCURVE",
"345 -3 OFFCURVE",
"278 -3 CURVE SMOOTH",
"162 -3 OFFCURVE",
"104 55 OFFCURVE",
"104 170 CURVE SMOOTH",
"104 199 OFFCURVE",
"108 230 OFFCURVE",
"115 265 CURVE",
"232 265 OFFCURVE",
"315 270 OFFCURVE",
"365 280 CURVE SMOOTH",
"386 284 OFFCURVE",
"407 291 OFFCURVE",
"426 300 CURVE SMOOTH",
"429 301 OFFCURVE",
"430 303 OFFCURVE",
"431 304 CURVE",
"431 305 OFFCURVE",
"430 305 OFFCURVE",
"429 305 CURVE SMOOTH",
"417 305 OFFCURVE",
"399 304 OFFCURVE",
"374 303 CURVE SMOOTH",
"349 302 OFFCURVE",
"331 301 OFFCURVE",
"319 301 CURVE SMOOTH",
"119 307 LINE",
"140 416 OFFCURVE",
"151 480 OFFCURVE",
"151 497 CURVE SMOOTH",
"151 510 OFFCURVE",
"147 516 OFFCURVE",
"140 516 CURVE SMOOTH",
"129 516 OFFCURVE",
"115 504 OFFCURVE",
"100 481 CURVE",
"100 427 OFFCURVE",
"96 370 OFFCURVE",
"87 311 CURVE",
"77 310 OFFCURVE",
"65 305 OFFCURVE",
"50 298 CURVE SMOOTH",
"33 289 OFFCURVE",
"25 281 OFFCURVE",
"25 273 CURVE SMOOTH",
"25 268 OFFCURVE",
"31 265 OFFCURVE",
"43 265 CURVE SMOOTH",
"51 265 OFFCURVE",
"72 263 OFFCURVE",
"80 263 CURVE",
"68 210 OFFCURVE",
"62 165 OFFCURVE",
"62 126 CURVE SMOOTH",
"62 21 OFFCURVE",
"108 -32 OFFCURVE",
"201 -32 CURVE SMOOTH"
);
},
{
closed = 1;
nodes = (
"102 517 OFFCURVE",
"134 519 OFFCURVE",
"147 519 CURVE SMOOTH",
"161 519 OFFCURVE",
"182 519 OFFCURVE",
"209 518 CURVE SMOOTH",
"237 517 OFFCURVE",
"258 517 OFFCURVE",
"272 517 CURVE SMOOTH",
"390 517 OFFCURVE",
"473 523 OFFCURVE",
"521 536 CURVE SMOOTH",
"535 540 OFFCURVE",
"544 546 OFFCURVE",
"547 555 CURVE",
"511 549 OFFCURVE",
"471 546 OFFCURVE",
"427 546 CURVE SMOOTH",
"393 546 OFFCURVE",
"342 548 OFFCURVE",
"273 553 CURVE SMOOTH",
"205 558 OFFCURVE",
"154 560 OFFCURVE",
"120 560 CURVE SMOOTH",
"111 560 OFFCURVE",
"99 556 OFFCURVE",
"84 547 CURVE SMOOTH",
"69 538 OFFCURVE",
"62 530 OFFCURVE",
"62 522 CURVE SMOOTH",
"62 519 OFFCURVE",
"71 517 OFFCURVE",
"89 517 CURVE SMOOTH"
);
}
);
width = 552;
},
{
associatedMasterId = "CE757C0C-4E55-453C-A2E3-610759FCFE83";
layerId = "D8E98E05-6F99-4174-A799-9070338AE5B4";
name = Regular;
paths = (
{
closed = 1;
nodes = (
"795 575 OFFCURVE",
"739 623 OFFCURVE",
"627 623 CURVE SMOOTH",
"598 623 OFFCURVE",
"566 619 OFFCURVE",
"533 612 CURVE SMOOTH",
"489 603 LINE",
"448 600 OFFCURVE",
"419 599 OFFCURVE",
"403 598 CURVE SMOOTH",
"290 587 OFFCURVE",
"198 554 OFFCURVE",
"125 499 CURVE SMOOTH",
"81 466 OFFCURVE",
"46 419 OFFCURVE",
"20 360 CURVE SMOOTH",
"15 347 OFFCURVE",
"12 340 OFFCURVE",
"12 338 CURVE SMOOTH",
"12 323 LINE",
"13 321 OFFCURVE",
"14 314 OFFCURVE",
"17 302 CURVE SMOOTH",
"19 293 OFFCURVE",
"23 287 OFFCURVE",
"28 283 CURVE",
"29 284 OFFCURVE",
"29 286 OFFCURVE",
"29 288 CURVE SMOOTH",
"29 291 OFFCURVE",
"27 295 OFFCURVE",
"24 301 CURVE",
"25 302 OFFCURVE",
"25 305 OFFCURVE",
"24 310 CURVE",
"24 331 LINE",
"28 354 OFFCURVE",
"40 379 OFFCURVE",
"61 407 CURVE SMOOTH",
"102 460 OFFCURVE",
"162 504 OFFCURVE",
"242 538 CURVE SMOOTH",
"315 569 OFFCURVE",
"388 587 OFFCURVE",
"462 591 CURVE",
"389 570 OFFCURVE",
"317 517 OFFCURVE",
"247 433 CURVE SMOOTH",
"177 350 OFFCURVE",
"136 269 OFFCURVE",
"125 192 CURVE",
"70 167 OFFCURVE",
"38 148 OFFCURVE",
"29 136 CURVE",
"33 130 LINE",
"119 171 LINE",
"114 149 OFFCURVE",
"112 128 OFFCURVE",
"112 107 CURVE SMOOTH",
"112 36 OFFCURVE",
"137 -18 OFFCURVE",
"188 -55 CURVE SMOOTH",
"232 -88 OFFCURVE",
"291 -105 OFFCURVE",
"365 -105 CURVE SMOOTH",
"360 -105 OFFCURVE",
"367 -105 OFFCURVE",
"387 -104 CURVE",
"387 -104 OFFCURVE",
"394 -104 OFFCURVE",
"409 -104 CURVE SMOOTH",
"450 -104 OFFCURVE",
"501 -93 OFFCURVE",
"561 -70 CURVE SMOOTH",
"619 -48 OFFCURVE",
"665 -24 OFFCURVE",
"698 3 CURVE",
"697 11 LINE",
"564 -53 OFFCURVE",
"463 -85 OFFCURVE",
"396 -85 CURVE SMOOTH",
"329 -85 OFFCURVE",
"271 -67 OFFCURVE",
"224 -32 CURVE SMOOTH",
"171 7 OFFCURVE",
"144 59 OFFCURVE",
"144 124 CURVE SMOOTH",
"144 143 OFFCURVE",
"147 163 OFFCURVE",
"153 183 CURVE",
"207 206 OFFCURVE",
"274 226 OFFCURVE",
"353 242 CURVE SMOOTH",
"433 259 OFFCURVE",
"502 267 OFFCURVE",
"561 267 CURVE SMOOTH",
"664 267 OFFCURVE",
"716 251 OFFCURVE",
"716 219 CURVE SMOOTH",
"716 216 OFFCURVE",
"708 200 OFFCURVE",
"708 197 CURVE SMOOTH",
"708 196 OFFCURVE",
"709 195 OFFCURVE",
"712 194 CURVE",
"732 218 OFFCURVE",
"742 233 OFFCURVE",
"742 239 CURVE SMOOTH",
"742 259 OFFCURVE",
"726 274 OFFCURVE",
"693 284 CURVE SMOOTH",
"670 291 OFFCURVE",
"645 295 OFFCURVE",
"619 295 CURVE SMOOTH",
"477 295 OFFCURVE",
"333 269 OFFCURVE",
"187 218 CURVE SMOOTH",
"168 211 OFFCURVE",
"157 208 OFFCURVE",
"156 208 CURVE",
"176 281 OFFCURVE",
"226 361 OFFCURVE",
"305 448 CURVE SMOOTH",
"392 543 OFFCURVE",
"469 590 OFFCURVE",
"538 590 CURVE SMOOTH",
"573 590 OFFCURVE",
"609 581 OFFCURVE",
"646 562 CURVE SMOOTH",
"684 544 OFFCURVE",
"713 521 OFFCURVE",
"732 494 CURVE",
"746 466 LINE SMOOTH",
"753 453 OFFCURVE",
"759 446 OFFCURVE",
"764 446 CURVE SMOOTH",
"785 446 OFFCURVE",
"795 457 OFFCURVE",
"795 480 CURVE SMOOTH"
);
},
{
closed = 1;
nodes = (
"715 548 OFFCURVE",
"645 587 OFFCURVE",
"554 600 CURVE",
"567 601 OFFCURVE",
"580 602 OFFCURVE",
"593 602 CURVE SMOOTH",
"694 602 OFFCURVE",
"752 562 OFFCURVE",
"765 483 CURVE"
);
}
);
width = 708;
}
);
note = E;
unicode = 0045;
},
{
color = 5;
glyphname = F;
lastChange = "2021-10-11 21:59:10 +0000";
layers = (
{
layerId = "CE757C0C-4E55-453C-A2E3-610759FCFE83";
paths = (
{
closed = 1;
nodes = (
"126 -25 LINE SMOOTH",
"135 -24 OFFCURVE",
"144 -19 OFFCURVE",
"153 -11 CURVE SMOOTH",
"174 11 LINE",
"184 19 OFFCURVE",
"189 25 OFFCURVE",
"189 29 CURVE SMOOTH",
"189 30 OFFCURVE",
"188 30 OFFCURVE",
"187 31 CURVE",
"184 31 OFFCURVE",
"169 21 OFFCURVE",
"161 21 CURVE SMOOTH",
"142 21 OFFCURVE",
"129 44 OFFCURVE",
"120 89 CURVE SMOOTH",
"114 119 OFFCURVE",
"111 149 OFFCURVE",
"111 179 CURVE SMOOTH",
"111 204 OFFCURVE",
"113 232 OFFCURVE",
"117 262 CURVE",
"306 270 LINE SMOOTH",
"367 274 OFFCURVE",
"397 282 OFFCURVE",
"397 293 CURVE SMOOTH",
"397 299 OFFCURVE",
"367 302 OFFCURVE",
"308 302 CURVE SMOOTH",
"279 302 LINE SMOOTH",
"261 301 OFFCURVE",
"247 301 OFFCURVE",
"237 301 CURVE SMOOTH",
"123 301 LINE",
"142 398 OFFCURVE",
"156 470 OFFCURVE",
"167 517 CURVE",
"190 517 OFFCURVE",
"213 516 OFFCURVE",
"234 516 CURVE SMOOTH",
"351 516 OFFCURVE",
"435 523 OFFCURVE",
"486 536 CURVE SMOOTH",
"500 539 OFFCURVE",
"509 546 OFFCURVE",
"513 555 CURVE",
"477 549 OFFCURVE",
"437 546 OFFCURVE",
"393 546 CURVE",
"169 558 LINE",
"168 564 OFFCURVE",
"165 567 OFFCURVE",
"160 567 CURVE SMOOTH",
"155 567 OFFCURVE",
"150 564 OFFCURVE",
"143 559 CURVE",
"122 560 OFFCURVE",
"103 560 OFFCURVE",
"86 560 CURVE SMOOTH",
"66 560 OFFCURVE",
"34 541 OFFCURVE",
"26 522 CURVE",
"27 519 OFFCURVE",
"36 517 OFFCURVE",
"54 517 CURVE SMOOTH",
"67 517 OFFCURVE",
"100 519 OFFCURVE",
"113 519 CURVE SMOOTH",
"119 519 LINE",
"118 466 OFFCURVE",
"110 393 OFFCURVE",
"96 302 CURVE",
"67 305 LINE",
"40 292 OFFCURVE",
"25 279 OFFCURVE",
"21 264 CURVE",
"24 261 OFFCURVE",
"43 260 OFFCURVE",
"79 260 CURVE SMOOTH",
"84 260 OFFCURVE",
"87 260 OFFCURVE",
"89 259 CURVE",
"90 260 LINE",
"81 193 OFFCURVE",
"77 140 OFFCURVE",
"77 99 CURVE SMOOTH",
"77 16 OFFCURVE",
"92 -25 OFFCURVE",
"123 -25 CURVE SMOOTH"
);
}
);
width = 356;
},
{
associatedMasterId = "CE757C0C-4E55-453C-A2E3-610759FCFE83";
layerId = "D8E98E05-6F99-4174-A799-9070338AE5B4";
name = Regular;
paths = (
{
closed = 1;
nodes = (
"921 561 OFFCURVE",
"914 575 OFFCURVE",
"899 591 CURVE SMOOTH",
"873 619 OFFCURVE",
"819 633 OFFCURVE",
"738 633 CURVE SMOOTH",
"664 633 OFFCURVE",
"570 622 OFFCURVE",
"457 599 CURVE",
"291 556 LINE SMOOTH",
"219 537 OFFCURVE",
"165 528 OFFCURVE",
"129 528 CURVE SMOOTH",
"114 528 OFFCURVE",
"107 531 OFFCURVE",
"107 536 CURVE SMOOTH",
"107 546 OFFCURVE",
"123 558 OFFCURVE",
"156 573 CURVE SMOOTH",
"206 594 LINE",
"206 597 OFFCURVE",
"200 598 OFFCURVE",
"188 598 CURVE SMOOTH",
"171 598 OFFCURVE",
"148 593 OFFCURVE",
"119 582 CURVE SMOOTH",
"86 570 OFFCURVE",
"69 558 OFFCURVE",
"69 545 CURVE SMOOTH",
"69 520 OFFCURVE",
"96 499 OFFCURVE",
"123 499 CURVE SMOOTH",
"145 499 OFFCURVE",
"217 513 OFFCURVE",
"340 541 CURVE SMOOTH",
"539 587 OFFCURVE",
"683 610 OFFCURVE",
"772 610 CURVE SMOOTH",
"848 610 OFFCURVE",
"886 599 OFFCURVE",
"886 576 CURVE SMOOTH",
"886 560 OFFCURVE",
"873 529 OFFCURVE",
"846 484 CURVE SMOOTH",
"820 439 OFFCURVE",
"807 427 OFFCURVE",
"807 450 CURVE",
"808 449 OFFCURVE",
"809 448 OFFCURVE",
"811 448 CURVE SMOOTH",
"812 448 OFFCURVE",
"815 449 OFFCURVE",
"818 450 CURVE SMOOTH",
"841 459 OFFCURVE",
"863 471 OFFCURVE",
"883 488 CURVE SMOOTH",
"908 509 OFFCURVE",
"921 530 OFFCURVE",
"921 549 CURVE SMOOTH"
);
},
{
closed = 1;
nodes = (
"699 157 OFFCURVE",
"698 160 OFFCURVE",
"697 163 CURVE",
"670 209 OFFCURVE",
"622 245 OFFCURVE",
"551 270 CURVE",
"566 307 OFFCURVE",
"583 354 OFFCURVE",
"603 411 CURVE SMOOTH",
"630 490 OFFCURVE",
"644 534 OFFCURVE",
"644 545 CURVE SMOOTH",
"644 558 OFFCURVE",
"629 564 OFFCURVE",
"598 564 CURVE",
"573 455 OFFCURVE",
"547 361 OFFCURVE",
"519 280 CURVE",
"488 288 OFFCURVE",
"457 292 OFFCURVE",
"424 292 CURVE SMOOTH",
"372 292 OFFCURVE",
"315 281 OFFCURVE",
"254 259 CURVE SMOOTH",
"193 238 OFFCURVE",
"141 211 OFFCURVE",
"97 179 CURVE",
"119 273 OFFCURVE",
"154 320 OFFCURVE",
"203 320 CURVE SMOOTH",
"208 320 OFFCURVE",
"222 316 OFFCURVE",
"227 316 CURVE",
"229 319 LINE",
"229 328 OFFCURVE",
"220 333 OFFCURVE",
"202 333 CURVE SMOOTH",
"197 333 OFFCURVE",
"181 327 OFFCURVE",
"176 327 CURVE",
"174 332 LINE SMOOTH",
"173 335 OFFCURVE",
"172 336 OFFCURVE",
"170 336 CURVE SMOOTH",
"139 336 OFFCURVE",
"111 310 OFFCURVE",
"87 257 CURVE SMOOTH",
"68 218 OFFCURVE",
"57 179 OFFCURVE",
"53 140 CURVE",
"20 105 OFFCURVE",
"3 75 OFFCURVE",
"3 49 CURVE SMOOTH",
"3 24 OFFCURVE",
"22 10 OFFCURVE",
"59 8 CURVE",
"70 -32 OFFCURVE",
"87 -65 OFFCURVE",
"110 -90 CURVE SMOOTH",
"137 -121 OFFCURVE",
"170 -136 OFFCURVE",
"208 -136 CURVE SMOOTH",
"326 -136 OFFCURVE",
"437 -9 OFFCURVE",
"541 246 CURVE",
"582 231 OFFCURVE",
"619 207 OFFCURVE",
"652 173 CURVE SMOOTH",
"673 152 OFFCURVE",
"684 141 OFFCURVE",
"686 141 CURVE SMOOTH",
"695 141 OFFCURVE",
"699 145 OFFCURVE",
"699 154 CURVE SMOOTH"
);
},
{
closed = 1;
nodes = (
"480 168 OFFCURVE",
"444 93 OFFCURVE",
"403 28 CURVE SMOOTH",
"340 -71 OFFCURVE",
"279 -120 OFFCURVE",
"219 -120 CURVE SMOOTH",
"187 -120 OFFCURVE",
"159 -106 OFFCURVE",
"134 -77 CURVE SMOOTH",
"113 -52 OFFCURVE",
"99 -23 OFFCURVE",
"92 12 CURVE",
"105 14 OFFCURVE",
"111 17 OFFCURVE",
"111 21 CURVE SMOOTH",
"111 22 OFFCURVE",
"111 24 OFFCURVE",
"110 25 CURVE",
"106 24 OFFCURVE",
"101 23 OFFCURVE",
"94 24 CURVE SMOOTH",
"89 24 LINE",
"87 40 OFFCURVE",
"86 57 OFFCURVE",
"86 74 CURVE SMOOTH",
"86 103 OFFCURVE",
"88 131 OFFCURVE",
"93 160 CURVE",
"208 230 OFFCURVE",
"319 265 OFFCURVE",
"427 265 CURVE SMOOTH",
"457 265 OFFCURVE",
"485 262 OFFCURVE",
"511 255 CURVE"
);
},
{
closed = 1;
nodes = (
"31 38 OFFCURVE",
"20 51 OFFCURVE",
"20 71 CURVE SMOOTH",
"20 90 OFFCURVE",
"31 109 OFFCURVE",
"52 128 CURVE",
"51 114 OFFCURVE",
"50 100 OFFCURVE",
"50 87 CURVE SMOOTH",
"50 66 OFFCURVE",
"51 47 OFFCURVE",
"54 31 CURVE"
);
}
);
width = 717;
}
);
note = F;
unicode = 0046;
},
{
color = 5;
glyphname = G;
lastChange = "2021-10-11 21:59:08 +0000";
layers = (
{
layerId = "CE757C0C-4E55-453C-A2E3-610759FCFE83";
paths = (
{
closed = 1;
nodes = (
"391 -56 OFFCURVE",
"476 -27 OFFCURVE",
"545 30 CURVE",
"552 0 OFFCURVE",
"563 -15 OFFCURVE",
"578 -15 CURVE SMOOTH",
"585 -15 OFFCURVE",
"588 -10 OFFCURVE",
"588 0 CURVE SMOOTH",
"588 15 OFFCURVE",
"585 49 OFFCURVE",
"585 64 CURVE SMOOTH",
"585 147 OFFCURVE",
"590 207 OFFCURVE",
"599 244 CURVE",
"596 249 OFFCURVE",
"592 251 OFFCURVE",
"586 251 CURVE SMOOTH",
"573 251 OFFCURVE",
"553 234 OFFCURVE",
"553 221 CURVE SMOOTH",
"553 162 OFFCURVE",
"551 122 OFFCURVE",
"547 101 CURVE SMOOTH",
"538 56 OFFCURVE",
"507 21 OFFCURVE",
"454 -3 CURVE SMOOTH",
"411 -22 OFFCURVE",
"362 -32 OFFCURVE",
"309 -32 CURVE SMOOTH",
"236 -32 OFFCURVE",
"178 -17 OFFCURVE",
"135 14 CURVE SMOOTH",
"85 50 OFFCURVE",
"60 103 OFFCURVE",
"60 173 CURVE SMOOTH",
"60 267 OFFCURVE",
"102 352 OFFCURVE",
"186 428 CURVE SMOOTH",
"267 502 OFFCURVE",
"356 539 OFFCURVE",
"451 539 CURVE SMOOTH",
"494 539 OFFCURVE",
"526 529 OFFCURVE",
"548 509 CURVE",
"575 476 LINE",
"578 477 OFFCURVE",
"580 480 OFFCURVE",
"580 487 CURVE SMOOTH",
"580 491 OFFCURVE",
"579 495 OFFCURVE",
"578 499 CURVE SMOOTH",
"563 549 OFFCURVE",
"520 574 OFFCURVE",
"450 574 CURVE SMOOTH",
"341 574 OFFCURVE",
"244 540 OFFCURVE",
"159 471 CURVE SMOOTH",
"68 398 OFFCURVE",
"23 308 OFFCURVE",
"23 201 CURVE SMOOTH",
"23 127 OFFCURVE",
"49 66 OFFCURVE",
"101 17 CURVE SMOOTH",
"153 -32 OFFCURVE",
"216 -56 OFFCURVE",
"291 -56 CURVE SMOOTH"
);
}
);
width = 615;
},
{
associatedMasterId = "CE757C0C-4E55-453C-A2E3-610759FCFE83";
layerId = "D8E98E05-6F99-4174-A799-9070338AE5B4";
name = Regular;
paths = (
{
closed = 1;
nodes = (
"722 -58 OFFCURVE",
"713 -43 OFFCURVE",
"695 -43 CURVE",
"706 -64 OFFCURVE",
"712 -79 OFFCURVE",
"712 -86 CURVE SMOOTH",
"712 -103 OFFCURVE",
"703 -119 OFFCURVE",
"684 -136 CURVE SMOOTH",
"667 -150 OFFCURVE",
"650 -160 OFFCURVE",
"632 -165 CURVE SMOOTH",
"593 -176 OFFCURVE",
"557 -182 OFFCURVE",
"526 -182 CURVE SMOOTH",
"483 -182 OFFCURVE",
"432 -175 OFFCURVE",
"373 -162 CURVE",
"424 -58 OFFCURVE",
"455 98 OFFCURVE",
"466 306 CURVE",
"466 306 OFFCURVE",
"466 315 OFFCURVE",
"466 333 CURVE SMOOTH",
"467 343 OFFCURVE",
"473 348 OFFCURVE",
"482 348 CURVE SMOOTH",
"486 348 OFFCURVE",
"497 344 OFFCURVE",
"501 344 CURVE SMOOTH",
"503 344 OFFCURVE",
"504 346 OFFCURVE",
"504 349 CURVE SMOOTH",
"504 356 OFFCURVE",
"497 363 OFFCURVE",
"484 369 CURVE SMOOTH",
"471 375 OFFCURVE",
"461 378 OFFCURVE",
"452 378 CURVE SMOOTH",
"439 378 OFFCURVE",
"431 371 OFFCURVE",
"428 358 CURVE SMOOTH",
"427 351 OFFCURVE",
"427 346 OFFCURVE",
"427 341 CURVE",
"417 280 OFFCURVE",
"390 220 OFFCURVE",
"346 162 CURVE SMOOTH",
"305 108 OFFCURVE",
"255 64 OFFCURVE",
"198 30 CURVE SMOOTH",
"170 13 OFFCURVE",
"146 4 OFFCURVE",
"127 4 CURVE SMOOTH",
"92 4 OFFCURVE",
"74 29 OFFCURVE",
"74 78 CURVE SMOOTH",
"74 139 OFFCURVE",
"97 206 OFFCURVE",
"142 280 CURVE SMOOTH",
"183 346 OFFCURVE",
"230 400 OFFCURVE",
"283 441 CURVE SMOOTH",
"386 521 OFFCURVE",
"498 561 OFFCURVE",
"617 561 CURVE SMOOTH",
"665 561 OFFCURVE",
"689 553 OFFCURVE",
"689 537 CURVE SMOOTH",
"689 530 OFFCURVE",
"680 517 OFFCURVE",
"680 516 CURVE SMOOTH",
"680 514 OFFCURVE",
"682 513 OFFCURVE",
"685 513 CURVE SMOOTH",
"697 513 OFFCURVE",
"703 524 OFFCURVE",
"703 547 CURVE SMOOTH",
"703 578 OFFCURVE",
"669 593 OFFCURVE",
"600 593 CURVE SMOOTH",
"503 593 OFFCURVE",
"393 544 OFFCURVE",
"271 447 CURVE SMOOTH",
"114 321 OFFCURVE",
"35 198 OFFCURVE",
"35 79 CURVE SMOOTH",
"35 16 OFFCURVE",
"64 -16 OFFCURVE",
"123 -16 CURVE SMOOTH",
"180 -16 OFFCURVE",
"238 14 OFFCURVE",
"299 74 CURVE SMOOTH",
"347 121 OFFCURVE",
"388 177 OFFCURVE",
"421 242 CURVE",
"421 200 LINE SMOOTH",
"421 69 OFFCURVE",
"397 -50 OFFCURVE",
"348 -158 CURVE",
"107 -77 LINE SMOOTH",
"5 -43 OFFCURVE",
"-76 -26 OFFCURVE",
"-135 -26 CURVE SMOOTH",
"-189 -26 OFFCURVE",
"-238 -44 OFFCURVE",
"-281 -79 CURVE SMOOTH",
"-327 -116 OFFCURVE",
"-350 -161 OFFCURVE",
"-350 -214 CURVE SMOOTH",
"-350 -244 OFFCURVE",
"-342 -273 OFFCURVE",
"-326 -301 CURVE SMOOTH",
"-307 -334 OFFCURVE",
"-284 -350 OFFCURVE",
"-256 -350 CURVE SMOOTH",
"-247 -350 OFFCURVE",
"-240 -348 OFFCURVE",
"-237 -344 CURVE",
"-266 -338 OFFCURVE",
"-290 -322 OFFCURVE",
"-309 -296 CURVE SMOOTH",
"-329 -271 OFFCURVE",
"-339 -243 OFFCURVE",
"-339 -214 CURVE SMOOTH",
"-339 -181 OFFCURVE",
"-327 -149 OFFCURVE",
"-302 -120 CURVE SMOOTH",
"-264 -74 OFFCURVE",
"-210 -51 OFFCURVE",
"-140 -51 CURVE SMOOTH",
"-80 -51 OFFCURVE",
"0 -68 OFFCURVE",
"101 -101 CURVE SMOOTH",
"339 -179 LINE",
"304 -250 OFFCURVE",
"260 -307 OFFCURVE",
"207 -352 CURVE SMOOTH",
"145 -403 OFFCURVE",
"79 -429 OFFCURVE",
"8 -429 CURVE SMOOTH",
"-57 -429 OFFCURVE",
"-118 -408 OFFCURVE",
"-175 -366 CURVE SMOOTH",
"-232 -324 OFFCURVE",
"-273 -272 OFFCURVE",
"-296 -210 CURVE SMOOTH",
"-301 -197 OFFCURVE",
"-304 -187 OFFCURVE",
"-307 -182 CURVE",
"-307 -192 LINE SMOOTH",
"-307 -205 OFFCURVE",
"-304 -219 OFFCURVE",
"-299 -234 CURVE SMOOTH",
"-250 -363 OFFCURVE",
"-140 -439 OFFCURVE",
"-3 -439 CURVE SMOOTH",
"71 -439 OFFCURVE",
"139 -419 OFFCURVE",
"200 -380 CURVE SMOOTH",
"259 -342 OFFCURVE",
"306 -290 OFFCURVE",
"343 -223 CURVE SMOOTH",
"354 -203 OFFCURVE",
"361 -190 OFFCURVE",
"363 -184 CURVE",
"408 -193 OFFCURVE",
"457 -198 OFFCURVE",
"508 -198 CURVE SMOOTH",
"551 -198 OFFCURVE",
"588 -193 OFFCURVE",
"619 -184 CURVE SMOOTH",
"644 -177 OFFCURVE",
"667 -165 OFFCURVE",
"686 -150 CURVE SMOOTH",
"710 -131 OFFCURVE",
"722 -111 OFFCURVE",
"722 -88 CURVE SMOOTH"
);
}
);
width = 513;
}
);
note = G;
unicode = 0047;
},
{
color = 5;
glyphname = H;
lastChange = "2021-10-11 21:59:08 +0000";
layers = (
{
layerId = "CE757C0C-4E55-453C-A2E3-610759FCFE83";
paths = (
{
closed = 1;
nodes = (
"167 -32 OFFCURVE",
"176 -28 OFFCURVE",
"176 -19 CURVE SMOOTH",
"176 -18 OFFCURVE",
"174 -17 OFFCURVE",
"171 -15 CURVE SMOOTH",
"147 -1 OFFCURVE",
"135 42 OFFCURVE",
"135 114 CURVE SMOOTH",
"135 157 OFFCURVE",
"138 197 OFFCURVE",
"145 234 CURVE",
"342 234 OFFCURVE",
"458 235 OFFCURVE",
"492 236 CURVE",
"491 209 OFFCURVE",
"490 182 OFFCURVE",
"490 155 CURVE SMOOTH",
"490 35 OFFCURVE",
"509 -25 OFFCURVE",
"547 -25 CURVE SMOOTH",
"550 -25 LINE SMOOTH",
"559 -25 OFFCURVE",
"567 -19 OFFCURVE",
"574 -11 CURVE SMOOTH",
"595 11 LINE SMOOTH",
"603 20 OFFCURVE",
"609 25 OFFCURVE",
"609 29 CURVE SMOOTH",
"609 30 OFFCURVE",
"608 30 OFFCURVE",
"607 31 CURVE",
"606 31 OFFCURVE",
"589 22 OFFCURVE",
"581 22 CURVE SMOOTH",
"559 22 OFFCURVE",
"542 50 OFFCURVE",
"531 105 CURVE SMOOTH",
"523 144 OFFCURVE",
"519 182 OFFCURVE",
"519 219 CURVE SMOOTH",
"519 238 LINE",
"553 241 OFFCURVE",
"570 247 OFFCURVE",
"570 256 CURVE SMOOTH",
"570 262 OFFCURVE",
"553 265 OFFCURVE",
"520 265 CURVE",
"529 344 OFFCURVE",
"536 403 OFFCURVE",
"541 440 CURVE SMOOTH",
"548 493 OFFCURVE",
"552 527 OFFCURVE",
"552 543 CURVE SMOOTH",
"552 559 OFFCURVE",
"548 567 OFFCURVE",
"540 567 CURVE SMOOTH",
"527 567 OFFCURVE",
"515 555 OFFCURVE",
"502 532 CURVE",
"503 507 OFFCURVE",
"504 484 OFFCURVE",
"504 461 CURVE SMOOTH",
"504 441 OFFCURVE",
"501 376 OFFCURVE",
"494 265 CURVE",
"322 263 LINE SMOOTH",
"269 262 OFFCURVE",
"212 262 OFFCURVE",
"150 262 CURVE",
"151 313 OFFCURVE",
"159 374 OFFCURVE",
"175 444 CURVE SMOOTH",
"189 505 OFFCURVE",
"196 541 OFFCURVE",
"196 552 CURVE SMOOTH",
"196 575 OFFCURVE",
"190 586 OFFCURVE",
"179 586 CURVE SMOOTH",
"156 586 OFFCURVE",
"135 539 OFFCURVE",
"115 445 CURVE",
"118 440 OFFCURVE",
"121 438 OFFCURVE",
"125 438 CURVE SMOOTH",
"127 438 OFFCURVE",
"132 439 OFFCURVE",
"139 441 CURVE",
"128 366 OFFCURVE",
"122 307 OFFCURVE",
"119 263 CURVE",
"116 262 OFFCURVE",
"112 262 OFFCURVE",
"108 262 CURVE SMOOTH",
"97 262 OFFCURVE",
"69 265 OFFCURVE",
"58 265 CURVE SMOOTH",
"31 265 OFFCURVE",
"12 252 OFFCURVE",
"0 226 CURVE",
"11 226 LINE SMOOTH",
"31 226 OFFCURVE",
"78 231 OFFCURVE",
"98 231 CURVE SMOOTH",
"104 231 OFFCURVE",
"108 231 OFFCURVE",
"111 230 CURVE",
"111 214 OFFCURVE",
"110 190 OFFCURVE",
"107 159 CURVE SMOOTH",
"105 128 OFFCURVE",
"104 105 OFFCURVE",
"104 89 CURVE SMOOTH",
"104 8 OFFCURVE",
"119 -32 OFFCURVE",
"148 -32 CURVE SMOOTH"
);
}
);
width = 608;
},
{
associatedMasterId = "CE757C0C-4E55-453C-A2E3-610759FCFE83";
layerId = "D8E98E05-6F99-4174-A799-9070338AE5B4";
name = Regular;
paths = (
{
closed = 1;
nodes = (
"1223 691 OFFCURVE",
"1215 704 OFFCURVE",
"1200 716 CURVE SMOOTH",
"1185 729 OFFCURVE",
"1170 735 OFFCURVE",
"1155 735 CURVE SMOOTH",
"1080 735 OFFCURVE",
"1014 706 OFFCURVE",
"958 649 CURVE SMOOTH",
"908 596 OFFCURVE",
"875 530 OFFCURVE",
"860 452 CURVE SMOOTH",
"851 404 OFFCURVE",
"847 324 OFFCURVE",
"847 213 CURVE",
"746 210 OFFCURVE",
"671 209 OFFCURVE",
"622 208 CURVE",
"640 314 LINE SMOOTH",
"655 412 OFFCURVE",
"664 480 OFFCURVE",
"669 517 CURVE",
"672 519 OFFCURVE",
"675 520 OFFCURVE",
"678 520 CURVE SMOOTH",
"691 520 OFFCURVE",
"714 511 OFFCURVE",
"746 494 CURVE",
"746 501 OFFCURVE",
"737 511 OFFCURVE",
"719 524 CURVE SMOOTH",
"702 537 OFFCURVE",
"689 543 OFFCURVE",
"680 543 CURVE SMOOTH",
"676 543 OFFCURVE",
"668 538 OFFCURVE",
"657 529 CURVE SMOOTH",
"646 520 OFFCURVE",
"640 514 OFFCURVE",
"637 509 CURVE SMOOTH",
"628 495 OFFCURVE",
"621 470 OFFCURVE",
"618 435 CURVE SMOOTH",
"615 400 OFFCURVE",
"612 373 OFFCURVE",
"611 356 CURVE SMOOTH",
"602 272 OFFCURVE",
"596 223 OFFCURVE",
"593 208 CURVE",
"586 209 OFFCURVE",
"569 209 OFFCURVE",
"543 209 CURVE SMOOTH",
"516 209 OFFCURVE",
"480 209 OFFCURVE",
"434 208 CURVE SMOOTH",
"343 207 OFFCURVE",
"296 205 OFFCURVE",
"292 202 CURVE",
"275 195 OFFCURVE",
"265 187 OFFCURVE",
"263 179 CURVE",
"269 176 OFFCURVE",
"272 175 OFFCURVE",
"272 175 CURVE",
"412 175 OFFCURVE",
"517 176 OFFCURVE",
"586 179 CURVE",
"563 79 OFFCURVE",
"520 -4 OFFCURVE",
"459 -69 CURVE SMOOTH",
"389 -142 OFFCURVE",
"306 -179 OFFCURVE",
"210 -179 CURVE SMOOTH",
"151 -179 OFFCURVE",
"103 -154 OFFCURVE",
"68 -103 CURVE SMOOTH",
"37 -58 OFFCURVE",
"21 -5 OFFCURVE",
"21 56 CURVE SMOOTH",
"21 79 OFFCURVE",
"26 107 OFFCURVE",
"37 141 CURVE SMOOTH",
"48 178 OFFCURVE",
"61 204 OFFCURVE",
"74 218 CURVE",
"77 189 OFFCURVE",
"83 171 OFFCURVE",
"93 165 CURVE",
"87 180 LINE",
"87 197 OFFCURVE",
"93 214 OFFCURVE",
"105 231 CURVE SMOOTH",
"108 236 OFFCURVE",
"111 239 OFFCURVE",
"112 242 CURVE",
"109 246 OFFCURVE",
"106 248 OFFCURVE",
"103 248 CURVE SMOOTH",
"88 248 OFFCURVE",
"69 230 OFFCURVE",
"46 193 CURVE SMOOTH",
"23 156 OFFCURVE",
"12 129 OFFCURVE",
"12 112 CURVE SMOOTH",
"12 111 OFFCURVE",
"15 109 OFFCURVE",
"15 108 CURVE",
"12 105 LINE",
"5 78 OFFCURVE",
"2 59 OFFCURVE",
"2 48 CURVE SMOOTH",
"2 3 LINE SMOOTH",
"2 -50 OFFCURVE",
"19 -98 OFFCURVE",
"52 -139 CURVE SMOOTH",
"87 -184 OFFCURVE",
"131 -207 OFFCURVE",
"183 -207 CURVE SMOOTH",
"286 -207 OFFCURVE",
"379 -167 OFFCURVE",
"462 -87 CURVE SMOOTH",
"538 -14 OFFCURVE",
"589 75 OFFCURVE",
"616 180 CURVE",
"717 185 OFFCURVE",
"794 190 OFFCURVE",
"845 194 CURVE",
"845 184 LINE SMOOTH",
"845 173 OFFCURVE",
"843 147 OFFCURVE",
"840 104 CURVE SMOOTH",
"837 55 OFFCURVE",
"834 23 OFFCURVE",
"832 10 CURVE SMOOTH",
"823 -39 OFFCURVE",
"809 -67 OFFCURVE",
"788 -76 CURVE",
"791 -81 LINE",
"807 -78 OFFCURVE",
"822 -59 OFFCURVE",
"837 -26 CURVE",
"841 -29 LINE",
"856 -29 OFFCURVE",
"875 -3 OFFCURVE",
"875 13 CURVE SMOOTH",
"876 30 OFFCURVE",
"876 43 OFFCURVE",
"876 50 CURVE SMOOTH",
"878 175 LINE SMOOTH",
"879 186 OFFCURVE",
"879 194 OFFCURVE",
"880 198 CURVE",
"913 204 OFFCURVE",
"930 210 OFFCURVE",
"931 215 CURVE",
"925 215 LINE SMOOTH",
"916 215 OFFCURVE",
"890 212 OFFCURVE",
"881 212 CURVE",
"884 359 OFFCURVE",
"897 466 OFFCURVE",
"919 533 CURVE SMOOTH",
"959 655 OFFCURVE",
"1034 716 OFFCURVE",
"1145 716 CURVE SMOOTH",
"1154 716 OFFCURVE",
"1167 712 OFFCURVE",
"1182 705 CURVE SMOOTH",
"1198 698 OFFCURVE",
"1208 690 OFFCURVE",
"1213 683 CURVE SMOOTH",
"1222 670 LINE",
"1223 670 OFFCURVE",
"1223 672 OFFCURVE",
"1223 676 CURVE SMOOTH"
);
}
);
width = 966;
}
);
note = H;
unicode = 0048;
},
{
color = 5;
glyphname = I;
lastChange = "2021-10-11 21:59:10 +0000";
layers = (
{
layerId = "CE757C0C-4E55-453C-A2E3-610759FCFE83";
paths = (
{
closed = 1;
nodes = (
"177 -21 OFFCURVE",
"203 -8 OFFCURVE",
"207 0 CURVE",
"246 0 OFFCURVE",
"271 1 OFFCURVE",
"284 2 CURVE SMOOTH",
"289 3 OFFCURVE",
"301 7 OFFCURVE",
"319 15 CURVE SMOOTH",
"337 23 OFFCURVE",
"346 28 OFFCURVE",
"346 30 CURVE SMOOTH",
"346 31 OFFCURVE",
"345 31 OFFCURVE",
"344 31 CURVE SMOOTH",
"342 31 LINE SMOOTH",
"299 31 OFFCURVE",
"263 24 OFFCURVE",
"263 25 CURVE",
"263 25 OFFCURVE",
"251 25 OFFCURVE",
"228 26 CURVE SMOOTH",
"195 26 LINE",
"190 69 OFFCURVE",
"187 117 OFFCURVE",
"187 169 CURVE SMOOTH",
"187 276 OFFCURVE",
"196 385 OFFCURVE",
"214 496 CURVE",
"314 496 LINE SMOOTH",
"319 496 OFFCURVE",
"330 500 OFFCURVE",
"347 507 CURVE SMOOTH",
"364 514 OFFCURVE",
"372 520 OFFCURVE",
"372 523 CURVE",
"371 524 OFFCURVE",
"364 525 OFFCURVE",
"349 525 CURVE SMOOTH",
"322 525 LINE SMOOTH",
"305 525 OFFCURVE",
"292 524 OFFCURVE",
"283 524 CURVE SMOOTH",
"217 524 LINE",
"217 528 OFFCURVE",
"219 539 OFFCURVE",
"219 543 CURVE SMOOTH",
"219 545 OFFCURVE",
"218 546 OFFCURVE",
"215 546 CURVE SMOOTH",
"196 546 OFFCURVE",
"183 539 OFFCURVE",
"176 524 CURVE",
"109 524 OFFCURVE",
"73 523 OFFCURVE",
"70 522 CURVE SMOOTH",
"67 521 OFFCURVE",
"62 517 OFFCURVE",
"57 509 CURVE SMOOTH",
"52 502 OFFCURVE",
"50 496 OFFCURVE",
"50 493 CURVE SMOOTH",
"50 492 OFFCURVE",
"50 492 OFFCURVE",
"51 491 CURVE",
"171 495 LINE",
"166 432 OFFCURVE",
"162 371 OFFCURVE",
"159 311 CURVE SMOOTH",
"152 192 OFFCURVE",
"149 112 OFFCURVE",
"149 69 CURVE SMOOTH",
"149 48 OFFCURVE",
"150 34 OFFCURVE",
"151 27 CURVE",
"106 28 OFFCURVE",
"85 29 OFFCURVE",
"88 29 CURVE SMOOTH",
"52 29 OFFCURVE",
"34 21 OFFCURVE",
"34 5 CURVE SMOOTH",
"34 2 OFFCURVE",
"35 0 OFFCURVE",
"37 0 CURVE SMOOTH",
"156 0 LINE",
"160 -14 LINE SMOOTH",
"161 -19 OFFCURVE",
"164 -21 OFFCURVE",
"168 -21 CURVE SMOOTH"
);
}
);
width = 359;
},
{
associatedMasterId = "CE757C0C-4E55-453C-A2E3-610759FCFE83";
layerId = "D8E98E05-6F99-4174-A799-9070338AE5B4";
name = Regular;
paths = (
{
closed = 1;
nodes = (
"554 629 OFFCURVE",
"553 631 OFFCURVE",
"551 631 CURVE",
"550 630 OFFCURVE",
"548 629 OFFCURVE",
"546 626 CURVE SMOOTH",
"537 615 OFFCURVE",
"527 607 OFFCURVE",
"514 603 CURVE",
"457 599 OFFCURVE",
"409 597 OFFCURVE",
"370 597 CURVE",
"387 645 OFFCURVE",
"401 669 OFFCURVE",
"411 669 CURVE SMOOTH",
"412 669 OFFCURVE",
"417 667 OFFCURVE",
"420 667 CURVE SMOOTH",
"422 667 OFFCURVE",
"423 669 OFFCURVE",
"423 672 CURVE SMOOTH",
"423 685 OFFCURVE",
"417 691 OFFCURVE",
"406 691 CURVE SMOOTH",
"387 691 OFFCURVE",
"371 680 OFFCURVE",
"358 657 CURVE",
"347 632 OFFCURVE",
"339 612 OFFCURVE",
"334 598 CURVE",
"239 594 OFFCURVE",
"183 578 OFFCURVE",
"164 550 CURVE",
"159 540 OFFCURVE",
"157 532 OFFCURVE",
"156 525 CURVE SMOOTH",
"153 508 OFFCURVE",
"152 503 OFFCURVE",
"152 509 CURVE SMOOTH",
"152 502 OFFCURVE",
"159 482 OFFCURVE",
"163 482 CURVE",
"164 483 OFFCURVE",
"165 486 OFFCURVE",
"166 491 CURVE",
"165 495 OFFCURVE",
"164 499 OFFCURVE",
"164 503 CURVE SMOOTH",
"164 526 OFFCURVE",
"183 542 OFFCURVE",
"220 552 CURVE SMOOTH",
"244 559 OFFCURVE",
"273 562 OFFCURVE",
"307 562 CURVE SMOOTH",
"324 562 LINE",
"310 460 LINE",
"307 438 LINE",
"274 192 LINE SMOOTH",
"254 56 OFFCURVE",
"232 -13 OFFCURVE",
"209 -15 CURVE SMOOTH",
"110 -24 OFFCURVE",
"52 -31 OFFCURVE",
"35 -36 CURVE",
"28 -16 OFFCURVE",
"24 2 OFFCURVE",
"24 18 CURVE SMOOTH",
"24 29 OFFCURVE",
"32 55 OFFCURVE",
"32 66 CURVE SMOOTH",
"32 68 OFFCURVE",
"31 69 OFFCURVE",
"30 70 CURVE",
"23 70 OFFCURVE",
"18 60 OFFCURVE",
"14 39 CURVE SMOOTH",
"11 25 OFFCURVE",
"10 12 OFFCURVE",
"10 0 CURVE SMOOTH",
"10 -14 OFFCURVE",
"11 -28 OFFCURVE",
"13 -41 CURVE",
"-60 -64 LINE SMOOTH",
"-89 -73 OFFCURVE",
"-110 -86 OFFCURVE",
"-124 -103 CURVE SMOOTH",
"-128 -108 OFFCURVE",
"-130 -112 OFFCURVE",
"-130 -116 CURVE SMOOTH",
"-130 -117 OFFCURVE",
"-129 -118 OFFCURVE",
"-128 -119 CURVE",
"-125 -117 LINE SMOOTH",
"-118 -112 OFFCURVE",
"-95 -102 OFFCURVE",
"-54 -89 CURVE SMOOTH",
"-14 -76 OFFCURVE",
"11 -69 OFFCURVE",
"20 -69 CURVE",
"37 -107 OFFCURVE",
"61 -126 OFFCURVE",
"93 -126 CURVE SMOOTH",
"125 -126 OFFCURVE",
"156 -109 OFFCURVE",
"187 -75 CURVE SMOOTH",
"200 -60 OFFCURVE",
"208 -51 OFFCURVE",
"213 -47 CURVE",
"257 -47 OFFCURVE",
"300 -50 OFFCURVE",
"343 -55 CURVE SMOOTH",
"412 -64 OFFCURVE",
"446 -78 OFFCURVE",
"446 -96 CURVE SMOOTH",
"446 -100 OFFCURVE",
"445 -103 OFFCURVE",
"443 -106 CURVE",
"443 -111 OFFCURVE",
"444 -114 OFFCURVE",
"446 -114 CURVE SMOOTH",
"450 -114 OFFCURVE",
"452 -110 OFFCURVE",
"452 -103 CURVE SMOOTH",
"452 -67 OFFCURVE",
"424 -42 OFFCURVE",
"367 -29 CURVE SMOOTH",
"340 -22 OFFCURVE",
"297 -18 OFFCURVE",
"239 -15 CURVE",
"262 21 OFFCURVE",
"275 42 OFFCURVE",
"277 48 CURVE SMOOTH",
"294 107 OFFCURVE",
"308 175 OFFCURVE",
"320 254 CURVE SMOOTH",
"350 464 LINE SMOOTH",
"357 515 OFFCURVE",
"363 547 OFFCURVE",
"367 562 CURVE",
"418 560 OFFCURVE",
"453 560 OFFCURVE",
"474 563 CURVE SMOOTH",
"485 564 OFFCURVE",
"501 572 OFFCURVE",
"522 588 CURVE SMOOTH",
"543 604 OFFCURVE",
"554 617 OFFCURVE",
"554 626 CURVE SMOOTH"
);
},
{
closed = 1;
nodes = (
"176 -72 OFFCURVE",
"133 -95 OFFCURVE",
"105 -95 CURVE SMOOTH",
"85 -95 OFFCURVE",
"53 -79 OFFCURVE",
"49 -63 CURVE",
"110 -53 LINE SMOOTH",
"138 -49 OFFCURVE",
"157 -47 OFFCURVE",
"168 -47 CURVE SMOOTH",
"170 -47 OFFCURVE",
"177 -47 OFFCURVE",
"189 -48 CURVE"
);
}
);
width = 407;
}
);
note = I;
unicode = 0049;
},
{
color = 5;
glyphname = J;
lastChange = "2021-10-11 21:59:08 +0000";
layers = (
{
layerId = "CE757C0C-4E55-453C-A2E3-610759FCFE83";
paths = (
{
closed = 1;
nodes = (
"231 -152 OFFCURVE",
"304 19 OFFCURVE",
"304 361 CURVE SMOOTH",
"304 398 OFFCURVE",
"303 437 OFFCURVE",
"301 476 CURVE SMOOTH",
"300 506 OFFCURVE",
"299 524 OFFCURVE",
"298 530 CURVE",
"346 531 OFFCURVE",
"382 532 OFFCURVE",
"407 532 CURVE",
"413 533 OFFCURVE",
"424 536 OFFCURVE",
"441 543 CURVE SMOOTH",
"458 550 OFFCURVE",
"467 556 OFFCURVE",
"467 559 CURVE SMOOTH",
"467 560 OFFCURVE",
"466 560 OFFCURVE",
"465 561 CURVE",
"462 560 LINE",
"369 558 OFFCURVE",
"315 557 OFFCURVE",
"299 556 CURVE",
"299 560 OFFCURVE",
"301 572 OFFCURVE",
"301 576 CURVE SMOOTH",
"301 579 OFFCURVE",
"300 580 OFFCURVE",
"297 580 CURVE SMOOTH",
"278 580 OFFCURVE",
"265 572 OFFCURVE",
"258 557 CURVE",
"132 557 LINE",
"120 554 OFFCURVE",
"105 537 OFFCURVE",
"105 525 CURVE SMOOTH",
"105 522 OFFCURVE",
"106 521 OFFCURVE",
"109 521 CURVE SMOOTH",
"125 521 OFFCURVE",
"149 522 OFFCURVE",
"181 524 CURVE SMOOTH",
"213 527 OFFCURVE",
"237 528 OFFCURVE",
"253 528 CURVE",
"258 477 OFFCURVE",
"260 417 OFFCURVE",
"260 348 CURVE SMOOTH",
"260 31 OFFCURVE",
"213 -127 OFFCURVE",
"120 -127 CURVE SMOOTH",
"95 -127 OFFCURVE",
"64 -110 OFFCURVE",
"28 -76 CURVE SMOOTH",
"1 -51 OFFCURVE",
"-22 -23 OFFCURVE",
"-42 8 CURVE",
"-48 10 OFFCURVE",
"-51 5 OFFCURVE",
"-51 -8 CURVE SMOOTH",
"-51 -12 LINE",
"-39 -42 OFFCURVE",
"-21 -71 OFFCURVE",
"3 -99 CURVE SMOOTH",
"33 -134 OFFCURVE",
"60 -152 OFFCURVE",
"84 -152 CURVE SMOOTH"
);
}
);
width = 370;
},
{
associatedMasterId = "CE757C0C-4E55-453C-A2E3-610759FCFE83";
layerId = "D8E98E05-6F99-4174-A799-9070338AE5B4";
name = Regular;
paths = (
{
closed = 1;
nodes = (
"743 594 OFFCURVE",
"725 596 OFFCURVE",
"689 598 CURVE SMOOTH",
"656 600 OFFCURVE",
"636 601 OFFCURVE",
"631 601 CURVE SMOOTH",
"624 601 LINE",
"627 619 OFFCURVE",
"629 626 OFFCURVE",
"629 623 CURVE SMOOTH",
"629 624 OFFCURVE",
"628 625 OFFCURVE",
"626 625 CURVE SMOOTH",
"607 625 OFFCURVE",
"593 617 OFFCURVE",
"582 602 CURVE",
"576 602 LINE SMOOTH",
"566 602 OFFCURVE",
"550 602 OFFCURVE",
"529 603 CURVE SMOOTH",
"508 604 OFFCURVE",
"493 604 OFFCURVE",
"482 604 CURVE SMOOTH",
"357 604 OFFCURVE",
"294 576 OFFCURVE",
"294 521 CURVE SMOOTH",
"294 478 OFFCURVE",
"333 421 OFFCURVE",
"412 350 CURVE SMOOTH",
"413 349 OFFCURVE",
"415 348 OFFCURVE",
"416 348 CURVE SMOOTH",
"422 348 OFFCURVE",
"425 350 OFFCURVE",
"425 354 CURVE",
"360 418 OFFCURVE",
"327 470 OFFCURVE",
"327 509 CURVE SMOOTH",
"327 550 OFFCURVE",
"399 571 OFFCURVE",
"544 571 CURVE SMOOTH",
"572 571 LINE",
"563 428 OFFCURVE",
"555 336 OFFCURVE",
"550 295 CURVE SMOOTH",
"536 190 OFFCURVE",
"512 101 OFFCURVE",
"479 28 CURVE SMOOTH",
"452 -31 OFFCURVE",
"419 -80 OFFCURVE",
"379 -117 CURVE SMOOTH",
"330 -164 OFFCURVE",
"277 -187 OFFCURVE",
"221 -187 CURVE SMOOTH",
"159 -187 OFFCURVE",
"110 -161 OFFCURVE",
"75 -109 CURVE SMOOTH",
"44 -64 OFFCURVE",
"28 -9 OFFCURVE",
"28 56 CURVE SMOOTH",
"28 79 OFFCURVE",
"33 108 OFFCURVE",
"43 141 CURVE SMOOTH",
"54 178 OFFCURVE",
"66 204 OFFCURVE",
"79 218 CURVE",
"82 189 OFFCURVE",
"89 171 OFFCURVE",
"100 165 CURVE",
"96 172 OFFCURVE",
"94 177 OFFCURVE",
"93 180 CURVE",
"93 199 OFFCURVE",
"99 216 OFFCURVE",
"110 231 CURVE SMOOTH",
"119 242 LINE",
"115 246 OFFCURVE",
"112 248 OFFCURVE",
"109 248 CURVE SMOOTH",
"94 248 OFFCURVE",
"75 230 OFFCURVE",
"52 193 CURVE SMOOTH",
"29 156 OFFCURVE",
"18 129 OFFCURVE",
"18 112 CURVE SMOOTH",
"18 111 OFFCURVE",
"21 109 OFFCURVE",
"21 108 CURVE",
"18 105 LINE",
"11 78 OFFCURVE",
"8 59 OFFCURVE",
"8 48 CURVE SMOOTH",
"8 3 LINE SMOOTH",
"8 -57 OFFCURVE",
"27 -107 OFFCURVE",
"64 -148 CURVE SMOOTH",
"101 -189 OFFCURVE",
"150 -209 OFFCURVE",
"209 -209 CURVE SMOOTH",
"270 -209 OFFCURVE",
"328 -185 OFFCURVE",
"382 -138 CURVE SMOOTH",
"427 -98 OFFCURVE",
"465 -47 OFFCURVE",
"496 16 CURVE SMOOTH",
"542 110 OFFCURVE",
"576 246 OFFCURVE",
"597 423 CURVE SMOOTH",
"604 480 OFFCURVE",
"609 530 OFFCURVE",
"614 573 CURVE",
"640 574 OFFCURVE",
"673 578 OFFCURVE",
"713 585 CURVE SMOOTH",
"733 588 OFFCURVE",
"743 591 OFFCURVE",
"743 593 CURVE SMOOTH"
);
}
);
width = 646;
}
);
note = J;
unicode = 004A;
},
{
color = 5;
glyphname = K;
lastChange = "2021-10-11 21:59:10 +0000";
layers = (
{
layerId = "CE757C0C-4E55-453C-A2E3-610759FCFE83";
paths = (
{
closed = 1;
nodes = (
"107 -25 OFFCURVE",
"117 -21 OFFCURVE",
"126 -12 CURVE SMOOTH",
"151 12 OFFCURVE",
"164 26 OFFCURVE",
"164 29 CURVE",
"162 31 LINE",
"161 31 OFFCURVE",
"143 21 OFFCURVE",
"135 21 CURVE SMOOTH",
"108 21 OFFCURVE",
"91 65 OFFCURVE",
"86 152 CURVE",
"130 202 OFFCURVE",
"162 234 OFFCURVE",
"183 249 CURVE",
"203 185 OFFCURVE",
"227 130 OFFCURVE",
"254 83 CURVE SMOOTH",
"295 14 OFFCURVE",
"337 -21 OFFCURVE",
"382 -21 CURVE SMOOTH",
"427 -21 OFFCURVE",
"463 16 OFFCURVE",
"489 89 CURVE SMOOTH",
"509 145 OFFCURVE",
"519 201 OFFCURVE",
"519 258 CURVE SMOOTH",
"519 270 OFFCURVE",
"511 298 OFFCURVE",
"502 298 CURVE SMOOTH",
"501 298 OFFCURVE",
"499 297 OFFCURVE",
"497 295 CURVE",
"499 290 OFFCURVE",
"500 275 OFFCURVE",
"500 252 CURVE SMOOTH",
"500 200 OFFCURVE",
"494 154 OFFCURVE",
"482 115 CURVE SMOOTH",
"465 58 OFFCURVE",
"436 29 OFFCURVE",
"397 29 CURVE SMOOTH",
"358 29 OFFCURVE",
"318 59 OFFCURVE",
"277 120 CURVE SMOOTH",
"248 164 OFFCURVE",
"224 213 OFFCURVE",
"206 267 CURVE",
"305 372 OFFCURVE",
"408 462 OFFCURVE",
"514 538 CURVE SMOOTH",
"520 542 OFFCURVE",
"523 546 OFFCURVE",
"523 550 CURVE SMOOTH",
"523 559 OFFCURVE",
"517 563 OFFCURVE",
"505 563 CURVE SMOOTH",
"498 563 OFFCURVE",
"493 561 OFFCURVE",
"488 556 CURVE SMOOTH",
"402 471 LINE SMOOTH",
"354 425 OFFCURVE",
"284 363 OFFCURVE",
"193 286 CURVE",
"181 324 OFFCURVE",
"172 352 OFFCURVE",
"167 371 CURVE SMOOTH",
"166 374 OFFCURVE",
"164 375 OFFCURVE",
"162 375 CURVE SMOOTH",
"159 375 OFFCURVE",
"157 373 OFFCURVE",
"157 369 CURVE SMOOTH",
"157 358 OFFCURVE",
"164 326 OFFCURVE",
"179 274 CURVE",
"81 192 LINE",
"89 293 OFFCURVE",
"99 371 OFFCURVE",
"110 428 CURVE SMOOTH",
"124 497 OFFCURVE",
"131 537 OFFCURVE",
"131 550 CURVE SMOOTH",
"131 574 OFFCURVE",
"125 586 OFFCURVE",
"113 586 CURVE SMOOTH",
"90 586 OFFCURVE",
"70 539 OFFCURVE",
"54 445 CURVE",
"56 440 OFFCURVE",
"59 438 OFFCURVE",
"63 438 CURVE SMOOTH",
"65 438 OFFCURVE",
"69 439 OFFCURVE",
"76 441 CURVE",
"65 390 OFFCURVE",
"58 301 OFFCURVE",
"55 173 CURVE",
"45 162 OFFCURVE",
"40 151 OFFCURVE",
"40 140 CURVE SMOOTH",
"40 131 OFFCURVE",
"43 127 OFFCURVE",
"49 127 CURVE SMOOTH",
"52 127 LINE",
"52 116 OFFCURVE",
"51 106 OFFCURVE",
"51 97 CURVE SMOOTH",
"51 16 OFFCURVE",
"67 -25 OFFCURVE",
"98 -25 CURVE SMOOTH"
);
}
);
width = 525;
},
{
associatedMasterId = "CE757C0C-4E55-453C-A2E3-610759FCFE83";
layerId = "D8E98E05-6F99-4174-A799-9070338AE5B4";
name = Regular;
paths = (
{
closed = 1;
nodes = (
"1113 650 OFFCURVE",
"1098 667 OFFCURVE",
"1069 680 CURVE SMOOTH",
"1046 689 OFFCURVE",
"1022 694 OFFCURVE",
"996 694 CURVE SMOOTH",
"828 694 OFFCURVE",
"664 568 OFFCURVE",
"503 315 CURVE",
"502 315 LINE",
"521 430 OFFCURVE",
"533 516 OFFCURVE",
"539 573 CURVE",
"558 574 OFFCURVE",
"568 580 OFFCURVE",
"568 591 CURVE SMOOTH",
"568 598 OFFCURVE",
"562 602 OFFCURVE",
"550 601 CURVE",
"554 619 OFFCURVE",
"556 626 OFFCURVE",
"556 623 CURVE SMOOTH",
"556 624 OFFCURVE",
"555 625 OFFCURVE",
"552 625 CURVE SMOOTH",
"533 625 OFFCURVE",
"518 617 OFFCURVE",
"508 602 CURVE",
"502 602 LINE SMOOTH",
"492 602 OFFCURVE",
"477 602 OFFCURVE",
"456 603 CURVE SMOOTH",
"435 604 OFFCURVE",
"420 604 OFFCURVE",
"409 604 CURVE SMOOTH",
"283 604 OFFCURVE",
"220 576 OFFCURVE",
"220 521 CURVE SMOOTH",
"220 478 OFFCURVE",
"255 426 OFFCURVE",
"324 366 CURVE",
"330 363 LINE",
"335 363 OFFCURVE",
"337 365 OFFCURVE",
"337 370 CURVE",
"290 428 LINE SMOOTH",
"259 467 OFFCURVE",
"243 495 OFFCURVE",
"243 514 CURVE SMOOTH",
"243 559 OFFCURVE",
"306 581 OFFCURVE",
"433 581 CURVE SMOOTH",
"447 581 OFFCURVE",
"462 581 OFFCURVE",
"478 580 CURVE SMOOTH",
"501 579 LINE",
"491 452 OFFCURVE",
"483 367 OFFCURVE",
"477 326 CURVE",
"468 327 OFFCURVE",
"456 321 OFFCURVE",
"439 307 CURVE SMOOTH",
"422 294 OFFCURVE",
"414 283 OFFCURVE",
"414 274 CURVE SMOOTH",
"414 271 OFFCURVE",
"415 270 OFFCURVE",
"416 269 CURVE",
"416 269 OFFCURVE",
"421 273 OFFCURVE",
"430 282 CURVE SMOOTH",
"439 291 OFFCURVE",
"448 296 OFFCURVE",
"456 296 CURVE SMOOTH",
"461 296 OFFCURVE",
"465 295 OFFCURVE",
"470 292 CURVE",
"466 267 OFFCURVE",
"462 244 OFFCURVE",
"457 223 CURVE SMOOTH",
"436 138 OFFCURVE",
"410 67 OFFCURVE",
"378 12 CURVE SMOOTH",
"330 -72 OFFCURVE",
"273 -114 OFFCURVE",
"207 -114 CURVE SMOOTH",
"148 -114 OFFCURVE",
"102 -82 OFFCURVE",
"69 -19 CURVE SMOOTH",
"42 32 OFFCURVE",
"29 90 OFFCURVE",
"29 154 CURVE SMOOTH",
"29 178 OFFCURVE",
"34 207 OFFCURVE",
"43 240 CURVE SMOOTH",
"54 277 OFFCURVE",
"67 302 OFFCURVE",
"81 317 CURVE",
"84 286 OFFCURVE",
"91 269 OFFCURVE",
"101 264 CURVE",
"97 271 OFFCURVE",
"95 276 OFFCURVE",
"94 279 CURVE",
"94 296 OFFCURVE",
"100 314 OFFCURVE",
"112 331 CURVE",
"120 339 LINE",
"116 343 OFFCURVE",
"113 345 OFFCURVE",
"110 345 CURVE SMOOTH",
"85 345 OFFCURVE",
"61 318 OFFCURVE",
"36 263 CURVE SMOOTH",
"15 215 OFFCURVE",
"4 176 OFFCURVE",
"4 145 CURVE SMOOTH",
"4 101 LINE SMOOTH",
"4 40 OFFCURVE",
"20 -14 OFFCURVE",
"53 -60 CURVE SMOOTH",
"89 -111 OFFCURVE",
"136 -137 OFFCURVE",
"195 -137 CURVE SMOOTH",
"269 -137 OFFCURVE",
"334 -93 OFFCURVE",
"389 -5 CURVE SMOOTH",
"426 55 OFFCURVE",
"457 131 OFFCURVE",
"481 224 CURVE SMOOTH",
"486 243 OFFCURVE",
"491 261 OFFCURVE",
"494 277 CURVE",
"495 278 LINE",
"523 255 OFFCURVE",
"562 212 OFFCURVE",
"611 149 CURVE SMOOTH",
"660 87 OFFCURVE",
"699 44 OFFCURVE",
"727 19 CURVE SMOOTH",
"775 -22 OFFCURVE",
"823 -43 OFFCURVE",
"871 -43 CURVE SMOOTH",
"895 -43 OFFCURVE",
"916 -38 OFFCURVE",
"934 -28 CURVE SMOOTH",
"955 -16 OFFCURVE",
"966 1 OFFCURVE",
"966 23 CURVE SMOOTH",
"966 32 OFFCURVE",
"962 47 OFFCURVE",
"955 68 CURVE SMOOTH",
"946 91 OFFCURVE",
"938 103 OFFCURVE",
"931 103 CURVE SMOOTH",
"930 103 OFFCURVE",
"929 102 OFFCURVE",
"929 100 CURVE SMOOTH",
"929 97 OFFCURVE",
"932 89 OFFCURVE",
"937 74 CURVE SMOOTH",
"942 59 OFFCURVE",
"945 47 OFFCURVE",
"945 38 CURVE SMOOTH",
"945 -6 OFFCURVE",
"929 -28 OFFCURVE",
"896 -28 CURVE SMOOTH",
"839 -28 OFFCURVE",
"754 37 OFFCURVE",
"641 167 CURVE SMOOTH",
"573 246 OFFCURVE",
"531 291 OFFCURVE",
"516 304 CURVE",
"603 413 OFFCURVE",
"671 491 OFFCURVE",
"720 538 CURVE SMOOTH",
"818 632 OFFCURVE",
"905 679 OFFCURVE",
"980 679 CURVE SMOOTH",
"1009 679 OFFCURVE",
"1033 674 OFFCURVE",
"1054 664 CURVE SMOOTH",
"1081 651 OFFCURVE",
"1094 631 OFFCURVE",
"1094 606 CURVE SMOOTH",
"1094 601 OFFCURVE",
"1090 587 OFFCURVE",
"1090 583 CURVE SMOOTH",
"1090 580 LINE",
"1095 580 OFFCURVE",
"1100 586 OFFCURVE",
"1105 599 CURVE SMOOTH",
"1110 612 OFFCURVE",
"1113 622 OFFCURVE",
"1113 627 CURVE SMOOTH"
);
}
);
width = 966;
}
);
note = K;
unicode = 004B;
},
{
color = 5;
glyphname = L;
lastChange = "2021-10-11 21:59:08 +0000";
layers = (
{
layerId = "CE757C0C-4E55-453C-A2E3-610759FCFE83";
paths = (
{
closed = 1;
nodes = (
"248 -32 OFFCURVE",
"302 -25 OFFCURVE",
"364 -12 CURVE SMOOTH",
"427 1 OFFCURVE",
"479 17 OFFCURVE",
"522 36 CURVE SMOOTH",
"553 50 OFFCURVE",
"568 66 OFFCURVE",
"568 84 CURVE SMOOTH",
"568 89 OFFCURVE",
"566 91 OFFCURVE",
"562 91 CURVE SMOOTH",
"557 91 OFFCURVE",
"545 86 OFFCURVE",
"526 75 CURVE SMOOTH",
"485 51 LINE",
"414 15 OFFCURVE",
"345 -3 OFFCURVE",
"278 -3 CURVE SMOOTH",
"162 -3 OFFCURVE",
"104 55 OFFCURVE",
"104 170 CURVE SMOOTH",
"104 200 OFFCURVE",
"108 232 OFFCURVE",
"115 265 CURVE SMOOTH",
"158 462 LINE SMOOTH",
"169 514 OFFCURVE",
"175 543 OFFCURVE",
"175 549 CURVE SMOOTH",
"175 565 OFFCURVE",
"170 573 OFFCURVE",
"161 573 CURVE SMOOTH",
"144 573 OFFCURVE",
"128 553 OFFCURVE",
"111 513 CURVE SMOOTH",
"100 487 OFFCURVE",
"92 460 OFFCURVE",
"86 432 CURVE",
"87 429 OFFCURVE",
"90 427 OFFCURVE",
"93 427 CURVE SMOOTH",
"96 427 OFFCURVE",
"103 429 OFFCURVE",
"106 429 CURVE SMOOTH",
"107 429 OFFCURVE",
"108 429 OFFCURVE",
"109 428 CURVE",
"110 422 LINE SMOOTH",
"111 399 OFFCURVE",
"102 346 OFFCURVE",
"83 262 CURVE SMOOTH",
"71 208 OFFCURVE",
"65 161 OFFCURVE",
"65 122 CURVE SMOOTH",
"65 19 OFFCURVE",
"110 -32 OFFCURVE",
"201 -32 CURVE SMOOTH"
);
}
);
width = 524;
},
{
associatedMasterId = "CE757C0C-4E55-453C-A2E3-610759FCFE83";
layerId = "D8E98E05-6F99-4174-A799-9070338AE5B4";
name = Regular;
paths = (
{
closed = 1;
nodes = (
"871 -42 OFFCURVE",
"851 -16 OFFCURVE",
"812 13 CURVE SMOOTH",
"809 15 OFFCURVE",
"806 16 OFFCURVE",
"803 17 CURVE SMOOTH",
"802 17 OFFCURVE",
"801 16 OFFCURVE",
"801 15 CURVE SMOOTH",
"801 13 OFFCURVE",
"807 2 OFFCURVE",
"818 -17 CURVE SMOOTH",
"829 -36 OFFCURVE",
"835 -52 OFFCURVE",
"835 -63 CURVE SMOOTH",
"835 -96 OFFCURVE",
"821 -112 OFFCURVE",
"792 -112 CURVE SMOOTH",
"711 -112 OFFCURVE",
"554 -47 OFFCURVE",
"321 83 CURVE",
"325 103 LINE SMOOTH",
"344 196 OFFCURVE",
"378 300 OFFCURVE",
"427 415 CURVE SMOOTH",
"490 564 OFFCURVE",
"550 647 OFFCURVE",
"606 663 CURVE SMOOTH",
"616 666 OFFCURVE",
"627 668 OFFCURVE",
"639 668 CURVE SMOOTH",
"696 668 OFFCURVE",
"736 644 OFFCURVE",
"757 596 CURVE SMOOTH",
"762 584 OFFCURVE",
"766 578 OFFCURVE",
"770 578 CURVE SMOOTH",
"773 578 OFFCURVE",
"775 580 OFFCURVE",
"775 583 CURVE SMOOTH",
"775 585 OFFCURVE",
"774 588 OFFCURVE",
"772 592 CURVE",
"762 623 OFFCURVE",
"744 651 OFFCURVE",
"718 674 CURVE SMOOTH",
"690 700 OFFCURVE",
"661 713 OFFCURVE",
"631 713 CURVE SMOOTH",
"554 713 OFFCURVE",
"480 628 OFFCURVE",
"410 457 CURVE SMOOTH",
"381 385 OFFCURVE",
"343 265 OFFCURVE",
"297 96 CURVE",
"254 123 OFFCURVE",
"199 169 OFFCURVE",
"132 235 CURVE SMOOTH",
"93 274 OFFCURVE",
"65 294 OFFCURVE",
"47 294 CURVE SMOOTH",
"23 294 OFFCURVE",
"11 266 OFFCURVE",
"11 211 CURVE SMOOTH",
"11 182 OFFCURVE",
"16 150 OFFCURVE",
"25 114 CURVE SMOOTH",
"42 52 OFFCURVE",
"75 -1 OFFCURVE",
"122 -45 CURVE SMOOTH",
"155 -75 OFFCURVE",
"185 -90 OFFCURVE",
"212 -90 CURVE SMOOTH",
"244 -90 OFFCURVE",
"268 -73 OFFCURVE",
"284 -38 CURVE SMOOTH",
"286 -34 OFFCURVE",
"295 -3 OFFCURVE",
"312 55 CURVE",
"518 -67 OFFCURVE",
"673 -128 OFFCURVE",
"776 -128 CURVE SMOOTH",
"825 -128 OFFCURVE",
"856 -112 OFFCURVE",
"869 -81 CURVE",
"870 -77 OFFCURVE",
"871 -72 OFFCURVE",
"871 -66 CURVE SMOOTH"
);
},
{
closed = 1;
nodes = (
"266 -27 OFFCURVE",
"239 -74 OFFCURVE",
"212 -74 CURVE SMOOTH",
"191 -74 OFFCURVE",
"168 -60 OFFCURVE",
"141 -33 CURVE SMOOTH",
"121 -12 OFFCURVE",
"104 11 OFFCURVE",
"90 36 CURVE SMOOTH",
"61 90 OFFCURVE",
"46 143 OFFCURVE",
"46 194 CURVE SMOOTH",
"46 213 OFFCURVE",
"51 223 OFFCURVE",
"61 223 CURVE SMOOTH",
"72 223 OFFCURVE",
"91 213 OFFCURVE",
"118 192 CURVE SMOOTH",
"199 129 OFFCURVE",
"257 88 OFFCURVE",
"292 67 CURVE"
);
}
);
width = 483;
}
);
note = L;
unicode = 004C;
},
{
color = 5;
glyphname = LJ;
lastChange = "2021-10-11 21:59:08 +0000";
layers = (
{
layerId = "CE757C0C-4E55-453C-A2E3-610759FCFE83";
paths = (
{
closed = 1;
nodes = (
"755 -152 OFFCURVE",
"828 19 OFFCURVE",
"828 361 CURVE SMOOTH",
"828 398 OFFCURVE",
"827 437 OFFCURVE",
"825 476 CURVE SMOOTH",
"824 506 OFFCURVE",
"823 524 OFFCURVE",
"822 530 CURVE",
"870 531 OFFCURVE",
"906 532 OFFCURVE",
"931 532 CURVE",
"937 533 OFFCURVE",
"948 536 OFFCURVE",
"965 543 CURVE SMOOTH",
"982 550 OFFCURVE",
"991 556 OFFCURVE",
"991 559 CURVE SMOOTH",
"991 560 OFFCURVE",
"990 560 OFFCURVE",
"989 561 CURVE",
"986 560 LINE",
"893 558 OFFCURVE",
"839 557 OFFCURVE",
"823 556 CURVE",
"823 560 OFFCURVE",
"825 572 OFFCURVE",
"825 576 CURVE SMOOTH",
"825 579 OFFCURVE",
"824 580 OFFCURVE",
"821 580 CURVE SMOOTH",
"802 580 OFFCURVE",
"789 572 OFFCURVE",
"782 557 CURVE",
"656 557 LINE",
"644 554 OFFCURVE",
"629 537 OFFCURVE",
"629 525 CURVE SMOOTH",
"629 522 OFFCURVE",
"630 521 OFFCURVE",
"633 521 CURVE SMOOTH",
"649 521 OFFCURVE",
"673 522 OFFCURVE",
"705 524 CURVE SMOOTH",
"737 527 OFFCURVE",
"761 528 OFFCURVE",
"777 528 CURVE",
"782 477 OFFCURVE",
"784 417 OFFCURVE",
"784 348 CURVE SMOOTH",
"784 31 OFFCURVE",
"737 -127 OFFCURVE",
"644 -127 CURVE SMOOTH",
"619 -127 OFFCURVE",
"588 -110 OFFCURVE",
"552 -76 CURVE SMOOTH",
"525 -51 OFFCURVE",
"502 -23 OFFCURVE",
"482 8 CURVE",
"476 10 OFFCURVE",
"473 5 OFFCURVE",
"473 -8 CURVE SMOOTH",
"473 -12 LINE",
"485 -42 OFFCURVE",
"503 -71 OFFCURVE",
"527 -99 CURVE SMOOTH",
"557 -134 OFFCURVE",
"584 -152 OFFCURVE",
"608 -152 CURVE SMOOTH"
);
},
{
closed = 1;
nodes = (
"248 -32 OFFCURVE",
"302 -25 OFFCURVE",
"364 -12 CURVE SMOOTH",
"427 1 OFFCURVE",
"479 17 OFFCURVE",
"522 36 CURVE SMOOTH",
"553 50 OFFCURVE",
"568 66 OFFCURVE",
"568 84 CURVE SMOOTH",
"568 89 OFFCURVE",
"566 91 OFFCURVE",
"562 91 CURVE SMOOTH",
"557 91 OFFCURVE",
"545 86 OFFCURVE",
"526 75 CURVE SMOOTH",
"485 51 LINE",
"414 15 OFFCURVE",
"345 -3 OFFCURVE",
"278 -3 CURVE SMOOTH",
"162 -3 OFFCURVE",
"104 55 OFFCURVE",
"104 170 CURVE SMOOTH",
"104 200 OFFCURVE",
"108 232 OFFCURVE",
"115 265 CURVE SMOOTH",
"158 462 LINE SMOOTH",
"169 514 OFFCURVE",
"175 543 OFFCURVE",
"175 549 CURVE SMOOTH",
"175 565 OFFCURVE",
"170 573 OFFCURVE",
"161 573 CURVE SMOOTH",
"144 573 OFFCURVE",
"128 553 OFFCURVE",
"111 513 CURVE SMOOTH",
"100 487 OFFCURVE",
"92 460 OFFCURVE",
"86 432 CURVE",
"87 429 OFFCURVE",
"90 427 OFFCURVE",
"93 427 CURVE SMOOTH",
"96 427 OFFCURVE",
"103 429 OFFCURVE",
"106 429 CURVE SMOOTH",
"107 429 OFFCURVE",
"108 429 OFFCURVE",
"109 428 CURVE",
"110 422 LINE SMOOTH",
"111 399 OFFCURVE",
"102 346 OFFCURVE",
"83 262 CURVE SMOOTH",
"71 208 OFFCURVE",
"65 161 OFFCURVE",
"65 122 CURVE SMOOTH",
"65 19 OFFCURVE",
"110 -32 OFFCURVE",
"201 -32 CURVE SMOOTH"
);
}
);
width = 894;
}
);
unicode = 01C7;
},
{
color = 5;
glyphname = Lj;
lastChange = "2021-10-11 21:59:08 +0000";
layers = (
{
layerId = "CE757C0C-4E55-453C-A2E3-610759FCFE83";
paths = (
{
closed = 1;
nodes = (
"248 -32 OFFCURVE",
"302 -25 OFFCURVE",
"364 -12 CURVE SMOOTH",
"427 1 OFFCURVE",
"479 17 OFFCURVE",
"522 36 CURVE SMOOTH",
"553 50 OFFCURVE",
"568 66 OFFCURVE",
"568 84 CURVE SMOOTH",
"568 89 OFFCURVE",
"566 91 OFFCURVE",
"562 91 CURVE SMOOTH",
"557 91 OFFCURVE",
"545 86 OFFCURVE",
"526 75 CURVE SMOOTH",
"485 51 LINE",
"414 15 OFFCURVE",
"345 -3 OFFCURVE",
"278 -3 CURVE SMOOTH",
"162 -3 OFFCURVE",
"104 55 OFFCURVE",
"104 170 CURVE SMOOTH",
"104 200 OFFCURVE",
"108 232 OFFCURVE",
"115 265 CURVE SMOOTH",
"158 462 LINE SMOOTH",
"169 514 OFFCURVE",
"175 543 OFFCURVE",
"175 549 CURVE SMOOTH",
"175 565 OFFCURVE",
"170 573 OFFCURVE",
"161 573 CURVE SMOOTH",
"144 573 OFFCURVE",
"128 553 OFFCURVE",
"111 513 CURVE SMOOTH",
"100 487 OFFCURVE",
"92 460 OFFCURVE",
"86 432 CURVE",
"87 429 OFFCURVE",
"90 427 OFFCURVE",
"93 427 CURVE SMOOTH",
"96 427 OFFCURVE",
"103 429 OFFCURVE",
"106 429 CURVE SMOOTH",
"107 429 OFFCURVE",
"108 429 OFFCURVE",
"109 428 CURVE",
"110 422 LINE SMOOTH",
"111 399 OFFCURVE",
"102 346 OFFCURVE",
"83 262 CURVE SMOOTH",
"71 208 OFFCURVE",
"65 161 OFFCURVE",
"65 122 CURVE SMOOTH",
"65 19 OFFCURVE",
"110 -32 OFFCURVE",
"201 -32 CURVE SMOOTH"
);
},
{
closed = 1;
nodes = (
"531 -373 OFFCURVE",
"566 -344 OFFCURVE",
"595 -285 CURVE SMOOTH",
"614 -246 OFFCURVE",
"628 -198 OFFCURVE",
"638 -142 CURVE SMOOTH",
"641 -127 OFFCURVE",
"642 -105 OFFCURVE",
"642 -78 CURVE SMOOTH",
"642 0 OFFCURVE",
"635 101 OFFCURVE",
"621 226 CURVE SMOOTH",
"616 270 OFFCURVE",
"612 292 OFFCURVE",
"607 292 CURVE SMOOTH",
"595 292 OFFCURVE",
"585 285 OFFCURVE",
"576 271 CURVE SMOOTH",
"574 268 OFFCURVE",
"573 263 OFFCURVE",
"573 257 CURVE SMOOTH",
"573 247 OFFCURVE",
"578 239 OFFCURVE",
"588 233 CURVE",
"600 85 LINE SMOOTH",
"604 31 OFFCURVE",
"606 -19 OFFCURVE",
"606 -64 CURVE SMOOTH",
"606 -252 OFFCURVE",
"570 -346 OFFCURVE",
"499 -346 CURVE SMOOTH",
"460 -346 OFFCURVE",
"428 -321 OFFCURVE",
"404 -270 CURVE",
"399 -263 LINE",
"397 -264 OFFCURVE",
"396 -267 OFFCURVE",
"396 -273 CURVE SMOOTH",
"396 -296 OFFCURVE",
"406 -318 OFFCURVE",
"426 -340 CURVE SMOOTH",
"446 -362 OFFCURVE",
"467 -373 OFFCURVE",
"489 -373 CURVE SMOOTH"
);
},
{
closed = 1;
nodes = (
"604 386 OFFCURVE",
"610 390 OFFCURVE",
"613 399 CURVE SMOOTH",
"614 404 OFFCURVE",
"619 412 OFFCURVE",
"627 423 CURVE SMOOTH",
"636 434 OFFCURVE",
"640 440 OFFCURVE",
"640 441 CURVE SMOOTH",
"640 448 OFFCURVE",
"638 451 OFFCURVE",
"633 451 CURVE",
"592 434 LINE",
"579 427 OFFCURVE",
"572 417 OFFCURVE",
"572 406 CURVE SMOOTH",
"572 393 OFFCURVE",
"580 386 OFFCURVE",
"595 386 CURVE SMOOTH"
);
}
);
width = 686;
}
);
unicode = 01C8;
},
{
color = 11;
glyphname = Lslash;
lastChange = "2021-10-11 21:59:10 +0000";
layers = (
{
layerId = "CE757C0C-4E55-453C-A2E3-610759FCFE83";
paths = (
{
closed = 1;
nodes = (
"248 -32 OFFCURVE",
"302 -25 OFFCURVE",
"364 -12 CURVE SMOOTH",
"427 1 OFFCURVE",
"479 17 OFFCURVE",
"522 36 CURVE SMOOTH",
"553 50 OFFCURVE",
"568 66 OFFCURVE",
"568 84 CURVE SMOOTH",
"568 89 OFFCURVE",
"566 91 OFFCURVE",
"562 91 CURVE SMOOTH",
"557 91 OFFCURVE",
"545 86 OFFCURVE",
"526 75 CURVE SMOOTH",
"485 51 LINE",
"414 15 OFFCURVE",
"345 -3 OFFCURVE",
"278 -3 CURVE SMOOTH",
"162 -3 OFFCURVE",
"104 55 OFFCURVE",
"104 170 CURVE SMOOTH",
"104 200 OFFCURVE",
"108 232 OFFCURVE",
"115 265 CURVE SMOOTH",
"158 462 LINE SMOOTH",
"169 514 OFFCURVE",
"175 543 OFFCURVE",
"175 549 CURVE SMOOTH",
"175 565 OFFCURVE",
"170 573 OFFCURVE",
"161 573 CURVE SMOOTH",
"144 573 OFFCURVE",
"128 553 OFFCURVE",
"111 513 CURVE SMOOTH",
"100 487 OFFCURVE",
"92 460 OFFCURVE",
"86 432 CURVE",
"87 429 OFFCURVE",
"90 427 OFFCURVE",
"93 427 CURVE SMOOTH",
"96 427 OFFCURVE",
"103 429 OFFCURVE",
"106 429 CURVE SMOOTH",
"107 429 OFFCURVE",
"108 429 OFFCURVE",
"109 428 CURVE",
"110 422 LINE SMOOTH",
"111 399 OFFCURVE",
"102 346 OFFCURVE",
"83 262 CURVE SMOOTH",
"71 208 OFFCURVE",
"65 161 OFFCURVE",
"65 122 CURVE SMOOTH",
"65 19 OFFCURVE",
"110 -32 OFFCURVE",
"201 -32 CURVE SMOOTH"
);
},
{
closed = 1;
nodes = (
"-6 117 OFFCURVE",
"8 121 OFFCURVE",
"24 126 CURVE SMOOTH",
"49 134 OFFCURVE",
"91 152 OFFCURVE",
"152 180 CURVE SMOOTH",
"198 202 OFFCURVE",
"221 214 OFFCURVE",
"220 219 CURVE SMOOTH",
"219 221 LINE",
"218 221 OFFCURVE",
"218 222 OFFCURVE",
"217 224 CURVE",
"116 192 LINE SMOOTH",
"99 186 OFFCURVE",
"78 179 OFFCURVE",
"53 172 CURVE SMOOTH",
"15 160 LINE SMOOTH",
"-6 153 OFFCURVE",
"-17 143 OFFCURVE",
"-17 128 CURVE SMOOTH",
"-17 125 OFFCURVE",
"-16 121 OFFCURVE",
"-15 118 CURVE"
);
}
);
width = 524;
},
{
associatedMasterId = "CE757C0C-4E55-453C-A2E3-610759FCFE83";
components = (
{
name = L;
},
{
name = hyphen;
transform = "{0.95106, 0.30902, -0.30902, 0.95106, 257, -36}";
}
);
layerId = "D8E98E05-6F99-4174-A799-9070338AE5B4";
name = Regular;
width = 483;
}
);
note = Lslash;
unicode = 0141;
},
{
color = 5;
glyphname = M;
lastChange = "2021-10-11 21:59:08 +0000";
layers = (
{
layerId = "CE757C0C-4E55-453C-A2E3-610759FCFE83";
paths = (
{
closed = 1;
nodes = (
"718 0 OFFCURVE",
"727 4 OFFCURVE",
"734 13 CURVE SMOOTH",
"754 36 OFFCURVE",
"764 49 OFFCURVE",
"764 53 CURVE",
"761 56 LINE",
"758 56 OFFCURVE",
"744 47 OFFCURVE",
"737 47 CURVE SMOOTH",
"714 47 OFFCURVE",
"692 79 OFFCURVE",
"672 142 CURVE SMOOTH",
"660 180 OFFCURVE",
"651 220 OFFCURVE",
"644 262 CURVE SMOOTH",
"633 331 OFFCURVE",
"628 397 OFFCURVE",
"628 458 CURVE SMOOTH",
"628 475 LINE",
"634 482 OFFCURVE",
"637 496 OFFCURVE",
"637 515 CURVE SMOOTH",
"637 548 OFFCURVE",
"628 565 OFFCURVE",
"611 565 CURVE SMOOTH",
"590 565 OFFCURVE",
"580 549 OFFCURVE",
"580 516 CURVE",
"587 451 LINE",
"568 395 OFFCURVE",
"535 325 OFFCURVE",
"488 241 CURVE SMOOTH",
"429 136 OFFCURVE",
"383 83 OFFCURVE",
"351 83 CURVE SMOOTH",
"305 83 OFFCURVE",
"269 136 OFFCURVE",
"243 243 CURVE SMOOTH",
"228 305 OFFCURVE",
"218 378 OFFCURVE",
"213 462 CURVE SMOOTH",
"208 544 LINE",
"189 541 OFFCURVE",
"179 512 OFFCURVE",
"179 455 CURVE SMOOTH",
"179 381 OFFCURVE",
"190 299 OFFCURVE",
"211 208 CURVE SMOOTH",
"239 89 OFFCURVE",
"276 29 OFFCURVE",
"321 29 CURVE SMOOTH",
"360 29 OFFCURVE",
"412 82 OFFCURVE",
"477 189 CURVE SMOOTH",
"516 252 OFFCURVE",
"554 325 OFFCURVE",
"592 408 CURVE",
"623 136 OFFCURVE",
"662 0 OFFCURVE",
"709 0 CURVE SMOOTH"
);
},
{
closed = 1;
nodes = (
"61 -24 OFFCURVE",
"67 -18 OFFCURVE",
"67 -6 CURVE SMOOTH",
"67 1 OFFCURVE",
"64 15 OFFCURVE",
"59 37 CURVE SMOOTH",
"54 59 OFFCURVE",
"51 76 OFFCURVE",
"51 87 CURVE SMOOTH",
"51 152 OFFCURVE",
"66 231 OFFCURVE",
"97 325 CURVE SMOOTH",
"113 373 OFFCURVE",
"142 450 OFFCURVE",
"184 555 CURVE",
"183 562 OFFCURVE",
"180 565 OFFCURVE",
"175 565 CURVE SMOOTH",
"165 565 OFFCURVE",
"156 556 OFFCURVE",
"149 537 CURVE SMOOTH",
"134 497 OFFCURVE",
"124 469 OFFCURVE",
"119 454 CURVE SMOOTH",
"56 265 OFFCURVE",
"24 128 OFFCURVE",
"24 43 CURVE SMOOTH",
"24 -2 OFFCURVE",
"32 -24 OFFCURVE",
"48 -24 CURVE SMOOTH"
);
}
);
width = 768;
},
{
associatedMasterId = "CE757C0C-4E55-453C-A2E3-610759FCFE83";
layerId = "D8E98E05-6F99-4174-A799-9070338AE5B4";
name = Regular;
paths = (
{
closed = 1;
nodes = (
"1396 85 OFFCURVE",
"1395 86 OFFCURVE",
"1393 87 CURVE",
"1373 51 LINE SMOOTH",
"1360 28 OFFCURVE",
"1345 16 OFFCURVE",
"1330 16 CURVE SMOOTH",
"1280 16 OFFCURVE",
"1255 114 OFFCURVE",
"1255 309 CURVE SMOOTH",
"1255 340 OFFCURVE",
"1256 369 OFFCURVE",
"1258 395 CURVE",
"1279 436 OFFCURVE",
"1296 466 OFFCURVE",
"1307 486 CURVE SMOOTH",
"1327 525 OFFCURVE",
"1337 557 OFFCURVE",
"1337 581 CURVE SMOOTH",
"1337 603 OFFCURVE",
"1333 622 OFFCURVE",
"1326 639 CURVE SMOOTH",
"1321 648 OFFCURVE",
"1317 655 OFFCURVE",
"1314 659 CURVE",
"1314 666 OFFCURVE",
"1318 674 OFFCURVE",
"1327 683 CURVE SMOOTH",
"1339 696 LINE",
"1339 698 OFFCURVE",
"1339 699 OFFCURVE",
"1338 699 CURVE SMOOTH",
"1334 699 LINE",
"1315 686 OFFCURVE",
"1301 675 OFFCURVE",
"1292 664 CURVE",
"1283 669 OFFCURVE",
"1276 671 OFFCURVE",
"1273 671 CURVE SMOOTH",
"1270 671 OFFCURVE",
"1268 671 OFFCURVE",
"1267 670 CURVE",
"1267 662 LINE",
"1276 655 OFFCURVE",
"1281 652 OFFCURVE",
"1282 652 CURVE",
"1275 639 OFFCURVE",
"1268 627 OFFCURVE",
"1260 615 CURVE",
"1241 574 OFFCURVE",
"1229 492 OFFCURVE",
"1222 371 CURVE",
"1201 334 OFFCURVE",
"1171 292 OFFCURVE",
"1131 246 CURVE SMOOTH",
"1029 129 LINE",
"978 270 OFFCURVE",
"952 394 OFFCURVE",
"952 501 CURVE SMOOTH",
"952 532 OFFCURVE",
"954 563 OFFCURVE",
"958 592 CURVE",
"982 603 OFFCURVE",
"994 615 OFFCURVE",
"994 627 CURVE SMOOTH",
"994 630 OFFCURVE",
"992 632 OFFCURVE",
"988 633 CURVE",
"981 626 OFFCURVE",
"973 620 OFFCURVE",
"964 615 CURVE",
"962 617 LINE",
"965 632 OFFCURVE",
"967 648 OFFCURVE",
"966 667 CURVE",
"963 667 LINE SMOOTH",
"962 667 OFFCURVE",
"961 667 OFFCURVE",
"960 668 CURVE",
"934 644 LINE",
"924 637 LINE",
"916 620 OFFCURVE",
"912 605 OFFCURVE",
"911 594 CURVE",
"779 534 LINE SMOOTH",
"675 486 OFFCURVE",
"589 436 OFFCURVE",
"522 383 CURVE SMOOTH",
"422 304 OFFCURVE",
"372 225 OFFCURVE",
"372 146 CURVE SMOOTH",
"372 101 OFFCURVE",
"406 68 OFFCURVE",
"451 68 CURVE SMOOTH",
"468 68 OFFCURVE",
"485 70 OFFCURVE",
"504 75 CURVE SMOOTH",
"527 82 OFFCURVE",
"542 90 OFFCURVE",
"547 101 CURVE",
"534 101 OFFCURVE",
"500 93 OFFCURVE",
"485 93 CURVE SMOOTH",
"423 93 OFFCURVE",
"392 114 OFFCURVE",
"392 157 CURVE SMOOTH",
"392 214 OFFCURVE",
"443 282 OFFCURVE",
"544 359 CURVE SMOOTH",
"607 408 OFFCURVE",
"683 455 OFFCURVE",
"772 501 CURVE SMOOTH",
"835 534 OFFCURVE",
"879 554 OFFCURVE",
"903 561 CURVE",
"838 262 OFFCURVE",
"711 40 OFFCURVE",
"520 -105 CURVE SMOOTH",
"447 -161 OFFCURVE",
"375 -189 OFFCURVE",
"305 -189 CURVE SMOOTH",
"228 -189 OFFCURVE",
"167 -156 OFFCURVE",
"120 -90 CURVE SMOOTH",
"79 -31 OFFCURVE",
"58 38 OFFCURVE",
"58 118 CURVE SMOOTH",
"58 243 OFFCURVE",
"104 346 OFFCURVE",
"197 429 CURVE SMOOTH",
"236 464 OFFCURVE",
"289 481 OFFCURVE",
"357 481 CURVE SMOOTH",
"368 481 OFFCURVE",
"389 477 OFFCURVE",
"421 469 CURVE",
"410 484 OFFCURVE",
"389 493 OFFCURVE",
"359 498 CURVE",
"365 504 LINE",
"364 507 OFFCURVE",
"360 509 OFFCURVE",
"355 509 CURVE SMOOTH",
"306 509 OFFCURVE",
"251 486 OFFCURVE",
"189 441 CURVE SMOOTH",
"75 358 OFFCURVE",
"18 246 OFFCURVE",
"18 105 CURVE SMOOTH",
"18 79 OFFCURVE",
"19 55 OFFCURVE",
"22 33 CURVE SMOOTH",
"31 -39 OFFCURVE",
"62 -98 OFFCURVE",
"114 -143 CURVE SMOOTH",
"167 -189 OFFCURVE",
"229 -212 OFFCURVE",
"302 -212 CURVE SMOOTH",
"340 -212 OFFCURVE",
"375 -205 OFFCURVE",
"407 -192 CURVE SMOOTH",
"515 -147 OFFCURVE",
"604 -86 OFFCURVE",
"674 -11 CURVE SMOOTH",
"742 63 OFFCURVE",
"797 155 OFFCURVE",
"839 266 CURVE SMOOTH",
"878 371 OFFCURVE",
"904 444 OFFCURVE",
"918 485 CURVE",
"923 392 OFFCURVE",
"938 302 OFFCURVE",
"963 214 CURVE SMOOTH",
"1005 70 LINE",
"1005 51 OFFCURVE",
"1013 41 OFFCURVE",
"1030 41 CURVE SMOOTH",
"1038 41 OFFCURVE",
"1050 57 OFFCURVE",
"1050 65 CURVE SMOOTH",
"1050 69 OFFCURVE",
"1040 92 OFFCURVE",
"1040 95 CURVE SMOOTH",
"1040 106 OFFCURVE",
"1058 134 OFFCURVE",
"1095 181 CURVE SMOOTH",
"1164 268 OFFCURVE",
"1206 324 OFFCURVE",
"1221 347 CURVE",
"1220 340 OFFCURVE",
"1220 334 OFFCURVE",
"1220 331 CURVE SMOOTH",
"1220 96 OFFCURVE",
"1253 -21 OFFCURVE",
"1318 -21 CURVE SMOOTH",
"1336 -21 OFFCURVE",
"1354 -8 OFFCURVE",
"1371 19 CURVE SMOOTH",
"1388 43 OFFCURVE",
"1396 65 OFFCURVE",
"1396 84 CURVE SMOOTH"
);
},
{
closed = 1;
nodes = (
"1312 547 OFFCURVE",
"1297 496 OFFCURVE",
"1268 446 CURVE",
"1268 448 LINE SMOOTH",
"1268 460 OFFCURVE",
"1279 520 OFFCURVE",
"1301 627 CURVE",
"1308 623 OFFCURVE",
"1312 613 OFFCURVE",
"1312 598 CURVE SMOOTH"
);
}
);
width = 1397;
}
);
note = M;
unicode = 004D;
},
{
color = 5;
glyphname = N;
lastChange = "2021-10-11 21:59:08 +0000";
layers = (
{
layerId = "CE757C0C-4E55-453C-A2E3-610759FCFE83";
paths = (
{
closed = 1;
nodes = (
"115 -136 OFFCURVE",
"143 -114 OFFCURVE",
"143 -98 CURVE SMOOTH",
"143 -95 OFFCURVE",
"142 -94 OFFCURVE",
"140 -94 CURVE SMOOTH",
"137 -94 OFFCURVE",
"123 -104 OFFCURVE",
"115 -104 CURVE SMOOTH",
"78 -104 OFFCURVE",
"59 -56 OFFCURVE",
"59 41 CURVE SMOOTH",
"59 242 OFFCURVE",
"97 275 OFFCURVE",
"154 466 CURVE",
"191 367 OFFCURVE",
"212 310 OFFCURVE",
"219 295 CURVE SMOOTH",
"302 104 OFFCURVE",
"378 8 OFFCURVE",
"445 8 CURVE SMOOTH",
"485 8 OFFCURVE",
"516 37 OFFCURVE",
"537 95 CURVE SMOOTH",
"552 137 OFFCURVE",
"560 183 OFFCURVE",
"560 232 CURVE SMOOTH",
"560 268 OFFCURVE",
"557 308 OFFCURVE",
"550 353 CURVE SMOOTH",
"541 411 OFFCURVE",
"530 448 OFFCURVE",
"516 465 CURVE",
"521 460 OFFCURVE",
"528 457 OFFCURVE",
"535 457 CURVE SMOOTH",
"552 457 OFFCURVE",
"572 473 OFFCURVE",
"572 490 CURVE SMOOTH",
"572 495 OFFCURVE",
"570 498 OFFCURVE",
"567 498 CURVE SMOOTH",
"566 498 OFFCURVE",
"565 498 OFFCURVE",
"564 497 CURVE",
"559 488 OFFCURVE",
"552 483 OFFCURVE",
"544 483 CURVE SMOOTH",
"533 483 OFFCURVE",
"521 495 OFFCURVE",
"508 520 CURVE SMOOTH",
"482 569 LINE",
"481 570 OFFCURVE",
"478 571 OFFCURVE",
"475 571 CURVE SMOOTH",
"458 571 OFFCURVE",
"449 564 OFFCURVE",
"449 549 CURVE SMOOTH",
"449 547 OFFCURVE",
"450 544 OFFCURVE",
"451 541 CURVE",
"510 435 OFFCURVE",
"540 328 OFFCURVE",
"540 220 CURVE SMOOTH",
"540 111 OFFCURVE",
"512 57 OFFCURVE",
"457 57 CURVE SMOOTH",
"408 57 OFFCURVE",
"349 129 OFFCURVE",
"280 272 CURVE SMOOTH",
"222 392 OFFCURVE",
"185 490 OFFCURVE",
"170 566 CURVE",
"169 568 OFFCURVE",
"168 569 OFFCURVE",
"165 569 CURVE SMOOTH",
"156 569 OFFCURVE",
"147 562 OFFCURVE",
"136 549 CURVE SMOOTH",
"125 536 OFFCURVE",
"120 526 OFFCURVE",
"120 517 CURVE SMOOTH",
"120 510 OFFCURVE",
"130 496 OFFCURVE",
"129 492 CURVE SMOOTH",
"102 353 OFFCURVE",
"25 141 OFFCURVE",
"25 10 CURVE SMOOTH",
"25 -87 OFFCURVE",
"49 -136 OFFCURVE",
"98 -136 CURVE SMOOTH"
);
}
);
width = 599;
},
{
associatedMasterId = "CE757C0C-4E55-453C-A2E3-610759FCFE83";
layerId = "D8E98E05-6F99-4174-A799-9070338AE5B4";
name = Regular;
paths = (
{
closed = 1;
nodes = (
"866 726 OFFCURVE",
"865 728 OFFCURVE",
"862 728 CURVE SMOOTH",
"858 728 OFFCURVE",
"841 709 OFFCURVE",
"830 709 CURVE SMOOTH",
"816 709 OFFCURVE",
"804 724 OFFCURVE",
"795 753 CURVE SMOOTH",
"786 780 OFFCURVE",
"780 801 OFFCURVE",
"777 815 CURVE",
"775 816 OFFCURVE",
"772 817 OFFCURVE",
"769 817 CURVE SMOOTH",
"753 817 OFFCURVE",
"730 802 OFFCURVE",
"730 786 CURVE SMOOTH",
"730 746 OFFCURVE",
"737 686 OFFCURVE",
"752 607 CURVE SMOOTH",
"767 528 OFFCURVE",
"774 469 OFFCURVE",
"774 429 CURVE SMOOTH",
"774 396 OFFCURVE",
"774 380 OFFCURVE",
"774 380 CURVE",
"771 310 OFFCURVE",
"757 239 OFFCURVE",
"731 168 CURVE SMOOTH",
"697 75 OFFCURVE",
"653 28 OFFCURVE",
"598 28 CURVE SMOOTH",
"548 28 OFFCURVE",
"504 104 OFFCURVE",
"466 257 CURVE SMOOTH",
"438 372 OFFCURVE",
"422 473 OFFCURVE",
"419 562 CURVE",
"446 563 OFFCURVE",
"469 564 OFFCURVE",
"489 566 CURVE SMOOTH",
"517 568 OFFCURVE",
"531 571 OFFCURVE",
"531 575 CURVE SMOOTH",
"531 576 OFFCURVE",
"514 578 OFFCURVE",
"480 580 CURVE SMOOTH",
"446 583 OFFCURVE",
"427 584 OFFCURVE",
"422 584 CURVE SMOOTH",
"416 584 LINE",
"422 599 OFFCURVE",
"425 606 OFFCURVE",
"426 607 CURVE",
"426 608 OFFCURVE",
"425 609 OFFCURVE",
"423 609 CURVE SMOOTH",
"404 609 OFFCURVE",
"387 601 OFFCURVE",
"374 585 CURVE",
"370 585 LINE SMOOTH",
"359 585 OFFCURVE",
"342 585 OFFCURVE",
"319 586 CURVE SMOOTH",
"296 587 OFFCURVE",
"279 588 OFFCURVE",
"268 588 CURVE SMOOTH",
"133 588 OFFCURVE",
"65 557 OFFCURVE",
"65 495 CURVE SMOOTH",
"65 454 OFFCURVE",
"97 401 OFFCURVE",
"161 336 CURVE SMOOTH",
"162 335 OFFCURVE",
"164 334 OFFCURVE",
"165 334 CURVE SMOOTH",
"171 334 OFFCURVE",
"174 336 OFFCURVE",
"174 340 CURVE",
"122 401 OFFCURVE",
"96 450 OFFCURVE",
"96 487 CURVE SMOOTH",
"96 518 OFFCURVE",
"137 539 OFFCURVE",
"218 550 CURVE SMOOTH",
"249 554 OFFCURVE",
"302 558 OFFCURVE",
"377 561 CURVE",
"342 435 OFFCURVE",
"313 341 OFFCURVE",
"290 279 CURVE SMOOTH",
"253 180 OFFCURVE",
"210 91 OFFCURVE",
"161 14 CURVE SMOOTH",
"140 -20 OFFCURVE",
"110 -58 OFFCURVE",
"71 -101 CURVE SMOOTH",
"21 -156 OFFCURVE",
"-15 -183 OFFCURVE",
"-38 -183 CURVE SMOOTH",
"-51 -183 OFFCURVE",
"-57 -159 OFFCURVE",
"-60 -158 CURVE",
"-64 -160 OFFCURVE",
"-66 -167 OFFCURVE",
"-66 -180 CURVE SMOOTH",
"-66 -207 OFFCURVE",
"-56 -220 OFFCURVE",
"-37 -220 CURVE SMOOTH",
"-9 -220 OFFCURVE",
"31 -192 OFFCURVE",
"82 -136 CURVE SMOOTH",
"122 -91 OFFCURVE",
"153 -50 OFFCURVE",
"176 -13 CURVE SMOOTH",
"250 110 OFFCURVE",
"318 276 OFFCURVE",
"381 485 CURVE",
"391 425 OFFCURVE",
"404 358 OFFCURVE",
"419 285 CURVE SMOOTH",
"460 82 OFFCURVE",
"517 -19 OFFCURVE",
"588 -19 CURVE SMOOTH",
"653 -19 OFFCURVE",
"707 35 OFFCURVE",
"750 144 CURVE SMOOTH",
"781 223 OFFCURVE",
"800 306 OFFCURVE",
"805 392 CURVE SMOOTH",
"808 424 OFFCURVE",
"809 458 OFFCURVE",
"809 493 CURVE SMOOTH",
"809 600 OFFCURVE",
"802 665 OFFCURVE",
"788 687 CURVE SMOOTH",
"793 680 OFFCURVE",
"801 677 OFFCURVE",
"810 677 CURVE SMOOTH",
"831 677 OFFCURVE",
"866 701 OFFCURVE",
"866 722 CURVE SMOOTH"
);
}
);
width = 828;
}
);
note = N;
unicode = 004E;
},
{
color = 5;
glyphname = NJ;
lastChange = "2021-10-11 21:59:08 +0000";
layers = (
{
layerId = "CE757C0C-4E55-453C-A2E3-610759FCFE83";
paths = (
{
closed = 1;
nodes = (
"115 -136 OFFCURVE",
"143 -114 OFFCURVE",
"143 -98 CURVE SMOOTH",
"143 -95 OFFCURVE",
"142 -94 OFFCURVE",
"140 -94 CURVE SMOOTH",
"137 -94 OFFCURVE",
"123 -104 OFFCURVE",
"115 -104 CURVE SMOOTH",
"78 -104 OFFCURVE",
"59 -56 OFFCURVE",
"59 41 CURVE SMOOTH",
"59 242 OFFCURVE",
"97 275 OFFCURVE",
"154 466 CURVE",
"191 367 OFFCURVE",
"212 310 OFFCURVE",
"219 295 CURVE SMOOTH",
"302 104 OFFCURVE",
"378 8 OFFCURVE",
"445 8 CURVE SMOOTH",
"485 8 OFFCURVE",
"516 37 OFFCURVE",
"537 95 CURVE SMOOTH",
"552 137 OFFCURVE",
"560 183 OFFCURVE",
"560 232 CURVE SMOOTH",
"560 268 OFFCURVE",
"557 308 OFFCURVE",
"550 353 CURVE SMOOTH",
"541 411 OFFCURVE",
"530 448 OFFCURVE",
"516 465 CURVE",
"521 460 OFFCURVE",
"528 457 OFFCURVE",
"535 457 CURVE SMOOTH",
"552 457 OFFCURVE",
"572 473 OFFCURVE",
"572 490 CURVE SMOOTH",
"572 495 OFFCURVE",
"570 498 OFFCURVE",
"567 498 CURVE SMOOTH",
"566 498 OFFCURVE",
"565 498 OFFCURVE",
"564 497 CURVE",
"559 488 OFFCURVE",
"552 483 OFFCURVE",
"544 483 CURVE SMOOTH",
"533 483 OFFCURVE",
"521 495 OFFCURVE",
"508 520 CURVE SMOOTH",
"482 569 LINE",
"481 570 OFFCURVE",
"478 571 OFFCURVE",
"475 571 CURVE SMOOTH",
"458 571 OFFCURVE",
"449 564 OFFCURVE",
"449 549 CURVE SMOOTH",
"449 547 OFFCURVE",
"450 544 OFFCURVE",
"451 541 CURVE",
"510 435 OFFCURVE",
"540 328 OFFCURVE",
"540 220 CURVE SMOOTH",
"540 111 OFFCURVE",
"512 57 OFFCURVE",
"457 57 CURVE SMOOTH",
"408 57 OFFCURVE",
"349 129 OFFCURVE",
"280 272 CURVE SMOOTH",
"222 392 OFFCURVE",
"185 490 OFFCURVE",
"170 566 CURVE",
"169 568 OFFCURVE",
"168 569 OFFCURVE",
"165 569 CURVE SMOOTH",
"156 569 OFFCURVE",
"147 562 OFFCURVE",
"136 549 CURVE SMOOTH",
"125 536 OFFCURVE",
"120 526 OFFCURVE",
"120 517 CURVE SMOOTH",
"120 510 OFFCURVE",
"130 496 OFFCURVE",
"129 492 CURVE SMOOTH",
"102 353 OFFCURVE",
"25 141 OFFCURVE",
"25 10 CURVE SMOOTH",
"25 -87 OFFCURVE",
"49 -136 OFFCURVE",
"98 -136 CURVE SMOOTH"
);
},
{
closed = 1;
nodes = (
"830 -152 OFFCURVE",
"903 19 OFFCURVE",
"903 361 CURVE SMOOTH",
"903 398 OFFCURVE",
"902 437 OFFCURVE",
"900 476 CURVE SMOOTH",
"899 506 OFFCURVE",
"898 524 OFFCURVE",
"897 530 CURVE",
"945 531 OFFCURVE",
"981 532 OFFCURVE",
"1006 532 CURVE",
"1012 533 OFFCURVE",
"1023 536 OFFCURVE",
"1040 543 CURVE SMOOTH",
"1057 550 OFFCURVE",
"1066 556 OFFCURVE",
"1066 559 CURVE SMOOTH",
"1066 560 OFFCURVE",
"1065 560 OFFCURVE",
"1064 561 CURVE",
"1061 560 LINE",
"968 558 OFFCURVE",
"914 557 OFFCURVE",
"898 556 CURVE",
"898 560 OFFCURVE",
"900 572 OFFCURVE",
"900 576 CURVE SMOOTH",
"900 579 OFFCURVE",
"899 580 OFFCURVE",
"896 580 CURVE SMOOTH",
"877 580 OFFCURVE",
"864 572 OFFCURVE",
"857 557 CURVE",
"731 557 LINE",
"719 554 OFFCURVE",
"704 537 OFFCURVE",
"704 525 CURVE SMOOTH",
"704 522 OFFCURVE",
"705 521 OFFCURVE",
"708 521 CURVE SMOOTH",
"724 521 OFFCURVE",
"748 522 OFFCURVE",
"780 524 CURVE SMOOTH",
"812 527 OFFCURVE",
"836 528 OFFCURVE",
"852 528 CURVE",
"857 477 OFFCURVE",
"859 417 OFFCURVE",
"859 348 CURVE SMOOTH",
"859 31 OFFCURVE",
"812 -127 OFFCURVE",
"719 -127 CURVE SMOOTH",
"694 -127 OFFCURVE",
"663 -110 OFFCURVE",
"627 -76 CURVE SMOOTH",
"600 -51 OFFCURVE",
"577 -23 OFFCURVE",
"557 8 CURVE",
"551 10 OFFCURVE",
"548 5 OFFCURVE",
"548 -8 CURVE SMOOTH",
"548 -12 LINE",
"560 -42 OFFCURVE",
"578 -71 OFFCURVE",
"602 -99 CURVE SMOOTH",
"632 -134 OFFCURVE",
"659 -152 OFFCURVE",
"683 -152 CURVE SMOOTH"
);
}
);
width = 969;
}
);
unicode = 01CA;
},
{
color = 5;
glyphname = Eng;
lastChange = "2021-10-11 21:59:10 +0000";
layers = (
{
layerId = "CE757C0C-4E55-453C-A2E3-610759FCFE83";
paths = (
{
closed = 1;
nodes = (
"459 -373 OFFCURVE",
"508 -344 OFFCURVE",
"555 -259 CURVE SMOOTH",
"587 -200 OFFCURVE",
"602 -55 OFFCURVE",
"602 92 CURVE SMOOTH",
"602 248 OFFCURVE",
"585 407 OFFCURVE",
"558 465 CURVE",
"563 460 OFFCURVE",
"569 457 OFFCURVE",
"576 457 CURVE SMOOTH",
"593 457 OFFCURVE",
"615 473 OFFCURVE",
"616 490 CURVE SMOOTH",
"616 495 OFFCURVE",
"614 498 OFFCURVE",
"611 498 CURVE SMOOTH",
"610 498 OFFCURVE",
"609 498 OFFCURVE",
"608 497 CURVE",
"603 488 OFFCURVE",
"595 483 OFFCURVE",
"587 483 CURVE SMOOTH",
"576 483 OFFCURVE",
"566 495 OFFCURVE",
"554 520 CURVE SMOOTH",
"531 569 LINE",
"530 570 OFFCURVE",
"527 571 OFFCURVE",
"524 571 CURVE SMOOTH",
"507 571 OFFCURVE",
"498 564 OFFCURVE",
"497 549 CURVE SMOOTH",
"497 547 OFFCURVE",
"497 544 OFFCURVE",
"498 541 CURVE SMOOTH",
"528 456 OFFCURVE",
"559 322 OFFCURVE",
"559 217 CURVE SMOOTH",
"559 126 OFFCURVE",
"536 57 OFFCURVE",
"470 57 CURVE SMOOTH",
"421 57 OFFCURVE",
"368 129 OFFCURVE",
"308 272 CURVE SMOOTH",
"259 392 OFFCURVE",
"229 490 OFFCURVE",
"219 566 CURVE",
"218 568 OFFCURVE",
"217 569 OFFCURVE",
"214 569 CURVE SMOOTH",
"205 569 OFFCURVE",
"196 562 OFFCURVE",
"184 549 CURVE SMOOTH",
"171 535 OFFCURVE",
"166 525 OFFCURVE",
"166 516 CURVE SMOOTH",
"166 509 OFFCURVE",
"174 496 OFFCURVE",
"173 492 CURVE SMOOTH",
"131 355 OFFCURVE",
"64 119 OFFCURVE",
"64 40 CURVE SMOOTH",
"64 -13 OFFCURVE",
"85 -40 OFFCURVE",
"128 -40 CURVE SMOOTH",
"145 -40 OFFCURVE",
"175 -24 OFFCURVE",
"176 -12 CURVE SMOOTH",
"176 -10 OFFCURVE",
"175 -10 OFFCURVE",
"173 -10 CURVE SMOOTH",
"170 -10 OFFCURVE",
"155 -17 OFFCURVE",
"147 -17 CURVE SMOOTH",
"115 -17 OFFCURVE",
"100 9 OFFCURVE",
"100 60 CURVE SMOOTH",
"100 127 OFFCURVE",
"160 396 OFFCURVE",
"196 466 CURVE",
"226 367 OFFCURVE",
"243 310 OFFCURVE",
"249 295 CURVE SMOOTH",
"319 104 OFFCURVE",
"388 8 OFFCURVE",
"455 8 CURVE SMOOTH",
"508 8 OFFCURVE",
"540 58 OFFCURVE",
"562 117 CURVE",
"563 -8 OFFCURVE",
"556 -346 OFFCURVE",
"429 -346 CURVE SMOOTH",
"390 -346 OFFCURVE",
"360 -321 OFFCURVE",
"340 -270 CURVE",
"335 -263 LINE",
"333 -264 OFFCURVE",
"331 -268 OFFCURVE",
"331 -277 CURVE SMOOTH",
"331 -298 OFFCURVE",
"339 -319 OFFCURVE",
"357 -340 CURVE SMOOTH",
"375 -362 OFFCURVE",
"395 -373 OFFCURVE",
"417 -373 CURVE SMOOTH"
);
}
);
width = 651;
}
);
unicode = 014A;
},
{
color = 5;
glyphname = Nj;
lastChange = "2021-10-11 21:59:08 +0000";
layers = (
{
layerId = "CE757C0C-4E55-453C-A2E3-610759FCFE83";
paths = (
{
closed = 1;
nodes = (
"115 -136 OFFCURVE",
"143 -114 OFFCURVE",
"143 -98 CURVE SMOOTH",
"143 -95 OFFCURVE",
"142 -94 OFFCURVE",
"140 -94 CURVE SMOOTH",
"137 -94 OFFCURVE",
"123 -104 OFFCURVE",
"115 -104 CURVE SMOOTH",
"78 -104 OFFCURVE",
"59 -56 OFFCURVE",
"59 41 CURVE SMOOTH",
"59 242 OFFCURVE",
"97 275 OFFCURVE",
"154 466 CURVE",
"191 367 OFFCURVE",
"212 310 OFFCURVE",
"219 295 CURVE SMOOTH",
"302 104 OFFCURVE",
"378 8 OFFCURVE",
"445 8 CURVE SMOOTH",
"485 8 OFFCURVE",
"516 37 OFFCURVE",
"537 95 CURVE SMOOTH",
"552 137 OFFCURVE",
"560 183 OFFCURVE",
"560 232 CURVE SMOOTH",
"560 268 OFFCURVE",
"557 308 OFFCURVE",
"550 353 CURVE SMOOTH",
"541 411 OFFCURVE",
"530 448 OFFCURVE",
"516 465 CURVE",
"521 460 OFFCURVE",
"528 457 OFFCURVE",
"535 457 CURVE SMOOTH",
"552 457 OFFCURVE",
"572 473 OFFCURVE",
"572 490 CURVE SMOOTH",
"572 495 OFFCURVE",
"570 498 OFFCURVE",
"567 498 CURVE SMOOTH",
"566 498 OFFCURVE",
"565 498 OFFCURVE",
"564 497 CURVE",
"559 488 OFFCURVE",
"552 483 OFFCURVE",
"544 483 CURVE SMOOTH",
"533 483 OFFCURVE",
"521 495 OFFCURVE",
"508 520 CURVE SMOOTH",
"482 569 LINE",
"481 570 OFFCURVE",
"478 571 OFFCURVE",
"475 571 CURVE SMOOTH",
"458 571 OFFCURVE",
"449 564 OFFCURVE",
"449 549 CURVE SMOOTH",
"449 547 OFFCURVE",
"450 544 OFFCURVE",
"451 541 CURVE",
"510 435 OFFCURVE",
"540 328 OFFCURVE",
"540 220 CURVE SMOOTH",
"540 111 OFFCURVE",
"512 57 OFFCURVE",
"457 57 CURVE SMOOTH",
"408 57 OFFCURVE",
"349 129 OFFCURVE",
"280 272 CURVE SMOOTH",
"222 392 OFFCURVE",
"185 490 OFFCURVE",
"170 566 CURVE",
"169 568 OFFCURVE",
"168 569 OFFCURVE",
"165 569 CURVE SMOOTH",
"156 569 OFFCURVE",
"147 562 OFFCURVE",
"136 549 CURVE SMOOTH",
"125 536 OFFCURVE",
"120 526 OFFCURVE",
"120 517 CURVE SMOOTH",
"120 510 OFFCURVE",
"130 496 OFFCURVE",
"129 492 CURVE SMOOTH",
"102 353 OFFCURVE",
"25 141 OFFCURVE",
"25 10 CURVE SMOOTH",
"25 -87 OFFCURVE",
"49 -136 OFFCURVE",
"98 -136 CURVE SMOOTH"
);
},
{
closed = 1;
nodes = (
"606 -373 OFFCURVE",
"641 -344 OFFCURVE",
"670 -285 CURVE SMOOTH",
"689 -246 OFFCURVE",
"703 -198 OFFCURVE",
"713 -142 CURVE SMOOTH",
"716 -127 OFFCURVE",
"717 -105 OFFCURVE",
"717 -78 CURVE SMOOTH",
"717 0 OFFCURVE",
"710 101 OFFCURVE",
"696 226 CURVE SMOOTH",
"691 270 OFFCURVE",
"687 292 OFFCURVE",
"682 292 CURVE SMOOTH",
"670 292 OFFCURVE",
"660 285 OFFCURVE",
"651 271 CURVE SMOOTH",
"649 268 OFFCURVE",
"648 263 OFFCURVE",
"648 257 CURVE SMOOTH",
"648 247 OFFCURVE",
"653 239 OFFCURVE",
"663 233 CURVE",
"675 85 LINE SMOOTH",
"679 31 OFFCURVE",
"681 -19 OFFCURVE",
"681 -64 CURVE SMOOTH",
"681 -252 OFFCURVE",
"645 -346 OFFCURVE",
"574 -346 CURVE SMOOTH",
"535 -346 OFFCURVE",
"503 -321 OFFCURVE",
"479 -270 CURVE",
"474 -263 LINE",
"472 -264 OFFCURVE",
"471 -267 OFFCURVE",
"471 -273 CURVE SMOOTH",
"471 -296 OFFCURVE",
"481 -318 OFFCURVE",
"501 -340 CURVE SMOOTH",
"521 -362 OFFCURVE",
"542 -373 OFFCURVE",
"564 -373 CURVE SMOOTH"
);
},
{
closed = 1;
nodes = (
"679 386 OFFCURVE",
"685 390 OFFCURVE",
"688 399 CURVE SMOOTH",
"689 404 OFFCURVE",
"694 412 OFFCURVE",
"702 423 CURVE SMOOTH",
"711 434 OFFCURVE",
"715 440 OFFCURVE",
"715 441 CURVE SMOOTH",
"715 448 OFFCURVE",
"713 451 OFFCURVE",
"708 451 CURVE",
"667 434 LINE",
"654 427 OFFCURVE",
"647 417 OFFCURVE",
"647 406 CURVE SMOOTH",
"647 393 OFFCURVE",
"655 386 OFFCURVE",
"670 386 CURVE SMOOTH"
);
}
);
width = 761;
}
);
unicode = 01CB;
},
{
color = 5;
glyphname = O;
lastChange = "2021-10-11 21:59:08 +0000";
layers = (
{
layerId = "CE757C0C-4E55-453C-A2E3-610759FCFE83";
paths = (
{
closed = 1;
nodes = (
"306 -38 OFFCURVE",
"407 -6 OFFCURVE",
"501 58 CURVE SMOOTH",
"606 129 OFFCURVE",
"659 216 OFFCURVE",
"659 318 CURVE SMOOTH",
"659 385 OFFCURVE",
"634 444 OFFCURVE",
"583 495 CURVE SMOOTH",
"533 546 OFFCURVE",
"474 571 OFFCURVE",
"407 571 CURVE SMOOTH",
"392 571 OFFCURVE",
"376 569 OFFCURVE",
"359 565 CURVE SMOOTH",
"335 560 OFFCURVE",
"323 552 OFFCURVE",
"323 541 CURVE SMOOTH",
"323 537 OFFCURVE",
"325 535 OFFCURVE",
"330 535 CURVE SMOOTH",
"331 535 OFFCURVE",
"340 538 OFFCURVE",
"356 544 CURVE SMOOTH",
"373 551 OFFCURVE",
"386 554 OFFCURVE",
"397 554 CURVE SMOOTH",
"454 554 OFFCURVE",
"505 526 OFFCURVE",
"551 470 CURVE SMOOTH",
"594 417 OFFCURVE",
"616 361 OFFCURVE",
"616 303 CURVE SMOOTH",
"616 222 OFFCURVE",
"571 150 OFFCURVE",
"480 87 CURVE SMOOTH",
"397 29 OFFCURVE",
"314 0 OFFCURVE",
"229 0 CURVE SMOOTH",
"121 0 OFFCURVE",
"67 50 OFFCURVE",
"67 151 CURVE SMOOTH",
"67 205 OFFCURVE",
"85 266 OFFCURVE",
"122 333 CURVE SMOOTH",
"160 404 OFFCURVE",
"202 451 OFFCURVE",
"248 472 CURVE SMOOTH",
"283 488 OFFCURVE",
"300 501 OFFCURVE",
"300 510 CURVE SMOOTH",
"300 513 OFFCURVE",
"299 515 OFFCURVE",
"296 516 CURVE",
"220 491 OFFCURVE",
"156 442 OFFCURVE",
"104 369 CURVE SMOOTH",
"52 296 OFFCURVE",
"26 220 OFFCURVE",
"26 139 CURVE SMOOTH",
"26 21 OFFCURVE",
"84 -38 OFFCURVE",
"199 -38 CURVE SMOOTH"
);
}
);
width = 643;
},
{
associatedMasterId = "CE757C0C-4E55-453C-A2E3-610759FCFE83";
layerId = "D8E98E05-6F99-4174-A799-9070338AE5B4";
name = Regular;
paths = (
{
closed = 1;
nodes = (
"922 742 OFFCURVE",
"919 745 OFFCURVE",
"914 745 CURVE SMOOTH",
"911 745 OFFCURVE",
"909 743 OFFCURVE",
"908 739 CURVE SMOOTH",
"897 682 OFFCURVE",
"886 640 OFFCURVE",
"875 614 CURVE",
"832 689 OFFCURVE",
"747 727 OFFCURVE",
"619 727 CURVE SMOOTH",
"565 727 OFFCURVE",
"511 719 OFFCURVE",
"456 704 CURVE SMOOTH",
"353 675 OFFCURVE",
"259 627 OFFCURVE",
"174 560 CURVE SMOOTH",
"69 477 OFFCURVE",
"17 391 OFFCURVE",
"17 302 CURVE SMOOTH",
"17 264 OFFCURVE",
"26 232 OFFCURVE",
"45 205 CURVE SMOOTH",
"65 176 OFFCURVE",
"93 159 OFFCURVE",
"129 153 CURVE",
"125 132 OFFCURVE",
"123 113 OFFCURVE",
"123 95 CURVE SMOOTH",
"123 -3 OFFCURVE",
"172 -52 OFFCURVE",
"269 -52 CURVE SMOOTH",
"292 -52 OFFCURVE",
"318 -49 OFFCURVE",
"345 -42 CURVE SMOOTH",
"451 -17 OFFCURVE",
"551 29 OFFCURVE",
"644 98 CURVE SMOOTH",
"741 171 OFFCURVE",
"812 255 OFFCURVE",
"856 349 CURVE SMOOTH",
"885 409 OFFCURVE",
"899 465 OFFCURVE",
"899 516 CURVE SMOOTH",
"899 544 OFFCURVE",
"894 569 OFFCURVE",
"885 592 CURVE",
"910 658 OFFCURVE",
"922 706 OFFCURVE",
"922 736 CURVE SMOOTH"
);
},
{
closed = 1;
nodes = (
"798 451 OFFCURVE",
"704 354 OFFCURVE",
"573 282 CURVE SMOOTH",
"452 215 OFFCURVE",
"320 180 OFFCURVE",
"178 177 CURVE",
"185 212 OFFCURVE",
"199 251 OFFCURVE",
"218 294 CURVE SMOOTH",
"249 365 OFFCURVE",
"291 430 OFFCURVE",
"342 488 CURVE SMOOTH",
"393 546 OFFCURVE",
"434 575 OFFCURVE",
"464 575 CURVE SMOOTH",
"483 575 OFFCURVE",
"493 559 OFFCURVE",
"493 527 CURVE SMOOTH",
"493 516 OFFCURVE",
"489 492 OFFCURVE",
"489 483 CURVE SMOOTH",
"489 480 OFFCURVE",
"490 478 OFFCURVE",
"493 478 CURVE SMOOTH",
"506 478 OFFCURVE",
"512 496 OFFCURVE",
"512 533 CURVE SMOOTH",
"512 561 OFFCURVE",
"485 588 OFFCURVE",
"457 588 CURVE SMOOTH",
"423 588 OFFCURVE",
"381 564 OFFCURVE",
"332 515 CURVE SMOOTH",
"239 424 OFFCURVE",
"174 312 OFFCURVE",
"136 179 CURVE",
"80 191 OFFCURVE",
"46 237 OFFCURVE",
"46 294 CURVE SMOOTH",
"46 367 OFFCURVE",
"98 445 OFFCURVE",
"201 528 CURVE SMOOTH",
"348 645 OFFCURVE",
"493 704 OFFCURVE",
"635 704 CURVE SMOOTH",
"762 704 OFFCURVE",
"835 660 OFFCURVE",
"856 572 CURVE"
);
},
{
closed = 1;
nodes = (
"862 527 LINE SMOOTH",
"862 480 OFFCURVE",
"848 428 OFFCURVE",
"821 369 CURVE SMOOTH",
"727 162 OFFCURVE",
"566 33 OFFCURVE",
"338 -19 CURVE SMOOTH",
"323 -22 OFFCURVE",
"309 -24 OFFCURVE",
"296 -24 CURVE SMOOTH",
"215 -24 OFFCURVE",
"170 35 OFFCURVE",
"170 118 CURVE SMOOTH",
"170 127 OFFCURVE",
"171 138 OFFCURVE",
"172 149 CURVE",
"323 158 OFFCURVE",
"457 193 OFFCURVE",
"572 252 CURVE SMOOTH",
"705 320 OFFCURVE",
"801 416 OFFCURVE",
"862 539 CURVE"
);
}
);
width = 864;
}
);
note = O;
unicode = 004F;
},
{
color = 5;
glyphname = Oslash;
lastChange = "2021-10-11 21:59:08 +0000";
layers = (
{
layerId = "CE757C0C-4E55-453C-A2E3-610759FCFE83";
paths = (
{
closed = 1;
nodes = (
"306 -38 OFFCURVE",
"407 -6 OFFCURVE",
"501 58 CURVE SMOOTH",
"606 129 OFFCURVE",
"658 216 OFFCURVE",
"658 319 CURVE SMOOTH",
"658 386 OFFCURVE",
"633 445 OFFCURVE",
"583 495 CURVE SMOOTH",
"533 546 OFFCURVE",
"474 571 OFFCURVE",
"407 571 CURVE SMOOTH",
"391 571 OFFCURVE",
"375 569 OFFCURVE",
"359 565 CURVE SMOOTH",
"335 559 OFFCURVE",
"323 551 OFFCURVE",
"323 541 CURVE SMOOTH",
"323 537 OFFCURVE",
"325 535 OFFCURVE",
"330 535 CURVE SMOOTH",
"332 535 OFFCURVE",
"341 538 OFFCURVE",
"357 544 CURVE SMOOTH",
"373 550 OFFCURVE",
"386 553 OFFCURVE",
"397 553 CURVE SMOOTH",
"454 553 OFFCURVE",
"505 525 OFFCURVE",
"551 470 CURVE SMOOTH",
"595 417 OFFCURVE",
"617 361 OFFCURVE",
"617 303 CURVE SMOOTH",
"617 222 OFFCURVE",
"572 150 OFFCURVE",
"481 87 CURVE SMOOTH",
"398 29 OFFCURVE",
"315 0 OFFCURVE",
"230 0 CURVE SMOOTH",
"130 0 OFFCURVE",
"67 51 OFFCURVE",
"67 150 CURVE SMOOTH",
"67 203 OFFCURVE",
"85 264 OFFCURVE",
"121 333 CURVE SMOOTH",
"160 406 OFFCURVE",
"202 452 OFFCURVE",
"247 473 CURVE SMOOTH",
"282 489 OFFCURVE",
"300 501 OFFCURVE",
"300 510 CURVE SMOOTH",
"300 512 OFFCURVE",
"299 514 OFFCURVE",
"297 516 CURVE",
"221 491 OFFCURVE",
"157 442 OFFCURVE",
"104 369 CURVE SMOOTH",
"52 296 OFFCURVE",
"26 219 OFFCURVE",
"26 139 CURVE SMOOTH",
"26 21 OFFCURVE",
"84 -38 OFFCURVE",
"199 -38 CURVE SMOOTH"
);
}
);
width = 643;
},
{
associatedMasterId = "CE757C0C-4E55-453C-A2E3-610759FCFE83";
layerId = "D8E98E05-6F99-4174-A799-9070338AE5B4";
name = Regular;
paths = (
{
closed = 1;
nodes = (
"697 409 OFFCURVE",
"670 472 OFFCURVE",
"617 525 CURVE SMOOTH",
"564 578 OFFCURVE",
"502 605 OFFCURVE",
"431 605 CURVE SMOOTH",
"414 605 OFFCURVE",
"397 603 OFFCURVE",
"380 599 CURVE SMOOTH",
"355 592 OFFCURVE",
"342 584 OFFCURVE",
"342 573 CURVE SMOOTH",
"342 569 OFFCURVE",
"345 567 OFFCURVE",
"350 567 CURVE SMOOTH",
"352 567 OFFCURVE",
"361 570 OFFCURVE",
"378 576 CURVE SMOOTH",
"395 583 OFFCURVE",
"410 586 OFFCURVE",
"421 586 CURVE SMOOTH",
"481 586 OFFCURVE",
"535 557 OFFCURVE",
"584 498 CURVE SMOOTH",
"631 442 OFFCURVE",
"654 383 OFFCURVE",
"654 321 CURVE SMOOTH",
"654 236 OFFCURVE",
"606 159 OFFCURVE",
"510 92 CURVE SMOOTH",
"422 31 OFFCURVE",
"333 0 OFFCURVE",
"244 0 CURVE SMOOTH",
"191 0 OFFCURVE",
"149 13 OFFCURVE",
"119 39 CURVE SMOOTH",
"87 67 OFFCURVE",
"71 107 OFFCURVE",
"71 159 CURVE SMOOTH",
"71 216 OFFCURVE",
"90 280 OFFCURVE",
"129 353 CURVE SMOOTH",
"170 430 OFFCURVE",
"214 479 OFFCURVE",
"262 501 CURVE SMOOTH",
"299 518 OFFCURVE",
"318 531 OFFCURVE",
"318 540 CURVE SMOOTH",
"318 543 OFFCURVE",
"317 545 OFFCURVE",
"315 547 CURVE",
"234 520 OFFCURVE",
"166 468 OFFCURVE",
"111 391 CURVE SMOOTH",
"56 314 OFFCURVE",
"28 232 OFFCURVE",
"28 147 CURVE SMOOTH",
"28 22 OFFCURVE",
"89 -40 OFFCURVE",
"211 -40 CURVE SMOOTH",
"325 -40 OFFCURVE",
"432 -6 OFFCURVE",
"531 61 CURVE SMOOTH",
"642 137 OFFCURVE",
"697 229 OFFCURVE",
"697 338 CURVE SMOOTH"
);
}
);
width = 681;
}
);
note = Oslash;
unicode = 00D8;
},
{
color = 5;
glyphname = OE;
lastChange = "2021-10-11 21:59:08 +0000";
layers = (
{
layerId = "CE757C0C-4E55-453C-A2E3-610759FCFE83";
paths = (
{
closed = 1;
nodes = (
"269 -38 OFFCURVE",
"341 -22 OFFCURVE",
"414 10 CURVE SMOOTH",
"488 43 OFFCURVE",
"547 85 OFFCURVE",
"590 138 CURVE",
"587 25 OFFCURVE",
"631 -32 OFFCURVE",
"724 -32 CURVE SMOOTH",
"726 -32 LINE SMOOTH",
"773 -32 OFFCURVE",
"829 -25 OFFCURVE",
"892 -12 CURVE SMOOTH",
"955 1 OFFCURVE",
"1008 17 OFFCURVE",
"1051 36 CURVE SMOOTH",
"1081 49 OFFCURVE",
"1096 65 OFFCURVE",
"1096 84 CURVE SMOOTH",
"1096 89 OFFCURVE",
"1094 91 OFFCURVE",
"1089 91 CURVE SMOOTH",
"1092 91 OFFCURVE",
"1067 78 OFFCURVE",
"1014 51 CURVE SMOOTH",
"943 15 OFFCURVE",
"874 -3 OFFCURVE",
"807 -3 CURVE SMOOTH",
"690 -3 OFFCURVE",
"632 55 OFFCURVE",
"632 171 CURVE SMOOTH",
"632 197 OFFCURVE",
"635 214 OFFCURVE",
"640 221 CURVE",
"645 236 OFFCURVE",
"650 250 OFFCURVE",
"653 265 CURVE",
"768 266 OFFCURVE",
"848 270 OFFCURVE",
"893 279 CURVE SMOOTH",
"900 280 OFFCURVE",
"912 284 OFFCURVE",
"931 291 CURVE SMOOTH",
"950 298 OFFCURVE",
"959 302 OFFCURVE",
"959 304 CURVE",
"958 305 OFFCURVE",
"957 305 OFFCURVE",
"956 305 CURVE SMOOTH",
"944 305 OFFCURVE",
"926 304 OFFCURVE",
"901 303 CURVE SMOOTH",
"877 302 OFFCURVE",
"859 302 OFFCURVE",
"847 302 CURVE SMOOTH",
"658 306 LINE",
"658 317 OFFCURVE",
"656 342 OFFCURVE",
"656 353 CURVE",
"658 366 OFFCURVE",
"660 378 OFFCURVE",
"663 391 CURVE SMOOTH",
"674 445 OFFCURVE",
"679 478 OFFCURVE",
"679 491 CURVE",
"680 497 LINE",
"680 510 OFFCURVE",
"676 516 OFFCURVE",
"669 516 CURVE SMOOTH",
"657 516 OFFCURVE",
"643 504 OFFCURVE",
"628 481 CURVE",
"628 466 OFFCURVE",
"628 451 OFFCURVE",
"627 437 CURVE",
"605 476 OFFCURVE",
"574 508 OFFCURVE",
"533 533 CURVE SMOOTH",
"493 558 OFFCURVE",
"451 571 OFFCURVE",
"407 571 CURVE SMOOTH",
"391 571 OFFCURVE",
"375 569 OFFCURVE",
"359 565 CURVE SMOOTH",
"335 559 OFFCURVE",
"323 551 OFFCURVE",
"323 541 CURVE SMOOTH",
"323 537 OFFCURVE",
"325 535 OFFCURVE",
"330 535 CURVE SMOOTH",
"332 535 OFFCURVE",
"341 538 OFFCURVE",
"357 544 CURVE SMOOTH",
"373 550 OFFCURVE",
"386 553 OFFCURVE",
"397 553 CURVE SMOOTH",
"450 553 OFFCURVE",
"500 527 OFFCURVE",
"546 475 CURVE SMOOTH",
"593 423 OFFCURVE",
"616 370 OFFCURVE",
"616 316 CURVE",
"615 310 LINE",
"605 309 OFFCURVE",
"593 305 OFFCURVE",
"578 298 CURVE SMOOTH",
"561 289 OFFCURVE",
"553 281 OFFCURVE",
"553 273 CURVE SMOOTH",
"553 268 OFFCURVE",
"560 266 OFFCURVE",
"573 266 CURVE SMOOTH",
"581 266 OFFCURVE",
"600 263 OFFCURVE",
"608 263 CURVE",
"600 224 LINE",
"594 207 OFFCURVE",
"582 187 OFFCURVE",
"565 165 CURVE SMOOTH",
"528 118 OFFCURVE",
"478 79 OFFCURVE",
"414 47 CURVE SMOOTH",
"351 16 OFFCURVE",
"289 0 OFFCURVE",
"230 0 CURVE SMOOTH",
"130 0 OFFCURVE",
"67 51 OFFCURVE",
"67 150 CURVE SMOOTH",
"67 203 OFFCURVE",
"85 264 OFFCURVE",
"121 333 CURVE SMOOTH",
"160 405 OFFCURVE",
"202 452 OFFCURVE",
"247 473 CURVE SMOOTH",
"282 490 OFFCURVE",
"300 502 OFFCURVE",
"300 510 CURVE SMOOTH",
"300 512 OFFCURVE",
"299 514 OFFCURVE",
"297 516 CURVE",
"221 491 OFFCURVE",
"157 442 OFFCURVE",
"104 369 CURVE SMOOTH",
"52 296 OFFCURVE",
"26 219 OFFCURVE",
"26 139 CURVE SMOOTH",
"26 21 OFFCURVE",
"84 -38 OFFCURVE",
"199 -38 CURVE SMOOTH"
);
},
{
closed = 1;
nodes = (
"628 517 OFFCURVE",
"662 519 OFFCURVE",
"675 519 CURVE SMOOTH",
"690 519 OFFCURVE",
"711 519 OFFCURVE",
"739 518 CURVE SMOOTH",
"768 517 OFFCURVE",
"789 517 OFFCURVE",
"804 517 CURVE SMOOTH",
"920 517 OFFCURVE",
"1002 523 OFFCURVE",
"1049 536 CURVE SMOOTH",
"1064 540 OFFCURVE",
"1072 546 OFFCURVE",
"1075 555 CURVE",
"1039 550 OFFCURVE",
"999 547 OFFCURVE",
"956 547 CURVE SMOOTH",
"922 547 OFFCURVE",
"871 549 OFFCURVE",
"802 554 CURVE SMOOTH",
"734 559 OFFCURVE",
"683 561 OFFCURVE",
"649 561 CURVE SMOOTH",
"629 561 OFFCURVE",
"597 541 OFFCURVE",
"589 522 CURVE",
"590 519 OFFCURVE",
"599 517 OFFCURVE",
"615 517 CURVE SMOOTH"
);
}
);
width = 1104;
},
{
associatedMasterId = "CE757C0C-4E55-453C-A2E3-610759FCFE83";
layerId = "D8E98E05-6F99-4174-A799-9070338AE5B4";
name = Regular;
paths = (
{
closed = 1;
nodes = (
"1101 583 OFFCURVE",
"1059 580 OFFCURVE",
"1013 580 CURVE SMOOTH",
"977 580 OFFCURVE",
"923 582 OFFCURVE",
"850 587 CURVE SMOOTH",
"778 592 OFFCURVE",
"724 594 OFFCURVE",
"688 594 CURVE SMOOTH",
"665 594 OFFCURVE",
"633 573 OFFCURVE",
"624 553 CURVE",
"625 550 OFFCURVE",
"635 548 OFFCURVE",
"652 548 CURVE SMOOTH",
"665 548 OFFCURVE",
"702 550 OFFCURVE",
"715 550 CURVE SMOOTH",
"730 550 OFFCURVE",
"753 550 OFFCURVE",
"783 549 CURVE SMOOTH",
"814 548 OFFCURVE",
"837 548 OFFCURVE",
"852 548 CURVE SMOOTH",
"975 548 OFFCURVE",
"1062 555 OFFCURVE",
"1112 568 CURVE SMOOTH",
"1127 572 OFFCURVE",
"1136 579 OFFCURVE",
"1139 588 CURVE"
);
},
{
closed = 1;
nodes = (
"1161 94 OFFCURVE",
"1159 96 OFFCURVE",
"1154 96 CURVE SMOOTH",
"1157 96 OFFCURVE",
"1130 82 OFFCURVE",
"1074 54 CURVE SMOOTH",
"999 16 OFFCURVE",
"926 -3 OFFCURVE",
"855 -3 CURVE SMOOTH",
"732 -3 OFFCURVE",
"670 58 OFFCURVE",
"670 181 CURVE SMOOTH",
"670 209 OFFCURVE",
"673 227 OFFCURVE",
"678 234 CURVE",
"684 249 OFFCURVE",
"689 265 OFFCURVE",
"692 281 CURVE",
"814 282 OFFCURVE",
"899 287 OFFCURVE",
"946 296 CURVE SMOOTH",
"953 297 OFFCURVE",
"967 301 OFFCURVE",
"986 308 CURVE SMOOTH",
"1006 315 OFFCURVE",
"1016 320 OFFCURVE",
"1016 322 CURVE",
"1015 323 OFFCURVE",
"1014 323 OFFCURVE",
"1013 323 CURVE SMOOTH",
"1000 323 OFFCURVE",
"981 322 OFFCURVE",
"955 321 CURVE SMOOTH",
"930 320 OFFCURVE",
"911 320 OFFCURVE",
"898 320 CURVE SMOOTH",
"697 324 LINE",
"697 336 OFFCURVE",
"695 363 OFFCURVE",
"695 374 CURVE",
"703 414 LINE SMOOTH",
"714 472 OFFCURVE",
"720 507 OFFCURVE",
"720 520 CURVE SMOOTH",
"721 527 LINE SMOOTH",
"721 540 OFFCURVE",
"717 547 OFFCURVE",
"709 547 CURVE SMOOTH",
"696 547 OFFCURVE",
"682 535 OFFCURVE",
"665 510 CURVE",
"665 493 OFFCURVE",
"665 478 OFFCURVE",
"664 463 CURVE",
"641 504 OFFCURVE",
"608 538 OFFCURVE",
"565 565 CURVE SMOOTH",
"522 592 OFFCURVE",
"478 605 OFFCURVE",
"431 605 CURVE SMOOTH",
"414 605 OFFCURVE",
"397 603 OFFCURVE",
"380 599 CURVE SMOOTH",
"355 592 OFFCURVE",
"342 584 OFFCURVE",
"342 573 CURVE SMOOTH",
"342 569 OFFCURVE",
"345 567 OFFCURVE",
"350 567 CURVE SMOOTH",
"352 567 OFFCURVE",
"361 570 OFFCURVE",
"378 576 CURVE SMOOTH",
"395 583 OFFCURVE",
"410 586 OFFCURVE",
"421 586 CURVE SMOOTH",
"477 586 OFFCURVE",
"530 558 OFFCURVE",
"579 503 CURVE SMOOTH",
"628 448 OFFCURVE",
"653 392 OFFCURVE",
"653 335 CURVE",
"652 328 LINE",
"641 327 OFFCURVE",
"628 323 OFFCURVE",
"613 316 CURVE SMOOTH",
"595 307 OFFCURVE",
"586 298 OFFCURVE",
"586 289 CURVE SMOOTH",
"586 284 OFFCURVE",
"593 282 OFFCURVE",
"607 282 CURVE SMOOTH",
"615 282 OFFCURVE",
"636 279 OFFCURVE",
"644 279 CURVE",
"636 237 LINE",
"629 219 OFFCURVE",
"617 198 OFFCURVE",
"599 175 CURVE SMOOTH",
"560 125 OFFCURVE",
"507 83 OFFCURVE",
"439 50 CURVE SMOOTH",
"372 17 OFFCURVE",
"307 0 OFFCURVE",
"244 0 CURVE SMOOTH",
"191 0 OFFCURVE",
"149 13 OFFCURVE",
"119 39 CURVE SMOOTH",
"87 67 OFFCURVE",
"71 107 OFFCURVE",
"71 159 CURVE SMOOTH",
"71 216 OFFCURVE",
"90 280 OFFCURVE",
"129 353 CURVE SMOOTH",
"169 429 OFFCURVE",
"213 478 OFFCURVE",
"262 501 CURVE SMOOTH",
"299 518 OFFCURVE",
"318 531 OFFCURVE",
"318 540 CURVE SMOOTH",
"318 543 OFFCURVE",
"317 545 OFFCURVE",
"315 547 CURVE",
"234 520 OFFCURVE",
"166 468 OFFCURVE",
"111 391 CURVE SMOOTH",
"56 314 OFFCURVE",
"28 232 OFFCURVE",
"28 147 CURVE SMOOTH",
"28 22 OFFCURVE",
"89 -40 OFFCURVE",
"211 -40 CURVE SMOOTH",
"286 -40 OFFCURVE",
"361 -23 OFFCURVE",
"438 10 CURVE SMOOTH",
"517 45 OFFCURVE",
"580 91 OFFCURVE",
"625 146 CURVE",
"622 26 OFFCURVE",
"669 -34 OFFCURVE",
"767 -34 CURVE SMOOTH",
"769 -34 LINE SMOOTH",
"820 -34 OFFCURVE",
"878 -27 OFFCURVE",
"945 -13 CURVE SMOOTH",
"1012 1 OFFCURVE",
"1069 18 OFFCURVE",
"1114 38 CURVE SMOOTH",
"1145 53 OFFCURVE",
"1161 70 OFFCURVE",
"1161 89 CURVE SMOOTH"
);
}
);
width = 1170;
}
);
note = OE;
unicode = 0152;
},
{
color = 5;
glyphname = P;
lastChange = "2021-10-11 21:59:08 +0000";
layers = (
{
layerId = "CE757C0C-4E55-453C-A2E3-610759FCFE83";
paths = (
{
closed = 1;
nodes = (
"149 -24 OFFCURVE",
"160 -22 OFFCURVE",
"171 -17 CURVE SMOOTH",
"185 -11 OFFCURVE",
"192 -4 OFFCURVE",
"192 4 CURVE SMOOTH",
"192 8 LINE",
"182 3 OFFCURVE",
"173 0 OFFCURVE",
"164 0 CURVE SMOOTH",
"121 0 OFFCURVE",
"100 53 OFFCURVE",
"100 158 CURVE SMOOTH",
"100 227 OFFCURVE",
"116 334 OFFCURVE",
"148 478 CURVE SMOOTH",
"152 496 OFFCURVE",
"154 506 OFFCURVE",
"155 507 CURVE",
"160 516 OFFCURVE",
"168 521 OFFCURVE",
"179 521 CURVE SMOOTH",
"221 521 OFFCURVE",
"271 506 OFFCURVE",
"330 477 CURVE SMOOTH",
"397 444 OFFCURVE",
"431 408 OFFCURVE",
"431 371 CURVE SMOOTH",
"431 336 OFFCURVE",
"401 303 OFFCURVE",
"342 273 CURVE SMOOTH",
"322 263 OFFCURVE",
"283 252 OFFCURVE",
"224 239 CURVE SMOOTH",
"171 227 OFFCURVE",
"144 221 OFFCURVE",
"144 220 CURVE SMOOTH",
"144 212 OFFCURVE",
"157 208 OFFCURVE",
"184 208 CURVE SMOOTH",
"200 208 OFFCURVE",
"226 214 OFFCURVE",
"262 226 CURVE SMOOTH",
"313 243 OFFCURVE",
"356 263 OFFCURVE",
"391 288 CURVE SMOOTH",
"442 323 OFFCURVE",
"468 361 OFFCURVE",
"468 400 CURVE SMOOTH",
"468 437 OFFCURVE",
"431 473 OFFCURVE",
"357 510 CURVE SMOOTH",
"291 543 OFFCURVE",
"237 559 OFFCURVE",
"195 559 CURVE SMOOTH",
"148 559 OFFCURVE",
"124 545 OFFCURVE",
"124 516 CURVE SMOOTH",
"124 513 OFFCURVE",
"131 511 OFFCURVE",
"144 509 CURVE",
"133 500 OFFCURVE",
"126 492 OFFCURVE",
"121 484 CURVE",
"109 439 LINE SMOOTH",
"79 311 OFFCURVE",
"64 205 OFFCURVE",
"64 120 CURVE SMOOTH",
"64 24 OFFCURVE",
"89 -24 OFFCURVE",
"139 -24 CURVE SMOOTH"
);
}
);
width = 487;
},
{
associatedMasterId = "CE757C0C-4E55-453C-A2E3-610759FCFE83";
layerId = "D8E98E05-6F99-4174-A799-9070338AE5B4";
name = Regular;
paths = (
{
closed = 1;
nodes = (
"947 529 OFFCURVE",
"908 592 OFFCURVE",
"831 652 CURVE SMOOTH",
"707 747 OFFCURVE",
"561 795 OFFCURVE",
"394 795 CURVE SMOOTH",
"300 795 OFFCURVE",
"216 777 OFFCURVE",
"141 741 CURVE SMOOTH",
"46 695 OFFCURVE",
"-1 630 OFFCURVE",
"-1 546 CURVE SMOOTH",
"-1 491 OFFCURVE",
"17 439 OFFCURVE",
"54 390 CURVE SMOOTH",
"87 345 OFFCURVE",
"130 308 OFFCURVE",
"181 281 CURVE SMOOTH",
"212 264 OFFCURVE",
"233 256 OFFCURVE",
"245 256 CURVE SMOOTH",
"247 256 OFFCURVE",
"249 257 OFFCURVE",
"251 260 CURVE",
"171 288 OFFCURVE",
"113 333 OFFCURVE",
"78 396 CURVE SMOOTH",
"53 441 OFFCURVE",
"40 485 OFFCURVE",
"40 526 CURVE SMOOTH",
"40 606 OFFCURVE",
"81 669 OFFCURVE",
"163 714 CURVE SMOOTH",
"232 752 OFFCURVE",
"309 771 OFFCURVE",
"395 771 CURVE SMOOTH",
"550 771 OFFCURVE",
"687 725 OFFCURVE",
"805 632 CURVE SMOOTH",
"878 575 OFFCURVE",
"914 515 OFFCURVE",
"914 454 CURVE SMOOTH",
"914 393 OFFCURVE",
"876 343 OFFCURVE",
"801 304 CURVE SMOOTH",
"771 289 OFFCURVE",
"732 277 OFFCURVE",
"683 269 CURVE SMOOTH",
"610 257 OFFCURVE",
"570 250 OFFCURVE",
"563 247 CURVE",
"594 404 LINE SMOOTH",
"605 452 OFFCURVE",
"610 479 OFFCURVE",
"610 486 CURVE SMOOTH",
"610 503 OFFCURVE",
"590 527 OFFCURVE",
"573 527 CURVE SMOOTH",
"566 527 OFFCURVE",
"560 523 OFFCURVE",
"555 515 CURVE",
"544 386 OFFCURVE",
"537 310 OFFCURVE",
"534 288 CURVE SMOOTH",
"527 246 OFFCURVE",
"515 193 OFFCURVE",
"498 130 CURVE SMOOTH",
"477 53 OFFCURVE",
"457 5 OFFCURVE",
"440 -15 CURVE",
"367 -18 OFFCURVE",
"309 -25 OFFCURVE",
"266 -36 CURVE",
"259 -16 OFFCURVE",
"255 2 OFFCURVE",
"255 18 CURVE SMOOTH",
"255 29 OFFCURVE",
"263 55 OFFCURVE",
"263 66 CURVE SMOOTH",
"263 68 OFFCURVE",
"262 69 OFFCURVE",
"261 70 CURVE",
"254 70 OFFCURVE",
"249 60 OFFCURVE",
"245 39 CURVE SMOOTH",
"242 24 OFFCURVE",
"241 11 OFFCURVE",
"241 0 CURVE SMOOTH",
"241 -14 OFFCURVE",
"242 -28 OFFCURVE",
"244 -41 CURVE",
"171 -64 LINE SMOOTH",
"143 -73 OFFCURVE",
"122 -86 OFFCURVE",
"107 -103 CURVE SMOOTH",
"103 -108 OFFCURVE",
"101 -112 OFFCURVE",
"101 -116 CURVE SMOOTH",
"101 -117 OFFCURVE",
"102 -118 OFFCURVE",
"103 -119 CURVE",
"106 -117 LINE SMOOTH",
"114 -111 OFFCURVE",
"138 -101 OFFCURVE",
"177 -88 CURVE SMOOTH",
"217 -75 OFFCURVE",
"242 -69 OFFCURVE",
"251 -69 CURVE",
"268 -107 OFFCURVE",
"292 -126 OFFCURVE",
"324 -126 CURVE SMOOTH",
"357 -126 OFFCURVE",
"390 -108 OFFCURVE",
"422 -71 CURVE SMOOTH",
"435 -56 OFFCURVE",
"442 -48 OFFCURVE",
"444 -47 CURVE",
"461 -47 OFFCURVE",
"469 -47 OFFCURVE",
"469 -47 CURVE",
"492 -46 OFFCURVE",
"501 -46 OFFCURVE",
"495 -46 CURVE SMOOTH",
"565 -46 OFFCURVE",
"600 -56 OFFCURVE",
"600 -76 CURVE SMOOTH",
"600 -80 OFFCURVE",
"599 -84 OFFCURVE",
"597 -89 CURVE",
"596 -96 OFFCURVE",
"597 -99 OFFCURVE",
"600 -99 CURVE SMOOTH",
"605 -99 OFFCURVE",
"607 -93 OFFCURVE",
"607 -82 CURVE SMOOTH",
"607 -51 OFFCURVE",
"590 -31 OFFCURVE",
"557 -22 CURVE SMOOTH",
"545 -19 OFFCURVE",
"516 -16 OFFCURVE",
"470 -15 CURVE",
"501 26 OFFCURVE",
"528 99 OFFCURVE",
"553 205 CURVE",
"636 213 OFFCURVE",
"720 240 OFFCURVE",
"807 285 CURVE SMOOTH",
"900 334 OFFCURVE",
"947 393 OFFCURVE",
"947 462 CURVE SMOOTH"
);
},
{
closed = 1;
nodes = (
"407 -72 OFFCURVE",
"364 -95 OFFCURVE",
"336 -95 CURVE SMOOTH",
"316 -95 OFFCURVE",
"284 -79 OFFCURVE",
"280 -63 CURVE",
"340 -53 LINE SMOOTH",
"366 -49 OFFCURVE",
"386 -47 OFFCURVE",
"399 -47 CURVE SMOOTH",
"401 -47 OFFCURVE",
"408 -47 OFFCURVE",
"420 -48 CURVE"
);
}
);
width = 819;
}
);
note = P;
unicode = 0050;
},
{
color = 5;
glyphname = Thorn;
lastChange = "2021-10-11 21:59:08 +0000";
layers = (
{
layerId = "CE757C0C-4E55-453C-A2E3-610759FCFE83";
paths = (
{
closed = 1;
nodes = (
"21 -344 OFFCURVE",
"31 -324 OFFCURVE",
"38 -308 CURVE SMOOTH",
"59 -262 OFFCURVE",
"70 -157 OFFCURVE",
"70 8 CURVE SMOOTH",
"74 156 LINE SMOOTH",
"75 192 OFFCURVE",
"76 218 OFFCURVE",
"76 233 CURVE",
"79 250 OFFCURVE",
"96 272 OFFCURVE",
"125 299 CURVE SMOOTH",
"154 326 OFFCURVE",
"177 340 OFFCURVE",
"194 340 CURVE SMOOTH",
"244 340 OFFCURVE",
"269 312 OFFCURVE",
"269 255 CURVE SMOOTH",
"269 210 OFFCURVE",
"254 169 OFFCURVE",
"225 130 CURVE SMOOTH",
"193 89 OFFCURVE",
"155 68 OFFCURVE",
"112 68 CURVE SMOOTH",
"93 68 OFFCURVE",
"83 63 OFFCURVE",
"83 52 CURVE SMOOTH",
"83 41 OFFCURVE",
"95 35 OFFCURVE",
"119 35 CURVE SMOOTH",
"171 35 OFFCURVE",
"214 61 OFFCURVE",
"249 114 CURVE SMOOTH",
"280 161 OFFCURVE",
"296 211 OFFCURVE",
"296 266 CURVE SMOOTH",
"296 333 OFFCURVE",
"272 367 OFFCURVE",
"223 367 CURVE SMOOTH",
"174 367 OFFCURVE",
"125 332 OFFCURVE",
"77 262 CURVE",
"74 449 LINE SMOOTH",
"73 499 OFFCURVE",
"67 524 OFFCURVE",
"56 524 CURVE SMOOTH",
"55 524 OFFCURVE",
"42 514 OFFCURVE",
"19 495 CURVE SMOOTH",
"-4 476 OFFCURVE",
"-17 466 OFFCURVE",
"-18 463 CURVE SMOOTH",
"-18 462 OFFCURVE",
"-17 462 OFFCURVE",
"-15 462 CURVE SMOOTH",
"-8 462 OFFCURVE",
"13 473 OFFCURVE",
"21 473 CURVE SMOOTH",
"32 473 OFFCURVE",
"37 454 OFFCURVE",
"38 417 CURVE SMOOTH",
"44 68 LINE SMOOTH",
"44 62 OFFCURVE",
"39 47 OFFCURVE",
"29 24 CURVE SMOOTH",
"20 1 OFFCURVE",
"15 -16 OFFCURVE",
"15 -26 CURVE SMOOTH",
"15 -41 OFFCURVE",
"19 -49 OFFCURVE",
"26 -49 CURVE SMOOTH",
"27 -49 OFFCURVE",
"29 -49 OFFCURVE",
"31 -48 CURVE",
"43 17 LINE",
"44 -2 OFFCURVE",
"41 -57 OFFCURVE",
"36 -147 CURVE SMOOTH",
"30 -246 OFFCURVE",
"24 -305 OFFCURVE",
"18 -326 CURVE",
"9 -345 LINE SMOOTH",
"4 -356 OFFCURVE",
"2 -362 OFFCURVE",
"2 -363 CURVE SMOOTH",
"2 -365 OFFCURVE",
"4 -366 OFFCURVE",
"8 -367 CURVE"
);
}
);
width = 290;
},
{
associatedMasterId = "CE757C0C-4E55-453C-A2E3-610759FCFE83";
layerId = "D8E98E05-6F99-4174-A799-9070338AE5B4";
name = Regular;
paths = (
{
closed = 1;
nodes = (
"314 352 OFFCURVE",
"288 388 OFFCURVE",
"235 388 CURVE SMOOTH",
"184 388 OFFCURVE",
"133 351 OFFCURVE",
"83 278 CURVE",
"78 475 LINE SMOOTH",
"77 528 OFFCURVE",
"71 555 OFFCURVE",
"59 555 CURVE SMOOTH",
"58 555 OFFCURVE",
"45 545 OFFCURVE",
"20 525 CURVE SMOOTH",
"-5 505 OFFCURVE",
"-17 494 OFFCURVE",
"-18 492 CURVE",
"-18 491 OFFCURVE",
"-17 490 OFFCURVE",
"-16 490 CURVE SMOOTH",
"-11 490 OFFCURVE",
"14 501 OFFCURVE",
"22 501 CURVE SMOOTH",
"33 501 OFFCURVE",
"39 481 OFFCURVE",
"40 442 CURVE SMOOTH",
"47 71 LINE SMOOTH",
"47 65 OFFCURVE",
"42 50 OFFCURVE",
"32 25 CURVE SMOOTH",
"22 1 OFFCURVE",
"17 -17 OFFCURVE",
"17 -28 CURVE SMOOTH",
"17 -44 OFFCURVE",
"21 -52 OFFCURVE",
"28 -52 CURVE SMOOTH",
"29 -52 OFFCURVE",
"31 -51 OFFCURVE",
"32 -50 CURVE",
"45 18 LINE",
"46 -17 LINE SMOOTH",
"46 -33 OFFCURVE",
"43 -86 OFFCURVE",
"37 -176 CURVE SMOOTH",
"30 -270 OFFCURVE",
"24 -326 OFFCURVE",
"19 -345 CURVE",
"2 -384 LINE",
"2 -386 OFFCURVE",
"4 -388 OFFCURVE",
"8 -389 CURVE",
"23 -361 OFFCURVE",
"34 -340 OFFCURVE",
"40 -326 CURVE SMOOTH",
"63 -275 OFFCURVE",
"74 -164 OFFCURVE",
"74 8 CURVE SMOOTH",
"77 165 LINE SMOOTH",
"78 218 OFFCURVE",
"80 245 OFFCURVE",
"81 248 CURVE SMOOTH",
"84 265 OFFCURVE",
"101 288 OFFCURVE",
"132 317 CURVE SMOOTH",
"164 346 OFFCURVE",
"189 360 OFFCURVE",
"206 360 CURVE SMOOTH",
"259 360 OFFCURVE",
"285 330 OFFCURVE",
"285 270 CURVE SMOOTH",
"285 223 OFFCURVE",
"269 179 OFFCURVE",
"238 138 CURVE SMOOTH",
"204 93 OFFCURVE",
"164 71 OFFCURVE",
"119 71 CURVE SMOOTH",
"98 71 OFFCURVE",
"88 66 OFFCURVE",
"88 55 CURVE SMOOTH",
"88 43 OFFCURVE",
"101 37 OFFCURVE",
"126 37 CURVE SMOOTH",
"180 37 OFFCURVE",
"226 65 OFFCURVE",
"263 121 CURVE SMOOTH",
"297 171 OFFCURVE",
"314 224 OFFCURVE",
"314 281 CURVE SMOOTH"
);
}
);
width = 307;
}
);
note = Thorn;
unicode = 00DE;
},
{
color = 5;
glyphname = Q;
lastChange = "2021-10-11 21:59:08 +0000";
layers = (
{
layerId = "CE757C0C-4E55-453C-A2E3-610759FCFE83";
paths = (
{
closed = 1;
nodes = (
"628 -232 OFFCURVE",
"661 -203 OFFCURVE",
"688 -146 CURVE SMOOTH",
"710 -99 OFFCURVE",
"721 -51 OFFCURVE",
"721 -4 CURVE SMOOTH",
"721 16 OFFCURVE",
"719 26 OFFCURVE",
"715 26 CURVE SMOOTH",
"714 26 OFFCURVE",
"713 25 OFFCURVE",
"712 23 CURVE",
"704 -27 LINE SMOOTH",
"688 -130 OFFCURVE",
"653 -181 OFFCURVE",
"599 -181 CURVE SMOOTH",
"559 -181 OFFCURVE",
"514 -151 OFFCURVE",
"465 -90 CURVE SMOOTH",
"427 -43 OFFCURVE",
"397 5 OFFCURVE",
"375 56 CURVE",
"571 163 OFFCURVE",
"669 262 OFFCURVE",
"669 351 CURVE SMOOTH",
"669 410 OFFCURVE",
"628 460 OFFCURVE",
"547 503 CURVE SMOOTH",
"478 539 OFFCURVE",
"411 557 OFFCURVE",
"346 557 CURVE SMOOTH",
"313 557 OFFCURVE",
"297 553 OFFCURVE",
"297 546 CURVE SMOOTH",
"297 543 OFFCURVE",
"304 541 OFFCURVE",
"317 541 CURVE SMOOTH",
"325 541 LINE",
"328 542 OFFCURVE",
"331 542 OFFCURVE",
"333 542 CURVE SMOOTH",
"394 542 OFFCURVE",
"457 523 OFFCURVE",
"520 484 CURVE SMOOTH",
"591 441 OFFCURVE",
"627 390 OFFCURVE",
"627 333 CURVE SMOOTH",
"627 287 OFFCURVE",
"595 236 OFFCURVE",
"530 179 CURVE SMOOTH",
"476 132 OFFCURVE",
"422 98 OFFCURVE",
"369 77 CURVE",
"350 118 OFFCURVE",
"341 139 OFFCURVE",
"341 139 CURVE",
"326 172 OFFCURVE",
"314 188 OFFCURVE",
"306 188 CURVE SMOOTH",
"299 188 OFFCURVE",
"296 177 OFFCURVE",
"296 154 CURVE SMOOTH",
"296 144 OFFCURVE",
"300 128 OFFCURVE",
"308 107 CURVE SMOOTH",
"318 80 OFFCURVE",
"324 64 OFFCURVE",
"325 58 CURVE",
"249 37 OFFCURVE",
"201 27 OFFCURVE",
"180 27 CURVE SMOOTH",
"84 27 OFFCURVE",
"36 73 OFFCURVE",
"36 166 CURVE SMOOTH",
"36 216 OFFCURVE",
"50 273 OFFCURVE",
"77 336 CURVE SMOOTH",
"105 400 OFFCURVE",
"137 449 OFFCURVE",
"173 484 CURVE SMOOTH",
"190 501 OFFCURVE",
"208 511 OFFCURVE",
"226 515 CURVE",
"237 524 OFFCURVE",
"243 534 OFFCURVE",
"243 543 CURVE SMOOTH",
"243 552 OFFCURVE",
"238 556 OFFCURVE",
"227 556 CURVE SMOOTH",
"187 556 OFFCURVE",
"138 496 OFFCURVE",
"80 375 CURVE SMOOTH",
"26 262 OFFCURVE",
"-1 181 OFFCURVE",
"-1 132 CURVE SMOOTH",
"-1 41 OFFCURVE",
"48 -5 OFFCURVE",
"146 -5 CURVE SMOOTH",
"179 -5 OFFCURVE",
"223 4 OFFCURVE",
"276 21 CURVE SMOOTH",
"333 39 LINE",
"380 -44 OFFCURVE",
"414 -99 OFFCURVE",
"436 -128 CURVE SMOOTH",
"489 -197 OFFCURVE",
"540 -232 OFFCURVE",
"587 -232 CURVE SMOOTH"
);
}
);
width = 685;
},
{
associatedMasterId = "CE757C0C-4E55-453C-A2E3-610759FCFE83";
layerId = "D8E98E05-6F99-4174-A799-9070338AE5B4";
name = Regular;
paths = (
{
closed = 1;
nodes = (
"854 528 OFFCURVE",
"833 570 OFFCURVE",
"792 598 CURVE SMOOTH",
"757 622 OFFCURVE",
"710 634 OFFCURVE",
"651 634 CURVE SMOOTH",
"565 634 OFFCURVE",
"476 607 OFFCURVE",
"384 552 CURVE SMOOTH",
"319 514 OFFCURVE",
"286 485 OFFCURVE",
"286 465 CURVE SMOOTH",
"286 455 OFFCURVE",
"291 450 OFFCURVE",
"300 450 CURVE SMOOTH",
"303 450 OFFCURVE",
"306 452 OFFCURVE",
"309 456 CURVE",
"420 562 OFFCURVE",
"536 615 OFFCURVE",
"657 615 CURVE SMOOTH",
"761 615 OFFCURVE",
"813 569 OFFCURVE",
"813 476 CURVE SMOOTH",
"813 429 OFFCURVE",
"799 379 OFFCURVE",
"770 324 CURVE SMOOTH",
"745 274 OFFCURVE",
"713 231 OFFCURVE",
"676 196 CURVE SMOOTH",
"585 109 OFFCURVE",
"478 49 OFFCURVE",
"356 14 CURVE",
"257 116 OFFCURVE",
"200 171 OFFCURVE",
"185 179 CURVE SMOOTH",
"174 186 OFFCURVE",
"163 189 OFFCURVE",
"152 189 CURVE SMOOTH",
"125 189 OFFCURVE",
"112 179 OFFCURVE",
"112 160 CURVE SMOOTH",
"112 148 OFFCURVE",
"124 127 OFFCURVE",
"148 98 CURVE SMOOTH",
"172 69 OFFCURVE",
"189 54 OFFCURVE",
"200 54 CURVE SMOOTH",
"201 54 OFFCURVE",
"202 54 OFFCURVE",
"202 55 CURVE",
"202 55 OFFCURVE",
"193 68 OFFCURVE",
"176 93 CURVE SMOOTH",
"159 119 OFFCURVE",
"150 139 OFFCURVE",
"150 152 CURVE SMOOTH",
"150 157 OFFCURVE",
"152 159 OFFCURVE",
"157 159 CURVE SMOOTH",
"173 159 OFFCURVE",
"229 108 OFFCURVE",
"325 6 CURVE",
"291 -1 OFFCURVE",
"260 -5 OFFCURVE",
"231 -5 CURVE SMOOTH",
"114 -5 OFFCURVE",
"37 57 OFFCURVE",
"37 173 CURVE SMOOTH",
"37 218 OFFCURVE",
"48 265 OFFCURVE",
"69 313 CURVE SMOOTH",
"130 452 OFFCURVE",
"240 555 OFFCURVE",
"397 622 CURVE SMOOTH",
"458 648 OFFCURVE",
"534 667 OFFCURVE",
"625 678 CURVE SMOOTH",
"645 681 OFFCURVE",
"655 684 OFFCURVE",
"655 688 CURVE",
"654 689 OFFCURVE",
"651 690 OFFCURVE",
"644 691 CURVE SMOOTH",
"629 692 OFFCURVE",
"613 693 OFFCURVE",
"594 693 CURVE SMOOTH",
"463 693 OFFCURVE",
"343 657 OFFCURVE",
"232 584 CURVE SMOOTH",
"113 507 OFFCURVE",
"38 408 OFFCURVE",
"6 286 CURVE SMOOTH",
"0 261 OFFCURVE",
"-3 235 OFFCURVE",
"-3 208 CURVE SMOOTH",
"-3 135 OFFCURVE",
"22 77 OFFCURVE",
"73 33 CURVE SMOOTH",
"121 -9 OFFCURVE",
"182 -30 OFFCURVE",
"255 -30 CURVE SMOOTH",
"285 -30 OFFCURVE",
"316 -26 OFFCURVE",
"349 -19 CURVE",
"411 -86 LINE",
"573 -244 OFFCURVE",
"691 -323 OFFCURVE",
"766 -323 CURVE SMOOTH",
"812 -323 OFFCURVE",
"835 -304 OFFCURVE",
"835 -266 CURVE SMOOTH",
"835 -252 OFFCURVE",
"830 -231 OFFCURVE",
"820 -204 CURVE SMOOTH",
"809 -174 OFFCURVE",
"798 -157 OFFCURVE",
"787 -152 CURVE",
"786 -153 OFFCURVE",
"786 -155 OFFCURVE",
"785 -157 CURVE",
"785 -160 OFFCURVE",
"786 -165 OFFCURVE",
"787 -170 CURVE SMOOTH",
"796 -201 OFFCURVE",
"800 -225 OFFCURVE",
"800 -242 CURVE SMOOTH",
"800 -287 OFFCURVE",
"788 -309 OFFCURVE",
"765 -309 CURVE SMOOTH",
"702 -309 OFFCURVE",
"574 -210 OFFCURVE",
"380 -12 CURVE",
"493 20 OFFCURVE",
"596 79 OFFCURVE",
"691 166 CURVE SMOOTH",
"800 265 OFFCURVE",
"854 367 OFFCURVE",
"854 472 CURVE SMOOTH"
);
}
);
width = 829;
}
);
note = Q;
unicode = 0051;
},
{
color = 5;
glyphname = R;
lastChange = "2021-10-11 21:59:08 +0000";
layers = (
{
layerId = "CE757C0C-4E55-453C-A2E3-610759FCFE83";
paths = (
{
closed = 1;
nodes = (
"410 -38 OFFCURVE",
"446 -1 OFFCURVE",
"472 72 CURVE SMOOTH",
"492 128 OFFCURVE",
"502 185 OFFCURVE",
"502 242 CURVE SMOOTH",
"502 254 OFFCURVE",
"493 281 OFFCURVE",
"484 281 CURVE SMOOTH",
"483 281 OFFCURVE",
"481 280 OFFCURVE",
"480 278 CURVE",
"482 273 OFFCURVE",
"483 258 OFFCURVE",
"483 234 CURVE SMOOTH",
"483 183 OFFCURVE",
"477 138 OFFCURVE",
"465 99 CURVE SMOOTH",
"447 41 OFFCURVE",
"419 12 OFFCURVE",
"380 12 CURVE SMOOTH",
"321 12 OFFCURVE",
"263 85 OFFCURVE",
"206 231 CURVE SMOOTH",
"208 226 OFFCURVE",
"213 224 OFFCURVE",
"220 224 CURVE SMOOTH",
"261 224 OFFCURVE",
"315 242 OFFCURVE",
"382 278 CURVE SMOOTH",
"456 318 OFFCURVE",
"493 357 OFFCURVE",
"493 395 CURVE SMOOTH",
"493 432 OFFCURVE",
"468 464 OFFCURVE",
"418 493 CURVE SMOOTH",
"351 531 OFFCURVE",
"268 550 OFFCURVE",
"170 550 CURVE SMOOTH",
"153 550 LINE SMOOTH",
"132 550 OFFCURVE",
"114 550 OFFCURVE",
"99 549 CURVE SMOOTH",
"77 548 OFFCURVE",
"63 547 OFFCURVE",
"57 544 CURVE SMOOTH",
"44 539 OFFCURVE",
"37 528 OFFCURVE",
"35 512 CURVE",
"51 515 OFFCURVE",
"70 517 OFFCURVE",
"92 517 CURVE SMOOTH",
"159 517 OFFCURVE",
"211 514 OFFCURVE",
"247 508 CURVE SMOOTH",
"300 500 OFFCURVE",
"349 483 OFFCURVE",
"392 456 CURVE SMOOTH",
"435 430 OFFCURVE",
"457 403 OFFCURVE",
"457 374 CURVE SMOOTH",
"457 350 OFFCURVE",
"435 325 OFFCURVE",
"392 299 CURVE SMOOTH",
"361 280 OFFCURVE",
"329 266 OFFCURVE",
"296 256 CURVE SMOOTH",
"274 249 OFFCURVE",
"246 244 OFFCURVE",
"213 239 CURVE SMOOTH",
"208 238 OFFCURVE",
"206 236 OFFCURVE",
"206 233 CURVE SMOOTH",
"206 231 LINE",
"195 260 OFFCURVE",
"187 281 OFFCURVE",
"182 296 CURVE",
"179 299 OFFCURVE",
"175 300 OFFCURVE",
"172 300 CURVE SMOOTH",
"159 300 OFFCURVE",
"153 286 OFFCURVE",
"153 257 CURVE SMOOTH",
"153 245 OFFCURVE",
"156 237 OFFCURVE",
"162 234 CURVE SMOOTH",
"171 230 OFFCURVE",
"176 225 OFFCURVE",
"179 219 CURVE SMOOTH",
"189 193 OFFCURVE",
"196 173 OFFCURVE",
"200 159 CURVE",
"253 28 OFFCURVE",
"307 -38 OFFCURVE",
"364 -38 CURVE SMOOTH"
);
},
{
closed = 1;
nodes = (
"111 -45 OFFCURVE",
"120 -39 OFFCURVE",
"125 -26 CURVE",
"102 -7 OFFCURVE",
"90 31 OFFCURVE",
"90 87 CURVE SMOOTH",
"90 137 OFFCURVE",
"103 224 OFFCURVE",
"130 348 CURVE SMOOTH",
"145 417 OFFCURVE",
"152 460 OFFCURVE",
"152 478 CURVE SMOOTH",
"152 484 LINE SMOOTH",
"152 501 OFFCURVE",
"148 510 OFFCURVE",
"141 510 CURVE SMOOTH",
"132 510 OFFCURVE",
"123 501 OFFCURVE",
"113 484 CURVE",
"114 477 OFFCURVE",
"114 471 OFFCURVE",
"114 464 CURVE SMOOTH",
"114 434 OFFCURVE",
"105 377 OFFCURVE",
"87 294 CURVE SMOOTH",
"70 211 OFFCURVE",
"58 137 OFFCURVE",
"54 70 CURVE SMOOTH",
"53 55 LINE SMOOTH",
"49 -12 OFFCURVE",
"64 -45 OFFCURVE",
"100 -45 CURVE SMOOTH"
);
}
);
width = 536;
},
{
associatedMasterId = "CE757C0C-4E55-453C-A2E3-610759FCFE83";
layerId = "D8E98E05-6F99-4174-A799-9070338AE5B4";
name = Regular;
paths = (
{
closed = 1;
nodes = (
"966 31 OFFCURVE",
"962 46 OFFCURVE",
"953 69 CURVE SMOOTH",
"944 92 OFFCURVE",
"937 103 OFFCURVE",
"931 103 CURVE SMOOTH",
"930 103 OFFCURVE",
"929 102 OFFCURVE",
"929 100 CURVE SMOOTH",
"929 97 OFFCURVE",
"932 88 OFFCURVE",
"937 73 CURVE SMOOTH",
"942 59 OFFCURVE",
"945 47 OFFCURVE",
"945 38 CURVE SMOOTH",
"945 -6 OFFCURVE",
"929 -28 OFFCURVE",
"896 -28 CURVE SMOOTH",
"838 -28 OFFCURVE",
"740 52 OFFCURVE",
"602 213 CURVE",
"689 232 OFFCURVE",
"761 258 OFFCURVE",
"819 291 CURVE SMOOTH",
"904 340 OFFCURVE",
"947 397 OFFCURVE",
"947 462 CURVE SMOOTH",
"947 529 OFFCURVE",
"908 592 OFFCURVE",
"831 652 CURVE SMOOTH",
"707 747 OFFCURVE",
"561 795 OFFCURVE",
"394 795 CURVE SMOOTH",
"300 795 OFFCURVE",
"216 777 OFFCURVE",
"141 741 CURVE SMOOTH",
"46 695 OFFCURVE",
"-1 630 OFFCURVE",
"-1 546 CURVE SMOOTH",
"-1 491 OFFCURVE",
"17 439 OFFCURVE",
"54 390 CURVE SMOOTH",
"87 345 OFFCURVE",
"130 308 OFFCURVE",
"181 281 CURVE SMOOTH",
"212 264 OFFCURVE",
"233 256 OFFCURVE",
"245 256 CURVE SMOOTH",
"247 256 OFFCURVE",
"249 257 OFFCURVE",
"251 260 CURVE",
"171 288 OFFCURVE",
"113 333 OFFCURVE",
"78 396 CURVE SMOOTH",
"53 441 OFFCURVE",
"40 485 OFFCURVE",
"40 526 CURVE SMOOTH",
"40 606 OFFCURVE",
"81 669 OFFCURVE",
"163 714 CURVE SMOOTH",
"232 752 OFFCURVE",
"309 771 OFFCURVE",
"395 771 CURVE SMOOTH",
"550 771 OFFCURVE",
"687 725 OFFCURVE",
"805 632 CURVE SMOOTH",
"878 575 OFFCURVE",
"914 515 OFFCURVE",
"914 454 CURVE SMOOTH",
"914 393 OFFCURVE",
"876 343 OFFCURVE",
"801 304 CURVE SMOOTH",
"759 282 OFFCURVE",
"682 264 OFFCURVE",
"571 249 CURVE",
"563 259 LINE",
"578 328 OFFCURVE",
"589 377 OFFCURVE",
"594 404 CURVE SMOOTH",
"605 451 OFFCURVE",
"610 478 OFFCURVE",
"610 486 CURVE SMOOTH",
"610 503 OFFCURVE",
"590 527 OFFCURVE",
"573 527 CURVE SMOOTH",
"566 527 OFFCURVE",
"560 523 OFFCURVE",
"555 515 CURVE",
"544 387 OFFCURVE",
"537 311 OFFCURVE",
"534 288 CURVE",
"508 313 OFFCURVE",
"488 326 OFFCURVE",
"474 326 CURVE SMOOTH",
"465 326 OFFCURVE",
"453 319 OFFCURVE",
"437 306 CURVE SMOOTH",
"422 293 OFFCURVE",
"414 283 OFFCURVE",
"414 274 CURVE SMOOTH",
"414 271 OFFCURVE",
"415 270 OFFCURVE",
"416 269 CURVE",
"416 269 OFFCURVE",
"421 273 OFFCURVE",
"430 282 CURVE SMOOTH",
"439 291 OFFCURVE",
"448 296 OFFCURVE",
"456 296 CURVE SMOOTH",
"473 296 OFFCURVE",
"496 280 OFFCURVE",
"527 247 CURVE",
"497 103 OFFCURVE",
"466 11 OFFCURVE",
"434 -28 CURVE SMOOTH",
"398 -73 OFFCURVE",
"365 -95 OFFCURVE",
"336 -95 CURVE SMOOTH",
"311 -95 OFFCURVE",
"290 -81 OFFCURVE",
"275 -53 CURVE SMOOTH",
"262 -29 OFFCURVE",
"256 -3 OFFCURVE",
"256 24 CURVE SMOOTH",
"256 33 OFFCURVE",
"263 57 OFFCURVE",
"263 66 CURVE SMOOTH",
"263 68 OFFCURVE",
"262 69 OFFCURVE",
"261 70 CURVE",
"255 70 OFFCURVE",
"250 61 OFFCURVE",
"246 42 CURVE SMOOTH",
"243 29 OFFCURVE",
"242 18 OFFCURVE",
"242 7 CURVE SMOOTH",
"242 -22 OFFCURVE",
"248 -50 OFFCURVE",
"261 -77 CURVE SMOOTH",
"276 -110 OFFCURVE",
"297 -126 OFFCURVE",
"324 -126 CURVE SMOOTH",
"367 -126 OFFCURVE",
"412 -95 OFFCURVE",
"460 -32 CURVE SMOOTH",
"493 11 OFFCURVE",
"523 90 OFFCURVE",
"550 205 CURVE",
"553 205 OFFCURVE",
"558 205 OFFCURVE",
"564 206 CURVE",
"670 77 LINE SMOOTH",
"739 -3 OFFCURVE",
"806 -43 OFFCURVE",
"871 -43 CURVE SMOOTH",
"895 -43 OFFCURVE",
"916 -38 OFFCURVE",
"934 -28 CURVE SMOOTH",
"955 -16 OFFCURVE",
"966 1 OFFCURVE",
"966 23 CURVE SMOOTH"
);
}
);
width = 948;
}
);
note = R;
unicode = 0052;
},
{
color = 5;
glyphname = S;
lastChange = "2021-10-11 21:59:10 +0000";
layers = (
{
layerId = "CE757C0C-4E55-453C-A2E3-610759FCFE83";
paths = (
{
closed = 1;
nodes = (
"49 -83 LINE",
"151 -42 OFFCURVE",
"212 -15 OFFCURVE",
"233 -4 CURVE SMOOTH",
"317 41 OFFCURVE",
"359 84 OFFCURVE",
"359 126 CURVE SMOOTH",
"359 152 OFFCURVE",
"332 176 OFFCURVE",
"279 198 CURVE SMOOTH",
"131 258 LINE SMOOTH",
"77 280 OFFCURVE",
"51 312 OFFCURVE",
"51 347 CURVE SMOOTH",
"51 384 OFFCURVE",
"89 420 OFFCURVE",
"164 457 CURVE SMOOTH",
"232 490 OFFCURVE",
"287 507 OFFCURVE",
"328 507 CURVE SMOOTH",
"366 507 OFFCURVE",
"385 492 OFFCURVE",
"385 461 CURVE SMOOTH",
"385 449 OFFCURVE",
"381 431 OFFCURVE",
"374 408 CURVE SMOOTH",
"367 385 OFFCURVE",
"364 368 OFFCURVE",
"364 356 CURVE SMOOTH",
"364 351 OFFCURVE",
"365 348 OFFCURVE",
"368 348 CURVE SMOOTH",
"375 348 OFFCURVE",
"385 359 OFFCURVE",
"396 380 CURVE SMOOTH",
"417 418 OFFCURVE",
"427 459 OFFCURVE",
"427 503 CURVE SMOOTH",
"427 527 OFFCURVE",
"406 539 OFFCURVE",
"363 539 CURVE SMOOTH",
"313 539 OFFCURVE",
"246 516 OFFCURVE",
"162 471 CURVE SMOOTH",
"70 422 OFFCURVE",
"24 375 OFFCURVE",
"24 331 CURVE SMOOTH",
"24 298 OFFCURVE",
"49 269 OFFCURVE",
"100 244 CURVE SMOOTH",
"162 215 OFFCURVE",
"209 193 OFFCURVE",
"241 179 CURVE SMOOTH",
"292 155 OFFCURVE",
"317 130 OFFCURVE",
"317 105 CURVE SMOOTH",
"317 79 OFFCURVE",
"293 51 OFFCURVE",
"244 21 CURVE SMOOTH",
"215 4 OFFCURVE",
"171 -10 OFFCURVE",
"110 -21 CURVE SMOOTH",
"83 -26 OFFCURVE",
"69 -28 OFFCURVE",
"67 -29 CURVE",
"36 -37 OFFCURVE",
"21 -49 OFFCURVE",
"21 -66 CURVE SMOOTH",
"21 -77 OFFCURVE",
"29 -83 OFFCURVE",
"45 -83 CURVE SMOOTH"
);
}
);
width = 415;
},
{
associatedMasterId = "CE757C0C-4E55-453C-A2E3-610759FCFE83";
layerId = "D8E98E05-6F99-4174-A799-9070338AE5B4";
name = Regular;
paths = (
{
closed = 1;
nodes = (
"708 638 OFFCURVE",
"693 666 OFFCURVE",
"663 685 CURVE SMOOTH",
"638 701 OFFCURVE",
"606 709 OFFCURVE",
"568 709 CURVE SMOOTH",
"506 709 OFFCURVE",
"438 696 OFFCURVE",
"364 669 CURVE SMOOTH",
"295 644 OFFCURVE",
"233 612 OFFCURVE",
"178 573 CURVE SMOOTH",
"99 518 OFFCURVE",
"60 463 OFFCURVE",
"60 408 CURVE SMOOTH",
"60 365 OFFCURVE",
"86 326 OFFCURVE",
"138 291 CURVE SMOOTH",
"201 252 OFFCURVE",
"248 222 OFFCURVE",
"281 203 CURVE SMOOTH",
"332 170 OFFCURVE",
"358 134 OFFCURVE",
"358 95 CURVE SMOOTH",
"358 55 OFFCURVE",
"335 19 OFFCURVE",
"288 -14 CURVE SMOOTH",
"245 -43 OFFCURVE",
"203 -58 OFFCURVE",
"160 -58 CURVE SMOOTH",
"139 -58 OFFCURVE",
"115 -53 OFFCURVE",
"89 -42 CURVE SMOOTH",
"58 -29 OFFCURVE",
"42 -14 OFFCURVE",
"42 5 CURVE SMOOTH",
"42 17 OFFCURVE",
"56 39 OFFCURVE",
"85 72 CURVE SMOOTH",
"114 105 OFFCURVE",
"129 112 OFFCURVE",
"129 93 CURVE SMOOTH",
"129 95 OFFCURVE",
"127 96 OFFCURVE",
"122 96 CURVE SMOOTH",
"101 96 OFFCURVE",
"75 84 OFFCURVE",
"46 61 CURVE SMOOTH",
"17 38 OFFCURVE",
"2 16 OFFCURVE",
"2 -5 CURVE SMOOTH",
"2 -29 OFFCURVE",
"19 -49 OFFCURVE",
"52 -64 CURVE SMOOTH",
"79 -76 OFFCURVE",
"106 -82 OFFCURVE",
"134 -82 CURVE SMOOTH",
"190 -82 OFFCURVE",
"248 -63 OFFCURVE",
"307 -24 CURVE SMOOTH",
"373 18 OFFCURVE",
"406 66 OFFCURVE",
"406 119 CURVE SMOOTH",
"406 176 OFFCURVE",
"340 238 OFFCURVE",
"208 306 CURVE SMOOTH",
"139 341 OFFCURVE",
"105 381 OFFCURVE",
"105 426 CURVE SMOOTH",
"105 473 OFFCURVE",
"142 520 OFFCURVE",
"215 568 CURVE SMOOTH",
"264 600 OFFCURVE",
"322 628 OFFCURVE",
"388 652 CURVE SMOOTH",
"439 670 OFFCURVE",
"492 679 OFFCURVE",
"549 679 CURVE SMOOTH",
"630 679 OFFCURVE",
"670 654 OFFCURVE",
"670 603 CURVE SMOOTH",
"670 556 OFFCURVE",
"640 506 OFFCURVE",
"580 455 CURVE SMOOTH",
"546 426 OFFCURVE",
"496 393 OFFCURVE",
"430 354 CURVE SMOOTH",
"425 351 OFFCURVE",
"423 348 OFFCURVE",
"423 345 CURVE SMOOTH",
"423 344 OFFCURVE",
"424 343 OFFCURVE",
"427 343 CURVE SMOOTH",
"431 343 OFFCURVE",
"438 345 OFFCURVE",
"448 349 CURVE SMOOTH",
"507 369 OFFCURVE",
"563 401 OFFCURVE",
"615 445 CURVE SMOOTH",
"677 498 OFFCURVE",
"708 550 OFFCURVE",
"708 602 CURVE SMOOTH"
);
}
);
width = 502;
}
);
note = S;
unicode = 0053;
},
{
color = 5;
glyphname = Germandbls;
lastChange = "2021-10-11 21:59:10 +0000";
layers = (
{
layerId = "CE757C0C-4E55-453C-A2E3-610759FCFE83";
paths = (
{
closed = 1;
nodes = (
"90 -82 OFFCURVE",
"115 -59 OFFCURVE",
"120 -33 CURVE",
"114 -19 OFFCURVE",
"111 17 OFFCURVE",
"111 73 CURVE SMOOTH",
"111 111 OFFCURVE",
"113 159 OFFCURVE",
"115 215 CURVE SMOOTH",
"126 477 OFFCURVE",
"162 556 OFFCURVE",
"270 556 CURVE SMOOTH",
"325 556 OFFCURVE",
"357 526 OFFCURVE",
"357 466 CURVE SMOOTH",
"357 443 OFFCURVE",
"352 415 OFFCURVE",
"342 383 CURVE",
"268 383 OFFCURVE",
"204 322 OFFCURVE",
"204 257 CURVE SMOOTH",
"204 234 OFFCURVE",
"212 211 OFFCURVE",
"229 189 CURVE SMOOTH",
"255 156 OFFCURVE",
"304 118 OFFCURVE",
"304 63 CURVE SMOOTH",
"304 20 OFFCURVE",
"270 -14 OFFCURVE",
"243 -14 CURVE SMOOTH",
"218 -14 OFFCURVE",
"201 1 OFFCURVE",
"192 30 CURVE SMOOTH",
"191 33 OFFCURVE",
"189 35 OFFCURVE",
"186 35 CURVE SMOOTH",
"181 35 OFFCURVE",
"179 33 OFFCURVE",
"179 28 CURVE SMOOTH",
"179 25 OFFCURVE",
"180 20 OFFCURVE",
"183 13 CURVE SMOOTH",
"194 -16 OFFCURVE",
"215 -31 OFFCURVE",
"247 -31 CURVE SMOOTH",
"284 -31 OFFCURVE",
"348 -7 OFFCURVE",
"348 62 CURVE SMOOTH",
"348 121 OFFCURVE",
"306 163 OFFCURVE",
"277 196 CURVE SMOOTH",
"254 223 OFFCURVE",
"243 251 OFFCURVE",
"243 277 CURVE SMOOTH",
"243 325 OFFCURVE",
"281 365 OFFCURVE",
"343 365 CURVE SMOOTH",
"351 365 OFFCURVE",
"356 376 OFFCURVE",
"358 382 CURVE SMOOTH",
"372 421 OFFCURVE",
"378 452 OFFCURVE",
"378 478 CURVE SMOOTH",
"378 566 OFFCURVE",
"306 582 OFFCURVE",
"256 582 CURVE SMOOTH",
"193 582 OFFCURVE",
"156 554 OFFCURVE",
"127 498 CURVE SMOOTH",
"87 421 OFFCURVE",
"67 128 OFFCURVE",
"67 -10 CURVE SMOOTH",
"67 -41 OFFCURVE",
"68 -64 OFFCURVE",
"70 -75 CURVE SMOOTH",
"71 -80 OFFCURVE",
"73 -82 OFFCURVE",
"77 -82 CURVE SMOOTH"
);
}
);
width = 370;
}
);
unicode = 1E9E;
},
{
color = 3;
glyphname = Schwa;
lastChange = "2021-10-11 21:59:10 +0000";
layers = (
{
layerId = "CE757C0C-4E55-453C-A2E3-610759FCFE83";
paths = (
{
closed = 1;
nodes = (
"292 -47 OFFCURVE",
"382 212 OFFCURVE",
"397 351 CURVE SMOOTH",
"399 376 OFFCURVE",
"401 398 OFFCURVE",
"401 418 CURVE SMOOTH",
"401 537 OFFCURVE",
"361 582 OFFCURVE",
"285 582 CURVE SMOOTH",
"188 582 OFFCURVE",
"107 526 OFFCURVE",
"32 410 CURVE",
"30 403 OFFCURVE",
"28 398 OFFCURVE",
"27 395 CURVE",
"27 389 OFFCURVE",
"28 385 OFFCURVE",
"31 385 CURVE SMOOTH",
"33 385 OFFCURVE",
"39 389 OFFCURVE",
"42 392 CURVE",
"119 503 OFFCURVE",
"191 558 OFFCURVE",
"265 551 CURVE",
"332 551 OFFCURVE",
"370 466 OFFCURVE",
"370 378 CURVE SMOOTH",
"370 347 OFFCURVE",
"365 315 OFFCURVE",
"355 287 CURVE",
"253 272 OFFCURVE",
"71 195 OFFCURVE",
"71 39 CURVE SMOOTH",
"71 -24 OFFCURVE",
"101 -47 OFFCURVE",
"145 -47 CURVE SMOOTH"
);
},
{
closed = 1;
nodes = (
"109 -21 OFFCURVE",
"93 -1 OFFCURVE",
"93 29 CURVE SMOOTH",
"93 106 OFFCURVE",
"194 245 OFFCURVE",
"352 265 CURVE",
"307 96 OFFCURVE",
"199 -21 OFFCURVE",
"142 -21 CURVE SMOOTH"
);
}
);
width = 431;
}
);
unicode = 018F;
},
{
color = 5;
glyphname = T;
lastChange = "2021-10-11 21:59:10 +0000";
layers = (
{
layerId = "CE757C0C-4E55-453C-A2E3-610759FCFE83";
paths = (
{
closed = 1;
nodes = (
"284 -17 OFFCURVE",
"290 -16 OFFCURVE",
"298 -14 CURVE SMOOTH",
"313 -10 OFFCURVE",
"330 0 OFFCURVE",
"351 16 CURVE SMOOTH",
"374 35 OFFCURVE",
"385 50 OFFCURVE",
"385 63 CURVE SMOOTH",
"385 66 OFFCURVE",
"384 67 OFFCURVE",
"383 68 CURVE",
"356 33 OFFCURVE",
"332 16 OFFCURVE",
"311 16 CURVE SMOOTH",
"268 16 OFFCURVE",
"247 72 OFFCURVE",
"247 183 CURVE SMOOTH",
"247 264 OFFCURVE",
"258 378 OFFCURVE",
"280 526 CURVE",
"331 532 OFFCURVE",
"385 537 OFFCURVE",
"440 542 CURVE SMOOTH",
"491 547 OFFCURVE",
"516 552 OFFCURVE",
"516 558 CURVE SMOOTH",
"516 563 OFFCURVE",
"512 565 OFFCURVE",
"504 565 CURVE SMOOTH",
"480 565 OFFCURVE",
"444 563 OFFCURVE",
"396 559 CURVE SMOOTH",
"348 555 OFFCURVE",
"312 553 OFFCURVE",
"288 553 CURVE",
"289 562 OFFCURVE",
"287 566 OFFCURVE",
"282 566 CURVE SMOOTH",
"279 566 OFFCURVE",
"268 560 OFFCURVE",
"248 549 CURVE",
"237 548 OFFCURVE",
"225 548 OFFCURVE",
"211 548 CURVE SMOOTH",
"184 548 OFFCURVE",
"155 549 OFFCURVE",
"125 551 CURVE SMOOTH",
"39 557 LINE",
"34 557 LINE SMOOTH",
"9 557 OFFCURVE",
"-3 551 OFFCURVE",
"-3 540 CURVE SMOOTH",
"-3 532 OFFCURVE",
"8 525 OFFCURVE",
"30 519 CURVE SMOOTH",
"47 514 OFFCURVE",
"62 512 OFFCURVE",
"74 512 CURVE SMOOTH",
"75 512 OFFCURVE",
"74 515 OFFCURVE",
"69 521 CURVE",
"78 521 OFFCURVE",
"88 520 OFFCURVE",
"99 520 CURVE SMOOTH",
"115 520 OFFCURVE",
"133 521 OFFCURVE",
"154 522 CURVE SMOOTH",
"199 525 OFFCURVE",
"227 526 OFFCURVE",
"239 526 CURVE",
"236 469 OFFCURVE",
"234 429 OFFCURVE",
"232 407 CURVE SMOOTH",
"217 184 LINE SMOOTH",
"215 159 OFFCURVE",
"214 137 OFFCURVE",
"214 119 CURVE SMOOTH",
"214 28 OFFCURVE",
"236 -17 OFFCURVE",
"279 -17 CURVE SMOOTH"
);
}
);
width = 434;
},
{
associatedMasterId = "CE757C0C-4E55-453C-A2E3-610759FCFE83";
layerId = "D8E98E05-6F99-4174-A799-9070338AE5B4";
name = Regular;
paths = (
{
closed = 1;
nodes = (
"893 604 OFFCURVE",
"876 616 OFFCURVE",
"843 628 CURVE SMOOTH",
"814 639 OFFCURVE",
"792 644 OFFCURVE",
"775 644 CURVE SMOOTH",
"764 644 OFFCURVE",
"758 643 OFFCURVE",
"758 641 CURVE",
"806 619 LINE SMOOTH",
"839 605 OFFCURVE",
"855 593 OFFCURVE",
"855 583 CURVE SMOOTH",
"855 577 OFFCURVE",
"848 574 OFFCURVE",
"833 574 CURVE SMOOTH",
"814 574 OFFCURVE",
"775 581 OFFCURVE",
"714 594 CURVE",
"719 625 OFFCURVE",
"721 641 OFFCURVE",
"721 643 CURVE SMOOTH",
"721 659 OFFCURVE",
"697 676 OFFCURVE",
"681 676 CURVE SMOOTH",
"676 676 OFFCURVE",
"672 672 OFFCURVE",
"671 665 CURVE SMOOTH",
"665 606 LINE",
"505 645 LINE SMOOTH",
"399 668 OFFCURVE",
"306 679 OFFCURVE",
"225 679 CURVE SMOOTH",
"143 679 OFFCURVE",
"89 665 OFFCURVE",
"64 638 CURVE SMOOTH",
"49 623 OFFCURVE",
"42 609 OFFCURVE",
"42 596 CURVE SMOOTH",
"42 576 OFFCURVE",
"55 556 OFFCURVE",
"80 535 CURVE SMOOTH",
"99 518 OFFCURVE",
"121 506 OFFCURVE",
"144 497 CURVE SMOOTH",
"148 496 OFFCURVE",
"151 495 OFFCURVE",
"153 495 CURVE SMOOTH",
"154 495 OFFCURVE",
"155 496 OFFCURVE",
"156 497 CURVE",
"103 548 OFFCURVE",
"76 590 OFFCURVE",
"76 623 CURVE SMOOTH",
"76 646 OFFCURVE",
"114 657 OFFCURVE",
"190 657 CURVE SMOOTH",
"257 657 OFFCURVE",
"337 648 OFFCURVE",
"428 631 CURVE SMOOTH",
"463 624 OFFCURVE",
"541 606 OFFCURVE",
"663 579 CURVE",
"613 72 OFFCURVE",
"516 -181 OFFCURVE",
"373 -181 CURVE SMOOTH",
"338 -181 OFFCURVE",
"306 -165 OFFCURVE",
"277 -132 CURVE SMOOTH",
"232 -83 OFFCURVE",
"210 -15 OFFCURVE",
"210 73 CURVE SMOOTH",
"210 115 OFFCURVE",
"215 152 OFFCURVE",
"226 185 CURVE SMOOTH",
"241 234 OFFCURVE",
"266 259 OFFCURVE",
"299 259 CURVE SMOOTH",
"304 259 OFFCURVE",
"318 254 OFFCURVE",
"323 254 CURVE",
"324 255 OFFCURVE",
"324 256 OFFCURVE",
"324 257 CURVE SMOOTH",
"324 266 OFFCURVE",
"315 271 OFFCURVE",
"297 271 CURVE SMOOTH",
"290 271 OFFCURVE",
"275 266 OFFCURVE",
"271 266 CURVE",
"271 266 OFFCURVE",
"268 274 OFFCURVE",
"263 274 CURVE SMOOTH",
"252 274 OFFCURVE",
"242 271 OFFCURVE",
"233 264 CURVE SMOOTH",
"214 250 OFFCURVE",
"198 222 OFFCURVE",
"187 181 CURVE SMOOTH",
"177 146 OFFCURVE",
"172 114 OFFCURVE",
"172 85 CURVE SMOOTH",
"172 56 OFFCURVE",
"175 27 OFFCURVE",
"180 -1 CURVE SMOOTH",
"190 -50 OFFCURVE",
"210 -94 OFFCURVE",
"241 -131 CURVE SMOOTH",
"277 -175 OFFCURVE",
"318 -197 OFFCURVE",
"363 -197 CURVE SMOOTH",
"440 -197 OFFCURVE",
"505 -144 OFFCURVE",
"558 -39 CURVE SMOOTH",
"587 18 OFFCURVE",
"615 103 OFFCURVE",
"642 215 CURVE SMOOTH",
"670 328 OFFCURVE",
"693 445 OFFCURVE",
"710 568 CURVE",
"776 553 OFFCURVE",
"819 546 OFFCURVE",
"840 546 CURVE SMOOTH",
"867 546 OFFCURVE",
"893 566 OFFCURVE",
"893 591 CURVE SMOOTH"
);
}
);
width = 717;
}
);
note = T;
unicode = 0054;
},
{
color = 5;
glyphname = U;
lastChange = "2021-10-11 21:59:08 +0000";
layers = (
{
layerId = "CE757C0C-4E55-453C-A2E3-610759FCFE83";
paths = (
{
closed = 1;
nodes = (
"450 -11 OFFCURVE",
"472 2 OFFCURVE",
"495 28 CURVE SMOOTH",
"512 47 OFFCURVE",
"527 69 OFFCURVE",
"539 93 CURVE",
"540 94 OFFCURVE",
"540 95 OFFCURVE",
"540 96 CURVE SMOOTH",
"539 101 OFFCURVE",
"538 103 OFFCURVE",
"536 103 CURVE",
"513 58 OFFCURVE",
"490 36 OFFCURVE",
"469 36 CURVE SMOOTH",
"428 36 OFFCURVE",
"407 83 OFFCURVE",
"407 178 CURVE SMOOTH",
"407 263 OFFCURVE",
"421 370 OFFCURVE",
"449 499 CURVE SMOOTH",
"459 544 LINE",
"459 559 OFFCURVE",
"451 567 OFFCURVE",
"435 567 CURVE SMOOTH",
"418 567 OFFCURVE",
"406 549 OFFCURVE",
"401 512 CURVE SMOOTH",
"397 480 OFFCURVE",
"394 456 OFFCURVE",
"393 440 CURVE",
"381 406 OFFCURVE",
"369 376 OFFCURVE",
"356 351 CURVE SMOOTH",
"324 286 OFFCURVE",
"289 226 OFFCURVE",
"250 172 CURVE SMOOTH",
"191 89 OFFCURVE",
"141 48 OFFCURVE",
"100 48 CURVE SMOOTH",
"76 48 OFFCURVE",
"64 79 OFFCURVE",
"64 141 CURVE SMOOTH",
"64 194 OFFCURVE",
"76 258 OFFCURVE",
"101 335 CURVE SMOOTH",
"124 406 OFFCURVE",
"150 467 OFFCURVE",
"179 519 CURVE",
"180 522 OFFCURVE",
"181 525 OFFCURVE",
"181 527 CURVE SMOOTH",
"181 541 OFFCURVE",
"172 548 OFFCURVE",
"154 548 CURVE SMOOTH",
"151 548 OFFCURVE",
"149 547 OFFCURVE",
"148 546 CURVE",
"137 524 OFFCURVE",
"128 508 OFFCURVE",
"123 497 CURVE SMOOTH",
"111 473 OFFCURVE",
"98 461 OFFCURVE",
"84 461 CURVE SMOOTH",
"77 461 OFFCURVE",
"71 465 OFFCURVE",
"65 474 CURVE SMOOTH",
"64 475 OFFCURVE",
"62 475 OFFCURVE",
"60 476 CURVE",
"57 476 OFFCURVE",
"56 474 OFFCURVE",
"56 471 CURVE SMOOTH",
"56 458 OFFCURVE",
"75 442 OFFCURVE",
"90 442 CURVE SMOOTH",
"99 442 OFFCURVE",
"110 446 OFFCURVE",
"121 455 CURVE",
"88 368 OFFCURVE",
"67 308 OFFCURVE",
"57 275 CURVE SMOOTH",
"36 204 OFFCURVE",
"25 142 OFFCURVE",
"25 89 CURVE SMOOTH",
"25 30 OFFCURVE",
"38 0 OFFCURVE",
"64 0 CURVE SMOOTH",
"115 0 OFFCURVE",
"177 49 OFFCURVE",
"252 146 CURVE SMOOTH",
"303 213 OFFCURVE",
"348 285 OFFCURVE",
"389 364 CURVE",
"389 359 OFFCURVE",
"385 321 OFFCURVE",
"377 250 CURVE SMOOTH",
"372 203 OFFCURVE",
"369 165 OFFCURVE",
"369 136 CURVE SMOOTH",
"369 38 OFFCURVE",
"389 -11 OFFCURVE",
"430 -11 CURVE SMOOTH"
);
}
);
width = 516;
},
{
associatedMasterId = "CE757C0C-4E55-453C-A2E3-610759FCFE83";
layerId = "D8E98E05-6F99-4174-A799-9070338AE5B4";
name = Regular;
paths = (
{
closed = 1;
nodes = (
"1220 654 OFFCURVE",
"1215 662 OFFCURVE",
"1205 662 CURVE SMOOTH",
"1182 662 OFFCURVE",
"1153 631 OFFCURVE",
"1118 569 CURVE SMOOTH",
"1102 542 OFFCURVE",
"1087 505 OFFCURVE",
"1073 458 CURVE SMOOTH",
"1058 404 LINE",
"1041 377 LINE",
"1002 313 LINE SMOOTH",
"945 214 OFFCURVE",
"892 135 OFFCURVE",
"843 76 CURVE SMOOTH",
"771 -13 OFFCURVE",
"712 -58 OFFCURVE",
"665 -58 CURVE SMOOTH",
"633 -58 OFFCURVE",
"617 -35 OFFCURVE",
"617 11 CURVE SMOOTH",
"617 63 OFFCURVE",
"638 132 OFFCURVE",
"681 219 CURVE SMOOTH",
"748 353 OFFCURVE",
"781 458 OFFCURVE",
"781 535 CURVE SMOOTH",
"781 698 OFFCURVE",
"657 779 OFFCURVE",
"408 779 CURVE SMOOTH",
"315 779 OFFCURVE",
"230 761 OFFCURVE",
"155 724 CURVE SMOOTH",
"61 678 OFFCURVE",
"14 613 OFFCURVE",
"14 530 CURVE SMOOTH",
"14 488 OFFCURVE",
"27 443 OFFCURVE",
"53 396 CURVE SMOOTH",
"68 369 OFFCURVE",
"98 336 OFFCURVE",
"143 298 CURVE SMOOTH",
"192 255 OFFCURVE",
"230 234 OFFCURVE",
"255 234 CURVE SMOOTH",
"263 234 OFFCURVE",
"267 236 OFFCURVE",
"267 239 CURVE SMOOTH",
"267 241 OFFCURVE",
"266 242 OFFCURVE",
"265 243 CURVE",
"204 269 OFFCURVE",
"155 303 OFFCURVE",
"118 345 CURVE SMOOTH",
"75 394 OFFCURVE",
"54 449 OFFCURVE",
"54 510 CURVE SMOOTH",
"54 590 OFFCURVE",
"95 653 OFFCURVE",
"178 698 CURVE SMOOTH",
"245 735 OFFCURVE",
"323 754 OFFCURVE",
"410 754 CURVE SMOOTH",
"626 754 OFFCURVE",
"734 685 OFFCURVE",
"734 547 CURVE SMOOTH",
"734 474 OFFCURVE",
"701 372 OFFCURVE",
"636 243 CURVE SMOOTH",
"592 156 OFFCURVE",
"570 83 OFFCURVE",
"570 23 CURVE SMOOTH",
"570 -48 OFFCURVE",
"597 -83 OFFCURVE",
"650 -83 CURVE SMOOTH",
"712 -83 OFFCURVE",
"785 -31 OFFCURVE",
"870 74 CURVE SMOOTH",
"909 122 OFFCURVE",
"963 203 OFFCURVE",
"1034 316 CURVE",
"995 175 OFFCURVE",
"976 57 OFFCURVE",
"976 -40 CURVE SMOOTH",
"976 -165 OFFCURVE",
"1011 -236 OFFCURVE",
"1080 -254 CURVE SMOOTH",
"1085 -255 OFFCURVE",
"1091 -256 OFFCURVE",
"1096 -256 CURVE SMOOTH",
"1103 -256 OFFCURVE",
"1107 -254 OFFCURVE",
"1107 -251 CURVE SMOOTH",
"1107 -247 OFFCURVE",
"1101 -242 OFFCURVE",
"1088 -235 CURVE SMOOTH",
"1038 -209 OFFCURVE",
"1013 -146 OFFCURVE",
"1013 -46 CURVE SMOOTH",
"1013 52 OFFCURVE",
"1034 176 OFFCURVE",
"1077 326 CURVE SMOOTH",
"1095 386 LINE",
"1104 401 OFFCURVE",
"1111 411 OFFCURVE",
"1115 416 CURVE SMOOTH",
"1143 457 OFFCURVE",
"1165 492 OFFCURVE",
"1180 523 CURVE SMOOTH",
"1207 574 OFFCURVE",
"1220 613 OFFCURVE",
"1220 638 CURVE SMOOTH"
);
}
);
width = 1117;
}
);
note = U;
unicode = 0055;
},
{
color = 5;
glyphname = Udieresisacute;
lastChange = "2021-10-11 21:59:10 +0000";
layers = (
{
layerId = "CE757C0C-4E55-453C-A2E3-610759FCFE83";
paths = (
{
closed = 1;
nodes = (
"450 -11 OFFCURVE",
"472 2 OFFCURVE",
"495 28 CURVE SMOOTH",
"512 47 OFFCURVE",
"527 69 OFFCURVE",
"539 93 CURVE",
"540 94 OFFCURVE",
"540 95 OFFCURVE",
"540 96 CURVE SMOOTH",
"539 101 OFFCURVE",
"538 103 OFFCURVE",
"536 103 CURVE",
"513 58 OFFCURVE",
"490 36 OFFCURVE",
"469 36 CURVE SMOOTH",
"428 36 OFFCURVE",
"407 83 OFFCURVE",
"407 178 CURVE SMOOTH",
"407 263 OFFCURVE",
"421 370 OFFCURVE",
"449 499 CURVE SMOOTH",
"459 544 LINE",
"459 559 OFFCURVE",
"451 567 OFFCURVE",
"435 567 CURVE SMOOTH",
"418 567 OFFCURVE",
"406 549 OFFCURVE",
"401 512 CURVE SMOOTH",
"397 480 OFFCURVE",
"394 456 OFFCURVE",
"393 440 CURVE",
"381 406 OFFCURVE",
"369 376 OFFCURVE",
"356 351 CURVE SMOOTH",
"324 286 OFFCURVE",
"289 226 OFFCURVE",
"250 172 CURVE SMOOTH",
"191 89 OFFCURVE",
"141 48 OFFCURVE",
"100 48 CURVE SMOOTH",
"76 48 OFFCURVE",
"64 79 OFFCURVE",
"64 141 CURVE SMOOTH",
"64 194 OFFCURVE",
"76 258 OFFCURVE",
"101 335 CURVE SMOOTH",
"124 406 OFFCURVE",
"150 467 OFFCURVE",
"179 519 CURVE",
"180 522 OFFCURVE",
"181 525 OFFCURVE",
"181 527 CURVE SMOOTH",
"181 541 OFFCURVE",
"172 548 OFFCURVE",
"154 548 CURVE SMOOTH",
"151 548 OFFCURVE",
"149 547 OFFCURVE",
"148 546 CURVE",
"137 524 OFFCURVE",
"128 508 OFFCURVE",
"123 497 CURVE SMOOTH",
"111 473 OFFCURVE",
"98 461 OFFCURVE",
"84 461 CURVE SMOOTH",
"77 461 OFFCURVE",
"71 465 OFFCURVE",
"65 474 CURVE SMOOTH",
"64 475 OFFCURVE",
"62 475 OFFCURVE",
"60 476 CURVE",
"57 476 OFFCURVE",
"56 474 OFFCURVE",
"56 471 CURVE SMOOTH",
"56 458 OFFCURVE",
"75 442 OFFCURVE",
"90 442 CURVE SMOOTH",
"99 442 OFFCURVE",
"110 446 OFFCURVE",
"121 455 CURVE",
"88 368 OFFCURVE",
"67 308 OFFCURVE",
"57 275 CURVE SMOOTH",
"36 204 OFFCURVE",
"25 142 OFFCURVE",
"25 89 CURVE SMOOTH",
"25 30 OFFCURVE",
"38 0 OFFCURVE",
"64 0 CURVE SMOOTH",
"115 0 OFFCURVE",
"177 49 OFFCURVE",
"252 146 CURVE SMOOTH",
"303 213 OFFCURVE",
"348 285 OFFCURVE",
"389 364 CURVE",
"389 359 OFFCURVE",
"385 321 OFFCURVE",
"377 250 CURVE SMOOTH",
"372 203 OFFCURVE",
"369 165 OFFCURVE",
"369 136 CURVE SMOOTH",
"369 38 OFFCURVE",
"389 -11 OFFCURVE",
"430 -11 CURVE SMOOTH"
);
},
{
closed = 1;
nodes = (
"280 612 OFFCURVE",
"289 618 OFFCURVE",
"289 631 CURVE SMOOTH",
"289 640 OFFCURVE",
"300 669 OFFCURVE",
"300 681 CURVE SMOOTH",
"300 682 OFFCURVE",
"298 683 OFFCURVE",
"295 683 CURVE SMOOTH",
"274 683 OFFCURVE",
"248 658 OFFCURVE",
"248 637 CURVE SMOOTH",
"248 620 OFFCURVE",
"253 612 OFFCURVE",
"262 612 CURVE SMOOTH"
);
},
{
closed = 1;
nodes = (
"376 612 OFFCURVE",
"385 618 OFFCURVE",
"385 631 CURVE SMOOTH",
"385 640 OFFCURVE",
"396 669 OFFCURVE",
"396 681 CURVE SMOOTH",
"396 682 OFFCURVE",
"394 683 OFFCURVE",
"391 683 CURVE SMOOTH",
"370 683 OFFCURVE",
"344 658 OFFCURVE",
"344 637 CURVE SMOOTH",
"344 620 OFFCURVE",
"349 612 OFFCURVE",
"358 612 CURVE SMOOTH"
);
},
{
closed = 1;
nodes = (
"291 783 OFFCURVE",
"309 795 OFFCURVE",
"337 815 CURVE SMOOTH",
"364 835 OFFCURVE",
"380 849 OFFCURVE",
"389 855 CURVE",
"391 859 OFFCURVE",
"393 861 OFFCURVE",
"393 864 CURVE SMOOTH",
"392 866 LINE SMOOTH",
"391 873 OFFCURVE",
"381 880 OFFCURVE",
"374 880 CURVE",
"374 880 OFFCURVE",
"373 880 OFFCURVE",
"373 880 CURVE",
"369 878 LINE",
"310 821 LINE SMOOTH",
"296 806 OFFCURVE",
"287 795 OFFCURVE",
"282 785 CURVE",
"282 783 OFFCURVE",
"282 781 OFFCURVE",
"286 782 CURVE SMOOTH"
);
}
);
width = 516;
}
);
unicode = 01D7;
},
{
color = 5;
glyphname = V;
lastChange = "2021-10-11 21:59:08 +0000";
layers = (
{
layerId = "CE757C0C-4E55-453C-A2E3-610759FCFE83";
paths = (
{
closed = 1;
nodes = (
"217 -35 OFFCURVE",
"227 -23 OFFCURVE",
"227 0 CURVE SMOOTH",
"227 15 OFFCURVE",
"227 24 OFFCURVE",
"228 27 CURVE SMOOTH",
"256 110 OFFCURVE",
"291 197 OFFCURVE",
"333 286 CURVE SMOOTH",
"384 393 OFFCURVE",
"430 471 OFFCURVE",
"472 522 CURVE SMOOTH",
"484 536 OFFCURVE",
"493 543 OFFCURVE",
"500 543 CURVE SMOOTH",
"511 543 OFFCURVE",
"521 519 OFFCURVE",
"522 519 CURVE SMOOTH",
"526 519 OFFCURVE",
"528 525 OFFCURVE",
"528 536 CURVE SMOOTH",
"528 561 OFFCURVE",
"519 574 OFFCURVE",
"500 574 CURVE SMOOTH",
"465 574 OFFCURVE",
"410 495 OFFCURVE",
"337 337 CURVE SMOOTH",
"203 37 LINE",
"196 60 OFFCURVE",
"184 116 OFFCURVE",
"168 205 CURVE SMOOTH",
"150 307 OFFCURVE",
"136 378 OFFCURVE",
"126 419 CURVE SMOOTH",
"107 493 OFFCURVE",
"87 537 OFFCURVE",
"65 551 CURVE SMOOTH",
"63 552 OFFCURVE",
"61 553 OFFCURVE",
"58 553 CURVE SMOOTH",
"41 553 OFFCURVE",
"32 536 OFFCURVE",
"32 501 CURVE SMOOTH",
"32 488 OFFCURVE",
"36 477 OFFCURVE",
"43 469 CURVE SMOOTH",
"65 443 LINE",
"86 408 OFFCURVE",
"105 351 OFFCURVE",
"121 270 CURVE SMOOTH",
"130 218 OFFCURVE",
"140 166 OFFCURVE",
"150 114 CURVE SMOOTH",
"165 37 OFFCURVE",
"177 -11 OFFCURVE",
"188 -31 CURVE",
"189 -34 OFFCURVE",
"192 -35 OFFCURVE",
"196 -35 CURVE SMOOTH"
);
}
);
width = 403;
},
{
associatedMasterId = "CE757C0C-4E55-453C-A2E3-610759FCFE83";
layerId = "D8E98E05-6F99-4174-A799-9070338AE5B4";
name = Regular;
paths = (
{
closed = 1;
nodes = (
"1351 785 OFFCURVE",
"1333 800 OFFCURVE",
"1297 800 CURVE SMOOTH",
"1285 800 OFFCURVE",
"1272 798 OFFCURVE",
"1257 793 CURVE SMOOTH",
"1177 766 OFFCURVE",
"1088 694 OFFCURVE",
"989 579 CURVE SMOOTH",
"904 479 OFFCURVE",
"804 320 OFFCURVE",
"690 101 CURVE",
"707 166 OFFCURVE",
"716 229 OFFCURVE",
"716 291 CURVE SMOOTH",
"716 403 OFFCURVE",
"688 490 OFFCURVE",
"631 551 CURVE SMOOTH",
"572 614 OFFCURVE",
"488 645 OFFCURVE",
"377 645 CURVE SMOOTH",
"293 645 OFFCURVE",
"215 628 OFFCURVE",
"144 594 CURVE SMOOTH",
"55 551 OFFCURVE",
"10 493 OFFCURVE",
"10 419 CURVE SMOOTH",
"10 356 OFFCURVE",
"43 286 OFFCURVE",
"110 209 CURVE SMOOTH",
"179 130 OFFCURVE",
"243 90 OFFCURVE",
"304 90 CURVE SMOOTH",
"311 90 OFFCURVE",
"315 91 OFFCURVE",
"315 94 CURVE SMOOTH",
"315 96 OFFCURVE",
"314 98 OFFCURVE",
"312 99 CURVE SMOOTH",
"278 113 OFFCURVE",
"255 124 OFFCURVE",
"242 131 CURVE SMOOTH",
"191 162 OFFCURVE",
"147 199 OFFCURVE",
"112 243 CURVE SMOOTH",
"71 295 OFFCURVE",
"50 346 OFFCURVE",
"50 397 CURVE SMOOTH",
"50 468 OFFCURVE",
"90 525 OFFCURVE",
"170 569 CURVE SMOOTH",
"237 606 OFFCURVE",
"308 624 OFFCURVE",
"385 624 CURVE SMOOTH",
"577 624 OFFCURVE",
"673 510 OFFCURVE",
"673 283 CURVE SMOOTH",
"673 211 OFFCURVE",
"663 140 OFFCURVE",
"644 69 CURVE SMOOTH",
"623 -11 OFFCURVE",
"592 -76 OFFCURVE",
"553 -125 CURVE SMOOTH",
"548 -131 OFFCURVE",
"546 -136 OFFCURVE",
"546 -141 CURVE SMOOTH",
"546 -145 OFFCURVE",
"548 -147 OFFCURVE",
"552 -147 CURVE SMOOTH",
"565 -147 OFFCURVE",
"584 -126 OFFCURVE",
"610 -83 CURVE SMOOTH",
"628 -54 OFFCURVE",
"643 -26 OFFCURVE",
"655 0 CURVE",
"659 5 OFFCURVE",
"663 11 OFFCURVE",
"668 20 CURVE SMOOTH",
"727 135 OFFCURVE",
"777 227 OFFCURVE",
"818 296 CURVE SMOOTH",
"913 457 OFFCURVE",
"1017 581 OFFCURVE",
"1130 669 CURVE SMOOTH",
"1206 729 OFFCURVE",
"1264 759 OFFCURVE",
"1303 759 CURVE SMOOTH",
"1311 759 OFFCURVE",
"1320 756 OFFCURVE",
"1329 751 CURVE SMOOTH",
"1343 744 LINE",
"1348 744 OFFCURVE",
"1351 748 OFFCURVE",
"1351 756 CURVE SMOOTH"
);
}
);
width = 822;
}
);
note = V;
unicode = 0056;
},
{
color = 5;
glyphname = W;
lastChange = "2021-10-11 21:59:10 +0000";
layers = (
{
layerId = "CE757C0C-4E55-453C-A2E3-610759FCFE83";
paths = (
{
closed = 1;
nodes = (
"140 -1 OFFCURVE",
"194 62 OFFCURVE",
"269 189 CURVE SMOOTH",
"411 432 LINE",
"411 419 OFFCURVE",
"410 406 OFFCURVE",
"410 393 CURVE SMOOTH",
"410 321 OFFCURVE",
"417 252 OFFCURVE",
"430 186 CURVE SMOOTH",
"453 67 OFFCURVE",
"493 8 OFFCURVE",
"548 8 CURVE SMOOTH",
"595 8 OFFCURVE",
"637 38 OFFCURVE",
"676 99 CURVE SMOOTH",
"731 186 OFFCURVE",
"758 282 OFFCURVE",
"758 387 CURVE SMOOTH",
"758 438 OFFCURVE",
"749 480 OFFCURVE",
"732 513 CURVE SMOOTH",
"710 556 OFFCURVE",
"676 578 OFFCURVE",
"630 578 CURVE SMOOTH",
"618 578 OFFCURVE",
"593 568 OFFCURVE",
"593 557 CURVE SMOOTH",
"593 552 OFFCURVE",
"596 550 OFFCURVE",
"602 549 CURVE SMOOTH",
"629 544 OFFCURVE",
"643 540 OFFCURVE",
"646 539 CURVE SMOOTH",
"703 514 OFFCURVE",
"731 450 OFFCURVE",
"731 346 CURVE SMOOTH",
"731 283 OFFCURVE",
"719 224 OFFCURVE",
"696 167 CURVE SMOOTH",
"665 93 OFFCURVE",
"624 56 OFFCURVE",
"571 56 CURVE SMOOTH",
"495 56 OFFCURVE",
"454 166 OFFCURVE",
"448 385 CURVE SMOOTH",
"447 434 OFFCURVE",
"446 468 OFFCURVE",
"446 487 CURVE SMOOTH",
"445 496 OFFCURVE",
"443 500 OFFCURVE",
"440 500 CURVE SMOOTH",
"429 500 OFFCURVE",
"403 461 OFFCURVE",
"360 384 CURVE SMOOTH",
"291 261 OFFCURVE",
"251 189 OFFCURVE",
"239 169 CURVE SMOOTH",
"192 92 OFFCURVE",
"159 53 OFFCURVE",
"138 53 CURVE SMOOTH",
"121 53 OFFCURVE",
"112 83 OFFCURVE",
"112 143 CURVE SMOOTH",
"112 176 OFFCURVE",
"115 225 OFFCURVE",
"120 291 CURVE SMOOTH",
"125 357 OFFCURVE",
"128 406 OFFCURVE",
"128 439 CURVE SMOOTH",
"128 467 OFFCURVE",
"126 487 OFFCURVE",
"122 500 CURVE",
"123 502 OFFCURVE",
"124 504 OFFCURVE",
"124 506 CURVE SMOOTH",
"124 517 OFFCURVE",
"115 523 OFFCURVE",
"98 523 CURVE SMOOTH",
"91 523 OFFCURVE",
"86 521 OFFCURVE",
"84 518 CURVE",
"81 494 OFFCURVE",
"78 475 OFFCURVE",
"75 462 CURVE SMOOTH",
"69 432 OFFCURVE",
"59 417 OFFCURVE",
"45 417 CURVE SMOOTH",
"40 417 OFFCURVE",
"34 420 OFFCURVE",
"27 425 CURVE",
"24 425 LINE SMOOTH",
"21 425 OFFCURVE",
"19 424 OFFCURVE",
"19 422 CURVE SMOOTH",
"19 413 OFFCURVE",
"41 402 OFFCURVE",
"52 402 CURVE SMOOTH",
"63 402 OFFCURVE",
"74 409 OFFCURVE",
"85 422 CURVE",
"85 385 OFFCURVE",
"83 329 OFFCURVE",
"79 255 CURVE SMOOTH",
"76 181 OFFCURVE",
"74 125 OFFCURVE",
"74 88 CURVE SMOOTH",
"74 29 OFFCURVE",
"85 -1 OFFCURVE",
"107 -1 CURVE SMOOTH"
);
}
);
width = 747;
},
{
associatedMasterId = "CE757C0C-4E55-453C-A2E3-610759FCFE83";
layerId = "D8E98E05-6F99-4174-A799-9070338AE5B4";
name = Regular;
paths = (
{
closed = 1;
nodes = (
"1125 427 OFFCURVE",
"1093 472 OFFCURVE",
"1029 472 CURVE SMOOTH",
"1012 472 OFFCURVE",
"1004 467 OFFCURVE",
"1004 456 CURVE SMOOTH",
"1004 453 OFFCURVE",
"1006 451 OFFCURVE",
"1009 451 CURVE SMOOTH",
"1012 451 OFFCURVE",
"1026 458 OFFCURVE",
"1033 458 CURVE SMOOTH",
"1072 458 OFFCURVE",
"1091 412 OFFCURVE",
"1091 320 CURVE SMOOTH",
"1091 264 OFFCURVE",
"1079 211 OFFCURVE",
"1056 161 CURVE SMOOTH",
"1031 108 OFFCURVE",
"996 66 OFFCURVE",
"952 36 CURVE SMOOTH",
"921 15 OFFCURVE",
"893 5 OFFCURVE",
"866 5 CURVE SMOOTH",
"811 5 OFFCURVE",
"784 41 OFFCURVE",
"784 113 CURVE SMOOTH",
"784 121 OFFCURVE",
"785 132 OFFCURVE",
"786 145 CURVE SMOOTH",
"799 263 OFFCURVE",
"827 343 OFFCURVE",
"872 384 CURVE",
"897 400 OFFCURVE",
"909 408 OFFCURVE",
"909 408 CURVE",
"908 411 OFFCURVE",
"903 412 OFFCURVE",
"895 412 CURVE SMOOTH",
"888 412 OFFCURVE",
"875 408 OFFCURVE",
"857 399 CURVE SMOOTH",
"840 391 OFFCURVE",
"828 384 OFFCURVE",
"821 378 CURVE",
"772 320 OFFCURVE",
"730 267 OFFCURVE",
"694 218 CURVE SMOOTH",
"611 107 OFFCURVE",
"536 -3 OFFCURVE",
"469 -112 CURVE",
"519 37 LINE SMOOTH",
"585 232 OFFCURVE",
"618 383 OFFCURVE",
"618 490 CURVE SMOOTH",
"618 643 OFFCURVE",
"554 720 OFFCURVE",
"427 720 CURVE SMOOTH",
"338 720 OFFCURVE",
"249 675 OFFCURVE",
"162 585 CURVE SMOOTH",
"75 495 OFFCURVE",
"31 405 OFFCURVE",
"31 316 CURVE SMOOTH",
"31 252 OFFCURVE",
"51 214 OFFCURVE",
"90 201 CURVE",
"95 203 LINE",
"91 207 OFFCURVE",
"87 210 OFFCURVE",
"84 211 CURVE",
"65 224 OFFCURVE",
"55 247 OFFCURVE",
"55 280 CURVE SMOOTH",
"55 321 OFFCURVE",
"68 369 OFFCURVE",
"93 426 CURVE SMOOTH",
"126 499 OFFCURVE",
"169 561 OFFCURVE",
"221 610 CURVE SMOOTH",
"285 670 OFFCURVE",
"351 700 OFFCURVE",
"420 700 CURVE SMOOTH",
"523 700 OFFCURVE",
"575 620 OFFCURVE",
"575 459 CURVE SMOOTH",
"575 339 OFFCURVE",
"543 182 OFFCURVE",
"478 -12 CURVE SMOOTH",
"441 -113 LINE",
"441 -126 OFFCURVE",
"461 -139 OFFCURVE",
"476 -139 CURVE SMOOTH",
"481 -139 OFFCURVE",
"489 -130 OFFCURVE",
"498 -111 CURVE SMOOTH",
"526 -54 OFFCURVE",
"567 15 OFFCURVE",
"621 96 CURVE SMOOTH",
"686 193 OFFCURVE",
"736 254 OFFCURVE",
"771 277 CURVE",
"755 223 OFFCURVE",
"747 167 OFFCURVE",
"747 110 CURVE SMOOTH",
"747 23 OFFCURVE",
"778 -20 OFFCURVE",
"841 -20 CURVE SMOOTH",
"874 -20 OFFCURVE",
"910 -7 OFFCURVE",
"948 18 CURVE SMOOTH",
"1001 53 OFFCURVE",
"1043 99 OFFCURVE",
"1076 157 CURVE SMOOTH",
"1109 216 OFFCURVE",
"1125 276 OFFCURVE",
"1125 337 CURVE SMOOTH"
);
}
);
width = 1131;
}
);
note = W;
unicode = 0057;
},
{
color = 5;
glyphname = X;
lastChange = "2021-10-11 21:59:08 +0000";
layers = (
{
layerId = "CE757C0C-4E55-453C-A2E3-610759FCFE83";
paths = (
{
closed = 1;
nodes = (
"-56 -199 OFFCURVE",
"-53 -197 OFFCURVE",
"-52 -192 CURVE SMOOTH",
"-45 -157 OFFCURVE",
"-40 -134 OFFCURVE",
"-37 -123 CURVE SMOOTH",
"-3 -16 OFFCURVE",
"74 97 OFFCURVE",
"195 218 CURVE",
"224 154 OFFCURVE",
"247 109 OFFCURVE",
"264 82 CURVE SMOOTH",
"301 25 OFFCURVE",
"338 -4 OFFCURVE",
"375 -4 CURVE SMOOTH",
"420 -4 OFFCURVE",
"455 34 OFFCURVE",
"482 109 CURVE SMOOTH",
"503 167 OFFCURVE",
"513 224 OFFCURVE",
"513 280 CURVE SMOOTH",
"513 292 OFFCURVE",
"504 319 OFFCURVE",
"495 319 CURVE SMOOTH",
"493 319 OFFCURVE",
"491 318 OFFCURVE",
"490 317 CURVE",
"493 311 OFFCURVE",
"494 296 OFFCURVE",
"494 272 CURVE SMOOTH",
"494 221 OFFCURVE",
"488 176 OFFCURVE",
"476 137 CURVE SMOOTH",
"458 80 OFFCURVE",
"429 51 OFFCURVE",
"390 51 CURVE SMOOTH",
"339 51 OFFCURVE",
"282 123 OFFCURVE",
"220 268 CURVE",
"221 273 OFFCURVE",
"244 303 OFFCURVE",
"289 358 CURVE SMOOTH",
"334 413 OFFCURVE",
"362 444 OFFCURVE",
"371 451 CURVE",
"386 458 OFFCURVE",
"396 462 OFFCURVE",
"403 463 CURVE",
"414 470 OFFCURVE",
"424 482 OFFCURVE",
"433 499 CURVE",
"436 502 OFFCURVE",
"443 516 OFFCURVE",
"455 540 CURVE SMOOTH",
"459 550 LINE",
"459 553 OFFCURVE",
"458 555 OFFCURVE",
"455 555 CURVE SMOOTH",
"453 555 OFFCURVE",
"450 554 OFFCURVE",
"447 552 CURVE SMOOTH",
"412 530 OFFCURVE",
"371 489 OFFCURVE",
"324 428 CURVE SMOOTH",
"214 286 LINE",
"167 389 OFFCURVE",
"131 467 OFFCURVE",
"108 519 CURVE",
"101 521 OFFCURVE",
"94 522 OFFCURVE",
"87 522 CURVE SMOOTH",
"70 522 OFFCURVE",
"62 517 OFFCURVE",
"62 508 CURVE SMOOTH",
"62 506 OFFCURVE",
"66 494 OFFCURVE",
"74 472 CURVE SMOOTH",
"83 451 OFFCURVE",
"87 434 OFFCURVE",
"87 423 CURVE SMOOTH",
"87 406 OFFCURVE",
"80 398 OFFCURVE",
"66 398 CURVE SMOOTH",
"63 398 OFFCURVE",
"61 398 OFFCURVE",
"58 399 CURVE",
"54 398 OFFCURVE",
"52 396 OFFCURVE",
"52 393 CURVE SMOOTH",
"52 388 OFFCURVE",
"59 385 OFFCURVE",
"74 385 CURVE SMOOTH",
"90 385 OFFCURVE",
"101 394 OFFCURVE",
"107 411 CURVE",
"158 308 OFFCURVE",
"183 254 OFFCURVE",
"183 251 CURVE",
"170 225 OFFCURVE",
"143 187 OFFCURVE",
"103 136 CURVE SMOOTH",
"56 77 OFFCURVE",
"27 39 OFFCURVE",
"15 20 CURVE SMOOTH",
"-12 -23 OFFCURVE",
"-32 -56 OFFCURVE",
"-43 -80 CURVE SMOOTH",
"-60 -117 OFFCURVE",
"-69 -155 OFFCURVE",
"-69 -192 CURVE SMOOTH",
"-69 -197 OFFCURVE",
"-66 -199 OFFCURVE",
"-61 -199 CURVE SMOOTH"
);
}
);
width = 528;
},
{
associatedMasterId = "CE757C0C-4E55-453C-A2E3-610759FCFE83";
layerId = "D8E98E05-6F99-4174-A799-9070338AE5B4";
name = Regular;
paths = (
{
closed = 1;
nodes = (
"930 773 OFFCURVE",
"927 777 OFFCURVE",
"922 777 CURVE SMOOTH",
"919 777 OFFCURVE",
"916 776 OFFCURVE",
"913 775 CURVE",
"786 703 OFFCURVE",
"629 541 OFFCURVE",
"441 290 CURVE",
"399 395 OFFCURVE",
"365 482 OFFCURVE",
"339 551 CURVE SMOOTH",
"298 659 OFFCURVE",
"242 713 OFFCURVE",
"171 713 CURVE SMOOTH",
"130 713 OFFCURVE",
"99 696 OFFCURVE",
"76 661 CURVE SMOOTH",
"57 632 OFFCURVE",
"47 596 OFFCURVE",
"47 553 CURVE SMOOTH",
"47 532 OFFCURVE",
"52 500 OFFCURVE",
"63 459 CURVE SMOOTH",
"76 410 OFFCURVE",
"89 385 OFFCURVE",
"104 385 CURVE SMOOTH",
"110 385 OFFCURVE",
"113 388 OFFCURVE",
"113 393 CURVE",
"97 430 OFFCURVE",
"89 460 OFFCURVE",
"89 482 CURVE SMOOTH",
"89 533 OFFCURVE",
"107 569 OFFCURVE",
"142 591 CURVE",
"144 594 LINE",
"144 595 OFFCURVE",
"143 596 OFFCURVE",
"141 597 CURVE",
"126 597 OFFCURVE",
"111 581 OFFCURVE",
"96 550 CURVE SMOOTH",
"83 523 OFFCURVE",
"77 501 OFFCURVE",
"77 484 CURVE SMOOTH",
"77 473 OFFCURVE",
"78 463 OFFCURVE",
"81 454 CURVE SMOOTH",
"71 489 OFFCURVE",
"66 522 OFFCURVE",
"66 552 CURVE SMOOTH",
"66 584 OFFCURVE",
"72 612 OFFCURVE",
"83 635 CURVE SMOOTH",
"98 664 OFFCURVE",
"120 678 OFFCURVE",
"149 678 CURVE SMOOTH",
"205 678 OFFCURVE",
"256 629 OFFCURVE",
"301 530 CURVE SMOOTH",
"420 262 LINE",
"260 42 LINE SMOOTH",
"113 -160 OFFCURVE",
"8 -279 OFFCURVE",
"-53 -314 CURVE SMOOTH",
"-74 -326 OFFCURVE",
"-93 -332 OFFCURVE",
"-111 -332 CURVE SMOOTH",
"-140 -332 OFFCURVE",
"-162 -317 OFFCURVE",
"-177 -287 CURVE SMOOTH",
"-190 -263 OFFCURVE",
"-196 -235 OFFCURVE",
"-196 -203 CURVE SMOOTH",
"-196 -188 OFFCURVE",
"-191 -165 OFFCURVE",
"-182 -134 CURVE SMOOTH",
"-173 -104 OFFCURVE",
"-168 -83 OFFCURVE",
"-168 -70 CURVE SMOOTH",
"-168 -65 OFFCURVE",
"-171 -63 OFFCURVE",
"-176 -63 CURVE SMOOTH",
"-179 -63 OFFCURVE",
"-181 -65 OFFCURVE",
"-182 -68 CURVE SMOOTH",
"-213 -131 OFFCURVE",
"-228 -183 OFFCURVE",
"-228 -224 CURVE SMOOTH",
"-228 -255 OFFCURVE",
"-217 -284 OFFCURVE",
"-194 -309 CURVE SMOOTH",
"-171 -334 OFFCURVE",
"-144 -347 OFFCURVE",
"-112 -347 CURVE SMOOTH",
"-65 -347 OFFCURVE",
"5 -297 OFFCURVE",
"96 -196 CURVE SMOOTH",
"137 -151 OFFCURVE",
"195 -80 OFFCURVE",
"270 19 CURVE SMOOTH",
"432 232 LINE",
"487 109 OFFCURVE",
"523 36 OFFCURVE",
"538 15 CURVE SMOOTH",
"567 -24 OFFCURVE",
"601 -43 OFFCURVE",
"639 -43 CURVE SMOOTH",
"674 -43 OFFCURVE",
"707 -29 OFFCURVE",
"739 0 CURVE SMOOTH",
"766 25 OFFCURVE",
"787 56 OFFCURVE",
"802 91 CURVE SMOOTH",
"813 117 OFFCURVE",
"818 133 OFFCURVE",
"818 140 CURVE SMOOTH",
"818 142 OFFCURVE",
"817 143 OFFCURVE",
"816 143 CURVE SMOOTH",
"811 143 OFFCURVE",
"802 130 OFFCURVE",
"788 105 CURVE SMOOTH",
"771 72 OFFCURVE",
"755 48 OFFCURVE",
"742 33 CURVE SMOOTH",
"719 7 OFFCURVE",
"697 -6 OFFCURVE",
"675 -6 CURVE SMOOTH",
"609 -6 OFFCURVE",
"536 83 OFFCURVE",
"455 261 CURVE",
"620 476 OFFCURVE",
"749 619 OFFCURVE",
"840 688 CURVE",
"909 735 LINE SMOOTH",
"923 744 OFFCURVE",
"930 754 OFFCURVE",
"930 765 CURVE SMOOTH"
);
}
);
width = 820;
}
);
note = X;
unicode = 0058;
},
{
color = 5;
glyphname = Y;
lastChange = "2021-10-11 21:59:08 +0000";
layers = (
{
layerId = "CE757C0C-4E55-453C-A2E3-610759FCFE83";
paths = (
{
closed = 1;
nodes = (
"189 -208 OFFCURVE",
"218 -194 OFFCURVE",
"248 -165 CURVE SMOOTH",
"255 -159 OFFCURVE",
"258 -154 OFFCURVE",
"258 -150 CURVE SMOOTH",
"258 -149 OFFCURVE",
"257 -148 OFFCURVE",
"256 -148 CURVE SMOOTH",
"254 -148 OFFCURVE",
"242 -154 OFFCURVE",
"221 -166 CURVE SMOOTH",
"200 -178 OFFCURVE",
"185 -184 OFFCURVE",
"176 -184 CURVE SMOOTH",
"157 -184 OFFCURVE",
"148 -162 OFFCURVE",
"148 -117 CURVE SMOOTH",
"148 -38 OFFCURVE",
"195 81 OFFCURVE",
"288 240 CURVE SMOOTH",
"363 367 OFFCURVE",
"438 476 OFFCURVE",
"515 565 CURVE SMOOTH",
"518 569 OFFCURVE",
"520 572 OFFCURVE",
"520 574 CURVE SMOOTH",
"520 579 OFFCURVE",
"515 582 OFFCURVE",
"506 582 CURVE SMOOTH",
"494 582 OFFCURVE",
"484 577 OFFCURVE",
"475 566 CURVE SMOOTH",
"460 547 OFFCURVE",
"437 534 OFFCURVE",
"408 525 CURVE SMOOTH",
"397 522 OFFCURVE",
"392 517 OFFCURVE",
"392 511 CURVE SMOOTH",
"392 508 OFFCURVE",
"395 506 OFFCURVE",
"402 506 CURVE SMOOTH",
"405 506 OFFCURVE",
"414 508 OFFCURVE",
"427 512 CURVE",
"428 513 OFFCURVE",
"429 513 OFFCURVE",
"430 513 CURVE",
"426 509 OFFCURVE",
"416 496 OFFCURVE",
"401 473 CURVE SMOOTH",
"348 394 OFFCURVE",
"290 294 OFFCURVE",
"228 172 CURVE SMOOTH",
"151 20 OFFCURVE",
"112 -84 OFFCURVE",
"112 -139 CURVE SMOOTH",
"112 -185 OFFCURVE",
"128 -208 OFFCURVE",
"161 -208 CURVE SMOOTH"
);
},
{
closed = 1;
nodes = (
"216 144 OFFCURVE",
"222 157 OFFCURVE",
"222 179 CURVE SMOOTH",
"220 219 LINE SMOOTH",
"217 276 OFFCURVE",
"199 338 OFFCURVE",
"166 405 CURVE SMOOTH",
"126 486 OFFCURVE",
"82 526 OFFCURVE",
"35 526 CURVE SMOOTH",
"17 526 OFFCURVE",
"8 518 OFFCURVE",
"8 501 CURVE SMOOTH",
"8 498 OFFCURVE",
"17 483 OFFCURVE",
"34 458 CURVE SMOOTH",
"52 433 OFFCURVE",
"61 415 OFFCURVE",
"61 403 CURVE SMOOTH",
"61 390 OFFCURVE",
"53 383 OFFCURVE",
"38 382 CURVE",
"35 380 OFFCURVE",
"34 378 OFFCURVE",
"34 376 CURVE SMOOTH",
"34 373 OFFCURVE",
"37 372 OFFCURVE",
"43 372 CURVE SMOOTH",
"69 372 OFFCURVE",
"82 385 OFFCURVE",
"82 411 CURVE SMOOTH",
"82 423 OFFCURVE",
"79 438 OFFCURVE",
"73 456 CURVE",
"111 425 OFFCURVE",
"143 381 OFFCURVE",
"169 322 CURVE SMOOTH",
"194 266 OFFCURVE",
"206 212 OFFCURVE",
"206 161 CURVE SMOOTH",
"206 154 OFFCURVE",
"206 147 OFFCURVE",
"205 140 CURVE"
);
}
);
width = 364;
},
{
associatedMasterId = "CE757C0C-4E55-453C-A2E3-610759FCFE83";
layerId = "D8E98E05-6F99-4174-A799-9070338AE5B4";
name = Regular;
paths = (
{
closed = 1;
nodes = (
"1174 759 OFFCURVE",
"1166 762 OFFCURVE",
"1151 762 CURVE SMOOTH",
"1111 762 OFFCURVE",
"1060 723 OFFCURVE",
"997 645 CURVE",
"998 681 OFFCURVE",
"999 701 OFFCURVE",
"999 706 CURVE SMOOTH",
"999 730 OFFCURVE",
"982 768 OFFCURVE",
"959 768 CURVE SMOOTH",
"955 768 OFFCURVE",
"953 766 OFFCURVE",
"953 761 CURVE SMOOTH",
"953 671 OFFCURVE",
"952 612 OFFCURVE",
"951 585 CURVE",
"878 483 OFFCURVE",
"787 328 OFFCURVE",
"679 121 CURVE",
"698 189 OFFCURVE",
"707 256 OFFCURVE",
"707 323 CURVE SMOOTH",
"707 438 OFFCURVE",
"680 528 OFFCURVE",
"627 592 CURVE SMOOTH",
"570 661 OFFCURVE",
"484 695 OFFCURVE",
"371 695 CURVE SMOOTH",
"287 695 OFFCURVE",
"209 678 OFFCURVE",
"138 644 CURVE SMOOTH",
"49 602 OFFCURVE",
"4 543 OFFCURVE",
"4 468 CURVE SMOOTH",
"4 406 OFFCURVE",
"38 336 OFFCURVE",
"105 259 CURVE SMOOTH",
"174 180 OFFCURVE",
"238 140 OFFCURVE",
"299 140 CURVE SMOOTH",
"306 140 OFFCURVE",
"309 141 OFFCURVE",
"309 144 CURVE SMOOTH",
"309 146 OFFCURVE",
"308 148 OFFCURVE",
"306 149 CURVE SMOOTH",
"269 164 OFFCURVE",
"246 175 OFFCURVE",
"236 181 CURVE SMOOTH",
"186 210 OFFCURVE",
"143 248 OFFCURVE",
"107 293 CURVE SMOOTH",
"64 346 OFFCURVE",
"43 397 OFFCURVE",
"43 447 CURVE SMOOTH",
"43 518 OFFCURVE",
"83 575 OFFCURVE",
"163 619 CURVE SMOOTH",
"231 656 OFFCURVE",
"303 675 OFFCURVE",
"379 675 CURVE SMOOTH",
"479 675 OFFCURVE",
"554 642 OFFCURVE",
"603 576 CURVE SMOOTH",
"646 517 OFFCURVE",
"668 437 OFFCURVE",
"668 334 CURVE SMOOTH",
"668 219 OFFCURVE",
"645 111 OFFCURVE",
"599 11 CURVE",
"484 30 OFFCURVE",
"392 39 OFFCURVE",
"324 39 CURVE SMOOTH",
"258 39 OFFCURVE",
"207 31 OFFCURVE",
"172 14 CURVE SMOOTH",
"122 -10 OFFCURVE",
"80 -45 OFFCURVE",
"45 -90 CURVE SMOOTH",
"8 -139 OFFCURVE",
"-11 -190 OFFCURVE",
"-11 -242 CURVE SMOOTH",
"-11 -272 OFFCURVE",
"-4 -300 OFFCURVE",
"10 -326 CURVE SMOOTH",
"26 -359 OFFCURVE",
"48 -375 OFFCURVE",
"76 -375 CURVE SMOOTH",
"91 -375 OFFCURVE",
"101 -372 OFFCURVE",
"106 -366 CURVE",
"75 -363 OFFCURVE",
"49 -348 OFFCURVE",
"30 -323 CURVE SMOOTH",
"11 -298 OFFCURVE",
"1 -269 OFFCURVE",
"1 -236 CURVE SMOOTH",
"1 -196 OFFCURVE",
"16 -155 OFFCURVE",
"46 -113 CURVE SMOOTH",
"80 -65 OFFCURVE",
"122 -32 OFFCURVE",
"171 -13 CURVE SMOOTH",
"211 2 OFFCURVE",
"265 10 OFFCURVE",
"333 10 CURVE SMOOTH",
"398 10 OFFCURVE",
"483 2 OFFCURVE",
"586 -15 CURVE",
"577 -35 OFFCURVE",
"564 -55 OFFCURVE",
"547 -75 CURVE SMOOTH",
"542 -81 OFFCURVE",
"539 -86 OFFCURVE",
"539 -91 CURVE SMOOTH",
"539 -95 OFFCURVE",
"541 -97 OFFCURVE",
"546 -97 CURVE SMOOTH",
"557 -97 OFFCURVE",
"579 -71 OFFCURVE",
"614 -20 CURVE",
"849 -59 LINE",
"802 -158 OFFCURVE",
"733 -242 OFFCURVE",
"642 -311 CURVE SMOOTH",
"544 -386 OFFCURVE",
"444 -423 OFFCURVE",
"341 -423 CURVE SMOOTH",
"201 -423 OFFCURVE",
"95 -347 OFFCURVE",
"50 -215 CURVE",
"47 -211 LINE",
"43 -212 OFFCURVE",
"41 -218 OFFCURVE",
"41 -227 CURVE SMOOTH",
"41 -232 OFFCURVE",
"42 -238 OFFCURVE",
"45 -245 CURVE",
"65 -310 OFFCURVE",
"104 -359 OFFCURVE",
"162 -392 CURVE SMOOTH",
"215 -423 OFFCURVE",
"277 -438 OFFCURVE",
"349 -438 CURVE SMOOTH",
"417 -438 OFFCURVE",
"485 -424 OFFCURVE",
"552 -397 CURVE SMOOTH",
"689 -343 OFFCURVE",
"796 -232 OFFCURVE",
"873 -64 CURVE",
"965 -79 OFFCURVE",
"1021 -86 OFFCURVE",
"1040 -86 CURVE SMOOTH",
"1105 -86 OFFCURVE",
"1145 -67 OFFCURVE",
"1161 -28 CURVE SMOOTH",
"1166 -17 OFFCURVE",
"1168 -9 OFFCURVE",
"1168 -4 CURVE SMOOTH",
"1168 2 OFFCURVE",
"1165 5 OFFCURVE",
"1159 5 CURVE SMOOTH",
"1156 5 OFFCURVE",
"1153 3 OFFCURVE",
"1152 0 CURVE SMOOTH",
"1150 -9 OFFCURVE",
"1148 -15 OFFCURVE",
"1145 -18 CURVE",
"1131 -41 OFFCURVE",
"1097 -53 OFFCURVE",
"1043 -53 CURVE SMOOTH",
"1011 -53 OFFCURVE",
"959 -47 OFFCURVE",
"886 -35 CURVE",
"943 97 OFFCURVE",
"980 310 OFFCURVE",
"995 605 CURVE",
"1062 698 OFFCURVE",
"1114 744 OFFCURVE",
"1150 744 CURVE SMOOTH",
"1166 744 OFFCURVE",
"1174 747 OFFCURVE",
"1174 753 CURVE SMOOTH"
);
},
{
closed = 1;
nodes = (
"933 262 OFFCURVE",
"904 72 OFFCURVE",
"859 -32 CURVE",
"758 -17 OFFCURVE",
"682 -5 OFFCURVE",
"631 5 CURVE",
"665 60 OFFCURVE",
"718 149 OFFCURVE",
"789 272 CURVE SMOOTH",
"856 388 OFFCURVE",
"909 476 OFFCURVE",
"948 537 CURVE"
);
}
);
width = 1022;
}
);
note = Y;
unicode = 0059;
},
{
color = 5;
glyphname = Z;
lastChange = "2021-10-11 21:59:10 +0000";
layers = (
{
layerId = "CE757C0C-4E55-453C-A2E3-610759FCFE83";
paths = (
{
closed = 1;
nodes = (
"589 -43 OFFCURVE",
"607 -22 OFFCURVE",
"607 21 CURVE SMOOTH",
"607 56 OFFCURVE",
"599 74 OFFCURVE",
"584 74 CURVE SMOOTH",
"581 74 LINE",
"586 57 OFFCURVE",
"588 42 OFFCURVE",
"588 31 CURVE SMOOTH",
"588 12 OFFCURVE",
"581 2 OFFCURVE",
"568 2 CURVE SMOOTH",
"564 2 LINE",
"525 29 OFFCURVE",
"474 51 OFFCURVE",
"412 67 CURVE SMOOTH",
"354 82 OFFCURVE",
"299 90 OFFCURVE",
"247 90 CURVE SMOOTH",
"164 90 OFFCURVE",
"94 71 OFFCURVE",
"38 32 CURVE",
"37 34 OFFCURVE",
"37 36 OFFCURVE",
"37 38 CURVE SMOOTH",
"37 74 OFFCURVE",
"117 153 OFFCURVE",
"278 274 CURVE",
"363 277 LINE SMOOTH",
"391 278 OFFCURVE",
"405 281 OFFCURVE",
"405 286 CURVE SMOOTH",
"405 296 OFFCURVE",
"375 301 OFFCURVE",
"314 301 CURVE",
"461 410 OFFCURVE",
"534 476 OFFCURVE",
"534 501 CURVE SMOOTH",
"534 535 OFFCURVE",
"484 552 OFFCURVE",
"385 552 CURVE SMOOTH",
"357 552 OFFCURVE",
"281 546 OFFCURVE",
"157 534 CURVE",
"157 546 OFFCURVE",
"158 564 OFFCURVE",
"159 587 CURVE SMOOTH",
"160 603 OFFCURVE",
"161 611 OFFCURVE",
"162 611 CURVE",
"162 605 LINE SMOOTH",
"162 607 OFFCURVE",
"161 608 OFFCURVE",
"160 609 CURVE",
"155 608 OFFCURVE",
"150 601 OFFCURVE",
"147 586 CURVE SMOOTH",
"142 556 LINE SMOOTH",
"141 549 OFFCURVE",
"137 536 OFFCURVE",
"128 517 CURVE SMOOTH",
"119 499 OFFCURVE",
"115 487 OFFCURVE",
"115 480 CURVE SMOOTH",
"115 469 OFFCURVE",
"122 463 OFFCURVE",
"135 463 CURVE SMOOTH",
"150 463 OFFCURVE",
"158 472 OFFCURVE",
"158 489 CURVE SMOOTH",
"158 508 OFFCURVE",
"158 516 OFFCURVE",
"157 515 CURVE",
"167 515 LINE SMOOTH",
"185 515 OFFCURVE",
"212 516 OFFCURVE",
"248 519 CURVE SMOOTH",
"285 522 OFFCURVE",
"312 523 OFFCURVE",
"330 523 CURVE SMOOTH",
"416 523 OFFCURVE",
"459 505 OFFCURVE",
"459 470 CURVE SMOOTH",
"459 455 OFFCURVE",
"432 425 OFFCURVE",
"378 381 CURVE SMOOTH",
"333 345 OFFCURVE",
"298 318 OFFCURVE",
"275 301 CURVE",
"230 300 OFFCURVE",
"195 299 OFFCURVE",
"171 299 CURVE",
"166 298 OFFCURVE",
"157 293 OFFCURVE",
"145 284 CURVE SMOOTH",
"133 275 OFFCURVE",
"127 269 OFFCURVE",
"127 264 CURVE SMOOTH",
"127 263 OFFCURVE",
"128 262 OFFCURVE",
"131 262 CURVE SMOOTH",
"152 262 OFFCURVE",
"187 265 OFFCURVE",
"236 270 CURVE",
"85 148 OFFCURVE",
"7 54 OFFCURVE",
"0 -11 CURVE",
"47 32 OFFCURVE",
"120 54 OFFCURVE",
"219 54 CURVE SMOOTH",
"296 54 OFFCURVE",
"373 35 OFFCURVE",
"451 -4 CURVE SMOOTH",
"473 -15 OFFCURVE",
"489 -24 OFFCURVE",
"500 -29 CURVE SMOOTH",
"519 -38 OFFCURVE",
"537 -43 OFFCURVE",
"552 -43 CURVE SMOOTH"
);
}
);
width = 610;
},
{
associatedMasterId = "CE757C0C-4E55-453C-A2E3-610759FCFE83";
layerId = "D8E98E05-6F99-4174-A799-9070338AE5B4";
name = Regular;
paths = (
{
closed = 1;
nodes = (
"785 586 OFFCURVE",
"771 606 OFFCURVE",
"762 606 CURVE SMOOTH",
"758 606 OFFCURVE",
"737 592 OFFCURVE",
"698 565 CURVE",
"646 570 OFFCURVE",
"603 576 OFFCURVE",
"569 582 CURVE SMOOTH",
"457 600 OFFCURVE",
"374 609 OFFCURVE",
"320 609 CURVE SMOOTH",
"219 609 OFFCURVE",
"151 585 OFFCURVE",
"118 538 CURVE SMOOTH",
"107 523 OFFCURVE",
"102 509 OFFCURVE",
"102 496 CURVE SMOOTH",
"102 480 OFFCURVE",
"117 462 OFFCURVE",
"147 443 CURVE SMOOTH",
"175 424 OFFCURVE",
"198 415 OFFCURVE",
"215 415 CURVE SMOOTH",
"217 415 OFFCURVE",
"218 416 OFFCURVE",
"218 418 CURVE",
"160 458 OFFCURVE",
"131 494 OFFCURVE",
"131 526 CURVE SMOOTH",
"131 559 OFFCURVE",
"199 575 OFFCURVE",
"334 575 CURVE SMOOTH",
"386 575 OFFCURVE",
"442 571 OFFCURVE",
"502 564 CURVE SMOOTH",
"669 541 LINE",
"592 481 OFFCURVE",
"504 401 OFFCURVE",
"405 302 CURVE",
"323 298 OFFCURVE",
"272 296 OFFCURVE",
"251 296 CURVE SMOOTH",
"247 296 OFFCURVE",
"245 287 OFFCURVE",
"245 269 CURVE SMOOTH",
"245 252 OFFCURVE",
"247 243 OFFCURVE",
"251 243 CURVE SMOOTH",
"278 243 OFFCURVE",
"313 247 OFFCURVE",
"358 254 CURVE",
"245 137 OFFCURVE",
"163 42 OFFCURVE",
"114 -30 CURVE",
"93 -33 OFFCURVE",
"77 -34 OFFCURVE",
"66 -34 CURVE SMOOTH",
"47 -34 OFFCURVE",
"37 -30 OFFCURVE",
"37 -21 CURVE SMOOTH",
"37 -9 OFFCURVE",
"55 5 OFFCURVE",
"90 20 CURVE SMOOTH",
"143 42 LINE",
"143 45 OFFCURVE",
"137 47 OFFCURVE",
"126 48 CURVE SMOOTH",
"107 48 OFFCURVE",
"84 44 OFFCURVE",
"57 35 CURVE SMOOTH",
"21 23 OFFCURVE",
"3 5 OFFCURVE",
"3 -19 CURVE SMOOTH",
"3 -52 OFFCURVE",
"20 -69 OFFCURVE",
"55 -69 CURVE SMOOTH",
"65 -69 OFFCURVE",
"77 -68 OFFCURVE",
"91 -67 CURVE",
"81 -85 OFFCURVE",
"76 -98 OFFCURVE",
"76 -105 CURVE SMOOTH",
"76 -110 OFFCURVE",
"79 -113 OFFCURVE",
"84 -113 CURVE SMOOTH",
"87 -113 OFFCURVE",
"89 -111 OFFCURVE",
"90 -107 CURVE SMOOTH",
"95 -92 OFFCURVE",
"101 -77 OFFCURVE",
"109 -64 CURVE",
"347 -25 LINE SMOOTH",
"442 -10 OFFCURVE",
"522 -2 OFFCURVE",
"585 -2 CURVE SMOOTH",
"699 -2 OFFCURVE",
"756 -20 OFFCURVE",
"756 -56 CURVE SMOOTH",
"756 -93 OFFCURVE",
"724 -140 OFFCURVE",
"659 -196 CURVE SMOOTH",
"650 -203 OFFCURVE",
"646 -209 OFFCURVE",
"646 -213 CURVE SMOOTH",
"646 -214 OFFCURVE",
"647 -214 OFFCURVE",
"649 -215 CURVE",
"651 -215 OFFCURVE",
"653 -214 OFFCURVE",
"656 -213 CURVE SMOOTH",
"680 -206 OFFCURVE",
"706 -191 OFFCURVE",
"733 -166 CURVE SMOOTH",
"764 -140 OFFCURVE",
"779 -115 OFFCURVE",
"779 -92 CURVE SMOOTH",
"779 -75 OFFCURVE",
"776 -59 OFFCURVE",
"770 -46 CURVE SMOOTH",
"749 5 OFFCURVE",
"677 30 OFFCURVE",
"552 30 CURVE SMOOTH",
"497 30 OFFCURVE",
"437 25 OFFCURVE",
"372 16 CURVE SMOOTH",
"291 1 LINE SMOOTH",
"228 -12 OFFCURVE",
"176 -21 OFFCURVE",
"135 -26 CURVE",
"191 48 OFFCURVE",
"282 144 OFFCURVE",
"407 263 CURVE",
"486 278 OFFCURVE",
"541 285 OFFCURVE",
"574 285 CURVE SMOOTH",
"581 285 OFFCURVE",
"595 284 OFFCURVE",
"614 282 CURVE SMOOTH",
"634 281 OFFCURVE",
"640 280 OFFCURVE",
"631 280 CURVE SMOOTH",
"636 280 OFFCURVE",
"639 282 OFFCURVE",
"639 286 CURVE SMOOTH",
"639 299 OFFCURVE",
"594 305 OFFCURVE",
"505 305 CURVE SMOOTH",
"489 305 OFFCURVE",
"471 305 OFFCURVE",
"450 304 CURVE",
"586 430 OFFCURVE",
"697 519 OFFCURVE",
"783 570 CURVE",
"784 571 OFFCURVE",
"785 573 OFFCURVE",
"785 575 CURVE SMOOTH"
);
}
);
width = 769;
}
);
note = Z;
unicode = 005A;
},
{
glyphname = A.ss01;
lastChange = "2021-10-11 21:59:10 +0000";
layers = (
{
layerId = "CE757C0C-4E55-453C-A2E3-610759FCFE83";
paths = (
{
closed = 1;
nodes = (
"213 -175 OFFCURVE",
"274 -154 OFFCURVE",
"339 -113 CURVE SMOOTH",
"392 -78 OFFCURVE",
"442 -35 OFFCURVE",
"487 16 CURVE SMOOTH",
"538 74 OFFCURVE",
"577 122 OFFCURVE",
"602 159 CURVE",
"627 154 OFFCURVE",
"662 140 OFFCURVE",
"705 118 CURVE SMOOTH",
"749 96 OFFCURVE",
"780 76 OFFCURVE",
"799 59 CURVE",
"832 -39 OFFCURVE",
"869 -88 OFFCURVE",
"912 -88 CURVE SMOOTH",
"921 -88 OFFCURVE",
"926 -84 OFFCURVE",
"926 -76 CURVE SMOOTH",
"926 -57 OFFCURVE",
"913 -28 OFFCURVE",
"888 10 CURVE SMOOTH",
"865 45 OFFCURVE",
"844 70 OFFCURVE",
"825 85 CURVE",
"810 146 OFFCURVE",
"802 224 OFFCURVE",
"802 321 CURVE SMOOTH",
"802 444 OFFCURVE",
"814 535 OFFCURVE",
"838 594 CURVE SMOOTH",
"847 615 OFFCURVE",
"859 637 OFFCURVE",
"874 659 CURVE SMOOTH",
"877 664 LINE",
"877 665 OFFCURVE",
"876 666 OFFCURVE",
"875 667 CURVE",
"869 667 OFFCURVE",
"857 657 OFFCURVE",
"839 637 CURVE SMOOTH",
"824 620 OFFCURVE",
"812 607 OFFCURVE",
"805 598 CURVE",
"806 606 OFFCURVE",
"806 613 OFFCURVE",
"806 619 CURVE SMOOTH",
"806 626 LINE SMOOTH",
"806 639 OFFCURVE",
"804 646 OFFCURVE",
"801 646 CURVE",
"770 495 OFFCURVE",
"705 343 OFFCURVE",
"607 191 CURVE",
"561 199 OFFCURVE",
"517 203 OFFCURVE",
"475 203 CURVE SMOOTH",
"391 203 OFFCURVE",
"309 187 OFFCURVE",
"230 156 CURVE SMOOTH",
"211 148 OFFCURVE",
"193 135 OFFCURVE",
"177 118 CURVE SMOOTH",
"159 99 OFFCURVE",
"150 79 OFFCURVE",
"150 60 CURVE SMOOTH",
"150 43 OFFCURVE",
"163 28 OFFCURVE",
"188 15 CURVE SMOOTH",
"208 4 OFFCURVE",
"228 -1 OFFCURVE",
"248 -1 CURVE SMOOTH",
"255 -1 OFFCURVE",
"259 1 OFFCURVE",
"259 6 CURVE SMOOTH",
"259 8 LINE",
"244 10 OFFCURVE",
"227 17 OFFCURVE",
"208 30 CURVE SMOOTH",
"187 45 OFFCURVE",
"177 59 OFFCURVE",
"177 73 CURVE SMOOTH",
"177 109 OFFCURVE",
"217 137 OFFCURVE",
"297 157 CURVE SMOOTH",
"353 171 OFFCURVE",
"407 178 OFFCURVE",
"460 178 CURVE SMOOTH",
"509 178 OFFCURVE",
"553 172 OFFCURVE",
"590 161 CURVE",
"445 -45 OFFCURVE",
"303 -148 OFFCURVE",
"165 -148 CURVE SMOOTH",
"81 -148 OFFCURVE",
"29 -85 OFFCURVE",
"29 0 CURVE SMOOTH",
"29 55 OFFCURVE",
"45 108 OFFCURVE",
"77 160 CURVE SMOOTH",
"107 208 OFFCURVE",
"146 249 OFFCURVE",
"194 283 CURVE SMOOTH",
"227 306 OFFCURVE",
"253 318 OFFCURVE",
"274 318 CURVE SMOOTH",
"281 318 OFFCURVE",
"287 316 OFFCURVE",
"292 313 CURVE SMOOTH",
"301 308 LINE",
"302 308 OFFCURVE",
"302 308 OFFCURVE",
"302 309 CURVE SMOOTH",
"302 322 OFFCURVE",
"291 328 OFFCURVE",
"268 328 CURVE SMOOTH",
"261 328 OFFCURVE",
"244 326 OFFCURVE",
"236 326 CURVE SMOOTH",
"235 326 OFFCURVE",
"235 327 OFFCURVE",
"236 328 CURVE",
"236 330 OFFCURVE",
"236 331 OFFCURVE",
"235 332 CURVE",
"218 332 OFFCURVE",
"197 321 OFFCURVE",
"173 299 CURVE SMOOTH",
"128 258 OFFCURVE",
"89 211 OFFCURVE",
"58 156 CURVE SMOOTH",
"23 94 OFFCURVE",
"5 36 OFFCURVE",
"5 -17 CURVE SMOOTH",
"5 -112 OFFCURVE",
"62 -175 OFFCURVE",
"157 -175 CURVE SMOOTH"
);
},
{
closed = 1;
nodes = (
"735 145 OFFCURVE",
"676 173 OFFCURVE",
"619 185 CURVE",
"684 290 OFFCURVE",
"738 398 OFFCURVE",
"782 507 CURVE",
"777 460 OFFCURVE",
"775 412 OFFCURVE",
"775 363 CURVE SMOOTH",
"775 279 OFFCURVE",
"783 191 OFFCURVE",
"798 100 CURVE"
);
}
);
width = 935;
}
);
note = A;
},
